<?xml version="1.0" encoding="utf-8" standalone="no"?>
<!DOCTYPE svg PUBLIC "-//W3C//DTD SVG 1.1//EN"
  "http://www.w3.org/Graphics/SVG/1.1/DTD/svg11.dtd">
<!-- Created with matplotlib (https://matplotlib.org/) -->
<svg height="722.16pt" version="1.1" viewBox="0 0 1329.12 722.16" width="1329.12pt" xmlns="http://www.w3.org/2000/svg" xmlns:xlink="http://www.w3.org/1999/xlink">
 <defs>
  <style type="text/css">
*{stroke-linecap:butt;stroke-linejoin:round;}
  </style>
 </defs>
 <g id="figure_1">
  <g id="patch_1">
   <path d="M 0 722.16 
L 1329.12 722.16 
L 1329.12 0 
L 0 0 
z
" style="fill:#ffffff;"/>
  </g>
  <g id="axes_1">
   <g id="patch_2">
    <path d="M 166.14 642.7224 
L 1196.208 642.7224 
L 1196.208 86.6592 
L 166.14 86.6592 
z
" style="fill:#ffffff;"/>
   </g>
   <g id="matplotlib.axis_1">
    <g id="xtick_1">
     <g id="line2d_1">
      <defs>
       <path d="M 0 0 
L 0 3.5 
" id="m10fe45ec8c" style="stroke:#000000;stroke-width:0.8;"/>
      </defs>
      <g>
       <use style="stroke:#000000;stroke-width:0.8;" x="212.961273" xlink:href="#m10fe45ec8c" y="642.7224"/>
      </g>
     </g>
     <g id="text_1">
      <!-- 0 -->
      <defs>
       <path d="M 31.78125 66.40625 
Q 24.171875 66.40625 20.328125 58.90625 
Q 16.5 51.421875 16.5 36.375 
Q 16.5 21.390625 20.328125 13.890625 
Q 24.171875 6.390625 31.78125 6.390625 
Q 39.453125 6.390625 43.28125 13.890625 
Q 47.125 21.390625 47.125 36.375 
Q 47.125 51.421875 43.28125 58.90625 
Q 39.453125 66.40625 31.78125 66.40625 
z
M 31.78125 74.21875 
Q 44.046875 74.21875 50.515625 64.515625 
Q 56.984375 54.828125 56.984375 36.375 
Q 56.984375 17.96875 50.515625 8.265625 
Q 44.046875 -1.421875 31.78125 -1.421875 
Q 19.53125 -1.421875 13.0625 8.265625 
Q 6.59375 17.96875 6.59375 36.375 
Q 6.59375 54.828125 13.0625 64.515625 
Q 19.53125 74.21875 31.78125 74.21875 
z
" id="DejaVuSans-48"/>
      </defs>
      <g transform="translate(209.780023 657.320837)scale(0.1 -0.1)">
       <use xlink:href="#DejaVuSans-48"/>
      </g>
     </g>
    </g>
    <g id="xtick_2">
     <g id="line2d_2">
      <g>
       <use style="stroke:#000000;stroke-width:0.8;" x="369.032182" xlink:href="#m10fe45ec8c" y="642.7224"/>
      </g>
     </g>
     <g id="text_2">
      <!-- 5 -->
      <defs>
       <path d="M 10.796875 72.90625 
L 49.515625 72.90625 
L 49.515625 64.59375 
L 19.828125 64.59375 
L 19.828125 46.734375 
Q 21.96875 47.46875 24.109375 47.828125 
Q 26.265625 48.1875 28.421875 48.1875 
Q 40.625 48.1875 47.75 41.5 
Q 54.890625 34.8125 54.890625 23.390625 
Q 54.890625 11.625 47.5625 5.09375 
Q 40.234375 -1.421875 26.90625 -1.421875 
Q 22.3125 -1.421875 17.546875 -0.640625 
Q 12.796875 0.140625 7.71875 1.703125 
L 7.71875 11.625 
Q 12.109375 9.234375 16.796875 8.0625 
Q 21.484375 6.890625 26.703125 6.890625 
Q 35.15625 6.890625 40.078125 11.328125 
Q 45.015625 15.765625 45.015625 23.390625 
Q 45.015625 31 40.078125 35.4375 
Q 35.15625 39.890625 26.703125 39.890625 
Q 22.75 39.890625 18.8125 39.015625 
Q 14.890625 38.140625 10.796875 36.28125 
z
" id="DejaVuSans-53"/>
      </defs>
      <g transform="translate(365.850932 657.320837)scale(0.1 -0.1)">
       <use xlink:href="#DejaVuSans-53"/>
      </g>
     </g>
    </g>
    <g id="xtick_3">
     <g id="line2d_3">
      <g>
       <use style="stroke:#000000;stroke-width:0.8;" x="525.103091" xlink:href="#m10fe45ec8c" y="642.7224"/>
      </g>
     </g>
     <g id="text_3">
      <!-- 10 -->
      <defs>
       <path d="M 12.40625 8.296875 
L 28.515625 8.296875 
L 28.515625 63.921875 
L 10.984375 60.40625 
L 10.984375 69.390625 
L 28.421875 72.90625 
L 38.28125 72.90625 
L 38.28125 8.296875 
L 54.390625 8.296875 
L 54.390625 0 
L 12.40625 0 
z
" id="DejaVuSans-49"/>
      </defs>
      <g transform="translate(518.740591 657.320837)scale(0.1 -0.1)">
       <use xlink:href="#DejaVuSans-49"/>
       <use x="63.623047" xlink:href="#DejaVuSans-48"/>
      </g>
     </g>
    </g>
    <g id="xtick_4">
     <g id="line2d_4">
      <g>
       <use style="stroke:#000000;stroke-width:0.8;" x="681.174" xlink:href="#m10fe45ec8c" y="642.7224"/>
      </g>
     </g>
     <g id="text_4">
      <!-- 15 -->
      <g transform="translate(674.8115 657.320837)scale(0.1 -0.1)">
       <use xlink:href="#DejaVuSans-49"/>
       <use x="63.623047" xlink:href="#DejaVuSans-53"/>
      </g>
     </g>
    </g>
    <g id="xtick_5">
     <g id="line2d_5">
      <g>
       <use style="stroke:#000000;stroke-width:0.8;" x="837.244909" xlink:href="#m10fe45ec8c" y="642.7224"/>
      </g>
     </g>
     <g id="text_5">
      <!-- 20 -->
      <defs>
       <path d="M 19.1875 8.296875 
L 53.609375 8.296875 
L 53.609375 0 
L 7.328125 0 
L 7.328125 8.296875 
Q 12.9375 14.109375 22.625 23.890625 
Q 32.328125 33.6875 34.8125 36.53125 
Q 39.546875 41.84375 41.421875 45.53125 
Q 43.3125 49.21875 43.3125 52.78125 
Q 43.3125 58.59375 39.234375 62.25 
Q 35.15625 65.921875 28.609375 65.921875 
Q 23.96875 65.921875 18.8125 64.3125 
Q 13.671875 62.703125 7.8125 59.421875 
L 7.8125 69.390625 
Q 13.765625 71.78125 18.9375 73 
Q 24.125 74.21875 28.421875 74.21875 
Q 39.75 74.21875 46.484375 68.546875 
Q 53.21875 62.890625 53.21875 53.421875 
Q 53.21875 48.921875 51.53125 44.890625 
Q 49.859375 40.875 45.40625 35.40625 
Q 44.1875 33.984375 37.640625 27.21875 
Q 31.109375 20.453125 19.1875 8.296875 
z
" id="DejaVuSans-50"/>
      </defs>
      <g transform="translate(830.882409 657.320837)scale(0.1 -0.1)">
       <use xlink:href="#DejaVuSans-50"/>
       <use x="63.623047" xlink:href="#DejaVuSans-48"/>
      </g>
     </g>
    </g>
    <g id="xtick_6">
     <g id="line2d_6">
      <g>
       <use style="stroke:#000000;stroke-width:0.8;" x="993.315818" xlink:href="#m10fe45ec8c" y="642.7224"/>
      </g>
     </g>
     <g id="text_6">
      <!-- 25 -->
      <g transform="translate(986.953318 657.320837)scale(0.1 -0.1)">
       <use xlink:href="#DejaVuSans-50"/>
       <use x="63.623047" xlink:href="#DejaVuSans-53"/>
      </g>
     </g>
    </g>
    <g id="xtick_7">
     <g id="line2d_7">
      <g>
       <use style="stroke:#000000;stroke-width:0.8;" x="1149.386727" xlink:href="#m10fe45ec8c" y="642.7224"/>
      </g>
     </g>
     <g id="text_7">
      <!-- 30 -->
      <defs>
       <path d="M 40.578125 39.3125 
Q 47.65625 37.796875 51.625 33 
Q 55.609375 28.21875 55.609375 21.1875 
Q 55.609375 10.40625 48.1875 4.484375 
Q 40.765625 -1.421875 27.09375 -1.421875 
Q 22.515625 -1.421875 17.65625 -0.515625 
Q 12.796875 0.390625 7.625 2.203125 
L 7.625 11.71875 
Q 11.71875 9.328125 16.59375 8.109375 
Q 21.484375 6.890625 26.8125 6.890625 
Q 36.078125 6.890625 40.9375 10.546875 
Q 45.796875 14.203125 45.796875 21.1875 
Q 45.796875 27.640625 41.28125 31.265625 
Q 36.765625 34.90625 28.71875 34.90625 
L 20.21875 34.90625 
L 20.21875 43.015625 
L 29.109375 43.015625 
Q 36.375 43.015625 40.234375 45.921875 
Q 44.09375 48.828125 44.09375 54.296875 
Q 44.09375 59.90625 40.109375 62.90625 
Q 36.140625 65.921875 28.71875 65.921875 
Q 24.65625 65.921875 20.015625 65.03125 
Q 15.375 64.15625 9.8125 62.3125 
L 9.8125 71.09375 
Q 15.4375 72.65625 20.34375 73.4375 
Q 25.25 74.21875 29.59375 74.21875 
Q 40.828125 74.21875 47.359375 69.109375 
Q 53.90625 64.015625 53.90625 55.328125 
Q 53.90625 49.265625 50.4375 45.09375 
Q 46.96875 40.921875 40.578125 39.3125 
z
" id="DejaVuSans-51"/>
      </defs>
      <g transform="translate(1143.024227 657.320837)scale(0.1 -0.1)">
       <use xlink:href="#DejaVuSans-51"/>
       <use x="63.623047" xlink:href="#DejaVuSans-48"/>
      </g>
     </g>
    </g>
    <g id="text_8">
     <!-- Time [s] -->
     <defs>
      <path d="M -0.296875 72.90625 
L 61.375 72.90625 
L 61.375 64.59375 
L 35.5 64.59375 
L 35.5 0 
L 25.59375 0 
L 25.59375 64.59375 
L -0.296875 64.59375 
z
" id="DejaVuSans-84"/>
      <path d="M 9.421875 54.6875 
L 18.40625 54.6875 
L 18.40625 0 
L 9.421875 0 
z
M 9.421875 75.984375 
L 18.40625 75.984375 
L 18.40625 64.59375 
L 9.421875 64.59375 
z
" id="DejaVuSans-105"/>
      <path d="M 52 44.1875 
Q 55.375 50.25 60.0625 53.125 
Q 64.75 56 71.09375 56 
Q 79.640625 56 84.28125 50.015625 
Q 88.921875 44.046875 88.921875 33.015625 
L 88.921875 0 
L 79.890625 0 
L 79.890625 32.71875 
Q 79.890625 40.578125 77.09375 44.375 
Q 74.3125 48.1875 68.609375 48.1875 
Q 61.625 48.1875 57.5625 43.546875 
Q 53.515625 38.921875 53.515625 30.90625 
L 53.515625 0 
L 44.484375 0 
L 44.484375 32.71875 
Q 44.484375 40.625 41.703125 44.40625 
Q 38.921875 48.1875 33.109375 48.1875 
Q 26.21875 48.1875 22.15625 43.53125 
Q 18.109375 38.875 18.109375 30.90625 
L 18.109375 0 
L 9.078125 0 
L 9.078125 54.6875 
L 18.109375 54.6875 
L 18.109375 46.1875 
Q 21.1875 51.21875 25.484375 53.609375 
Q 29.78125 56 35.6875 56 
Q 41.65625 56 45.828125 52.96875 
Q 50 49.953125 52 44.1875 
z
" id="DejaVuSans-109"/>
      <path d="M 56.203125 29.59375 
L 56.203125 25.203125 
L 14.890625 25.203125 
Q 15.484375 15.921875 20.484375 11.0625 
Q 25.484375 6.203125 34.421875 6.203125 
Q 39.59375 6.203125 44.453125 7.46875 
Q 49.3125 8.734375 54.109375 11.28125 
L 54.109375 2.78125 
Q 49.265625 0.734375 44.1875 -0.34375 
Q 39.109375 -1.421875 33.890625 -1.421875 
Q 20.796875 -1.421875 13.15625 6.1875 
Q 5.515625 13.8125 5.515625 26.8125 
Q 5.515625 40.234375 12.765625 48.109375 
Q 20.015625 56 32.328125 56 
Q 43.359375 56 49.78125 48.890625 
Q 56.203125 41.796875 56.203125 29.59375 
z
M 47.21875 32.234375 
Q 47.125 39.59375 43.09375 43.984375 
Q 39.0625 48.390625 32.421875 48.390625 
Q 24.90625 48.390625 20.390625 44.140625 
Q 15.875 39.890625 15.1875 32.171875 
z
" id="DejaVuSans-101"/>
      <path id="DejaVuSans-32"/>
      <path d="M 8.59375 75.984375 
L 29.296875 75.984375 
L 29.296875 69 
L 17.578125 69 
L 17.578125 -6.203125 
L 29.296875 -6.203125 
L 29.296875 -13.1875 
L 8.59375 -13.1875 
z
" id="DejaVuSans-91"/>
      <path d="M 44.28125 53.078125 
L 44.28125 44.578125 
Q 40.484375 46.53125 36.375 47.5 
Q 32.28125 48.484375 27.875 48.484375 
Q 21.1875 48.484375 17.84375 46.4375 
Q 14.5 44.390625 14.5 40.28125 
Q 14.5 37.15625 16.890625 35.375 
Q 19.28125 33.59375 26.515625 31.984375 
L 29.59375 31.296875 
Q 39.15625 29.25 43.1875 25.515625 
Q 47.21875 21.78125 47.21875 15.09375 
Q 47.21875 7.46875 41.1875 3.015625 
Q 35.15625 -1.421875 24.609375 -1.421875 
Q 20.21875 -1.421875 15.453125 -0.5625 
Q 10.6875 0.296875 5.421875 2 
L 5.421875 11.28125 
Q 10.40625 8.6875 15.234375 7.390625 
Q 20.0625 6.109375 24.8125 6.109375 
Q 31.15625 6.109375 34.5625 8.28125 
Q 37.984375 10.453125 37.984375 14.40625 
Q 37.984375 18.0625 35.515625 20.015625 
Q 33.0625 21.96875 24.703125 23.78125 
L 21.578125 24.515625 
Q 13.234375 26.265625 9.515625 29.90625 
Q 5.8125 33.546875 5.8125 39.890625 
Q 5.8125 47.609375 11.28125 51.796875 
Q 16.75 56 26.8125 56 
Q 31.78125 56 36.171875 55.265625 
Q 40.578125 54.546875 44.28125 53.078125 
z
" id="DejaVuSans-115"/>
      <path d="M 30.421875 75.984375 
L 30.421875 -13.1875 
L 9.71875 -13.1875 
L 9.71875 -6.203125 
L 21.390625 -6.203125 
L 21.390625 69 
L 9.71875 69 
L 9.71875 75.984375 
z
" id="DejaVuSans-93"/>
     </defs>
     <g transform="translate(660.845094 670.998962)scale(0.1 -0.1)">
      <use xlink:href="#DejaVuSans-84"/>
      <use x="57.958984" xlink:href="#DejaVuSans-105"/>
      <use x="85.742188" xlink:href="#DejaVuSans-109"/>
      <use x="183.154297" xlink:href="#DejaVuSans-101"/>
      <use x="244.677734" xlink:href="#DejaVuSans-32"/>
      <use x="276.464844" xlink:href="#DejaVuSans-91"/>
      <use x="315.478516" xlink:href="#DejaVuSans-115"/>
      <use x="367.578125" xlink:href="#DejaVuSans-93"/>
     </g>
    </g>
   </g>
   <g id="matplotlib.axis_2">
    <g id="ytick_1">
     <g id="line2d_8">
      <defs>
       <path d="M 0 0 
L -3.5 0 
" id="m57e26e2924" style="stroke:#000000;stroke-width:0.8;"/>
      </defs>
      <g>
       <use style="stroke:#000000;stroke-width:0.8;" x="166.14" xlink:href="#m57e26e2924" y="571.155724"/>
      </g>
     </g>
     <g id="text_9">
      <!-- −0.05 -->
      <defs>
       <path d="M 10.59375 35.5 
L 73.1875 35.5 
L 73.1875 27.203125 
L 10.59375 27.203125 
z
" id="DejaVuSans-8722"/>
       <path d="M 10.6875 12.40625 
L 21 12.40625 
L 21 0 
L 10.6875 0 
z
" id="DejaVuSans-46"/>
      </defs>
      <g transform="translate(128.494687 574.954942)scale(0.1 -0.1)">
       <use xlink:href="#DejaVuSans-8722"/>
       <use x="83.789062" xlink:href="#DejaVuSans-48"/>
       <use x="147.412109" xlink:href="#DejaVuSans-46"/>
       <use x="179.199219" xlink:href="#DejaVuSans-48"/>
       <use x="242.822266" xlink:href="#DejaVuSans-53"/>
      </g>
     </g>
    </g>
    <g id="ytick_2">
     <g id="line2d_9">
      <g>
       <use style="stroke:#000000;stroke-width:0.8;" x="166.14" xlink:href="#m57e26e2924" y="484.244178"/>
      </g>
     </g>
     <g id="text_10">
      <!-- 0.00 -->
      <g transform="translate(136.874375 488.043396)scale(0.1 -0.1)">
       <use xlink:href="#DejaVuSans-48"/>
       <use x="63.623047" xlink:href="#DejaVuSans-46"/>
       <use x="95.410156" xlink:href="#DejaVuSans-48"/>
       <use x="159.033203" xlink:href="#DejaVuSans-48"/>
      </g>
     </g>
    </g>
    <g id="ytick_3">
     <g id="line2d_10">
      <g>
       <use style="stroke:#000000;stroke-width:0.8;" x="166.14" xlink:href="#m57e26e2924" y="397.332632"/>
      </g>
     </g>
     <g id="text_11">
      <!-- 0.05 -->
      <g transform="translate(136.874375 401.13185)scale(0.1 -0.1)">
       <use xlink:href="#DejaVuSans-48"/>
       <use x="63.623047" xlink:href="#DejaVuSans-46"/>
       <use x="95.410156" xlink:href="#DejaVuSans-48"/>
       <use x="159.033203" xlink:href="#DejaVuSans-53"/>
      </g>
     </g>
    </g>
    <g id="ytick_4">
     <g id="line2d_11">
      <g>
       <use style="stroke:#000000;stroke-width:0.8;" x="166.14" xlink:href="#m57e26e2924" y="310.421086"/>
      </g>
     </g>
     <g id="text_12">
      <!-- 0.10 -->
      <g transform="translate(136.874375 314.220304)scale(0.1 -0.1)">
       <use xlink:href="#DejaVuSans-48"/>
       <use x="63.623047" xlink:href="#DejaVuSans-46"/>
       <use x="95.410156" xlink:href="#DejaVuSans-49"/>
       <use x="159.033203" xlink:href="#DejaVuSans-48"/>
      </g>
     </g>
    </g>
    <g id="ytick_5">
     <g id="line2d_12">
      <g>
       <use style="stroke:#000000;stroke-width:0.8;" x="166.14" xlink:href="#m57e26e2924" y="223.50954"/>
      </g>
     </g>
     <g id="text_13">
      <!-- 0.15 -->
      <g transform="translate(136.874375 227.308758)scale(0.1 -0.1)">
       <use xlink:href="#DejaVuSans-48"/>
       <use x="63.623047" xlink:href="#DejaVuSans-46"/>
       <use x="95.410156" xlink:href="#DejaVuSans-49"/>
       <use x="159.033203" xlink:href="#DejaVuSans-53"/>
      </g>
     </g>
    </g>
    <g id="ytick_6">
     <g id="line2d_13">
      <g>
       <use style="stroke:#000000;stroke-width:0.8;" x="166.14" xlink:href="#m57e26e2924" y="136.597994"/>
      </g>
     </g>
     <g id="text_14">
      <!-- 0.20 -->
      <g transform="translate(136.874375 140.397212)scale(0.1 -0.1)">
       <use xlink:href="#DejaVuSans-48"/>
       <use x="63.623047" xlink:href="#DejaVuSans-46"/>
       <use x="95.410156" xlink:href="#DejaVuSans-50"/>
       <use x="159.033203" xlink:href="#DejaVuSans-48"/>
      </g>
     </g>
    </g>
    <g id="text_15">
     <!-- ADC data -->
     <defs>
      <path d="M 34.1875 63.1875 
L 20.796875 26.90625 
L 47.609375 26.90625 
z
M 28.609375 72.90625 
L 39.796875 72.90625 
L 67.578125 0 
L 57.328125 0 
L 50.6875 18.703125 
L 17.828125 18.703125 
L 11.1875 0 
L 0.78125 0 
z
" id="DejaVuSans-65"/>
      <path d="M 19.671875 64.796875 
L 19.671875 8.109375 
L 31.59375 8.109375 
Q 46.6875 8.109375 53.6875 14.9375 
Q 60.6875 21.78125 60.6875 36.53125 
Q 60.6875 51.171875 53.6875 57.984375 
Q 46.6875 64.796875 31.59375 64.796875 
z
M 9.8125 72.90625 
L 30.078125 72.90625 
Q 51.265625 72.90625 61.171875 64.09375 
Q 71.09375 55.28125 71.09375 36.53125 
Q 71.09375 17.671875 61.125 8.828125 
Q 51.171875 0 30.078125 0 
L 9.8125 0 
z
" id="DejaVuSans-68"/>
      <path d="M 64.40625 67.28125 
L 64.40625 56.890625 
Q 59.421875 61.53125 53.78125 63.8125 
Q 48.140625 66.109375 41.796875 66.109375 
Q 29.296875 66.109375 22.65625 58.46875 
Q 16.015625 50.828125 16.015625 36.375 
Q 16.015625 21.96875 22.65625 14.328125 
Q 29.296875 6.6875 41.796875 6.6875 
Q 48.140625 6.6875 53.78125 8.984375 
Q 59.421875 11.28125 64.40625 15.921875 
L 64.40625 5.609375 
Q 59.234375 2.09375 53.4375 0.328125 
Q 47.65625 -1.421875 41.21875 -1.421875 
Q 24.65625 -1.421875 15.125 8.703125 
Q 5.609375 18.84375 5.609375 36.375 
Q 5.609375 53.953125 15.125 64.078125 
Q 24.65625 74.21875 41.21875 74.21875 
Q 47.75 74.21875 53.53125 72.484375 
Q 59.328125 70.75 64.40625 67.28125 
z
" id="DejaVuSans-67"/>
      <path d="M 45.40625 46.390625 
L 45.40625 75.984375 
L 54.390625 75.984375 
L 54.390625 0 
L 45.40625 0 
L 45.40625 8.203125 
Q 42.578125 3.328125 38.25 0.953125 
Q 33.9375 -1.421875 27.875 -1.421875 
Q 17.96875 -1.421875 11.734375 6.484375 
Q 5.515625 14.40625 5.515625 27.296875 
Q 5.515625 40.1875 11.734375 48.09375 
Q 17.96875 56 27.875 56 
Q 33.9375 56 38.25 53.625 
Q 42.578125 51.265625 45.40625 46.390625 
z
M 14.796875 27.296875 
Q 14.796875 17.390625 18.875 11.75 
Q 22.953125 6.109375 30.078125 6.109375 
Q 37.203125 6.109375 41.296875 11.75 
Q 45.40625 17.390625 45.40625 27.296875 
Q 45.40625 37.203125 41.296875 42.84375 
Q 37.203125 48.484375 30.078125 48.484375 
Q 22.953125 48.484375 18.875 42.84375 
Q 14.796875 37.203125 14.796875 27.296875 
z
" id="DejaVuSans-100"/>
      <path d="M 34.28125 27.484375 
Q 23.390625 27.484375 19.1875 25 
Q 14.984375 22.515625 14.984375 16.5 
Q 14.984375 11.71875 18.140625 8.90625 
Q 21.296875 6.109375 26.703125 6.109375 
Q 34.1875 6.109375 38.703125 11.40625 
Q 43.21875 16.703125 43.21875 25.484375 
L 43.21875 27.484375 
z
M 52.203125 31.203125 
L 52.203125 0 
L 43.21875 0 
L 43.21875 8.296875 
Q 40.140625 3.328125 35.546875 0.953125 
Q 30.953125 -1.421875 24.3125 -1.421875 
Q 15.921875 -1.421875 10.953125 3.296875 
Q 6 8.015625 6 15.921875 
Q 6 25.140625 12.171875 29.828125 
Q 18.359375 34.515625 30.609375 34.515625 
L 43.21875 34.515625 
L 43.21875 35.40625 
Q 43.21875 41.609375 39.140625 45 
Q 35.0625 48.390625 27.6875 48.390625 
Q 23 48.390625 18.546875 47.265625 
Q 14.109375 46.140625 10.015625 43.890625 
L 10.015625 52.203125 
Q 14.9375 54.109375 19.578125 55.046875 
Q 24.21875 56 28.609375 56 
Q 40.484375 56 46.34375 49.84375 
Q 52.203125 43.703125 52.203125 31.203125 
z
" id="DejaVuSans-97"/>
      <path d="M 18.3125 70.21875 
L 18.3125 54.6875 
L 36.8125 54.6875 
L 36.8125 47.703125 
L 18.3125 47.703125 
L 18.3125 18.015625 
Q 18.3125 11.328125 20.140625 9.421875 
Q 21.96875 7.515625 27.59375 7.515625 
L 36.8125 7.515625 
L 36.8125 0 
L 27.59375 0 
Q 17.1875 0 13.234375 3.875 
Q 9.28125 7.765625 9.28125 18.015625 
L 9.28125 47.703125 
L 2.6875 47.703125 
L 2.6875 54.6875 
L 9.28125 54.6875 
L 9.28125 70.21875 
z
" id="DejaVuSans-116"/>
     </defs>
     <g transform="translate(122.415 388.304081)rotate(-90)scale(0.1 -0.1)">
      <use xlink:href="#DejaVuSans-65"/>
      <use x="68.408203" xlink:href="#DejaVuSans-68"/>
      <use x="145.410156" xlink:href="#DejaVuSans-67"/>
      <use x="215.234375" xlink:href="#DejaVuSans-32"/>
      <use x="247.021484" xlink:href="#DejaVuSans-100"/>
      <use x="310.498047" xlink:href="#DejaVuSans-97"/>
      <use x="371.777344" xlink:href="#DejaVuSans-116"/>
      <use x="410.986328" xlink:href="#DejaVuSans-97"/>
     </g>
    </g>
   </g>
   <g id="line2d_14">
    <path clip-path="url(#p42cc4d7f1d)" d="M 212.961273 111.9348 
L 214.524587 130.173481 
L 219.214531 177.319705 
L 220.777846 190.59249 
L 222.34116 208.67212 
L 223.904475 221.131994 
L 227.031104 248.514722 
L 228.594419 261.665451 
L 230.157733 272.75954 
L 231.721048 286.975782 
L 233.284363 299.064645 
L 234.847677 309.106907 
L 236.410992 320.581896 
L 237.974307 333.416272 
L 241.100936 354.530014 
L 244.227565 374.338494 
L 245.79088 382.06445 
L 247.354194 391.253354 
L 248.917509 401.832763 
L 250.480823 408.631906 
L 252.044138 418.608668 
L 253.607453 424.815158 
L 255.170767 434.209397 
L 258.297397 448.600426 
L 259.860711 455.384944 
L 261.424026 463.602536 
L 262.98734 468.082865 
L 266.11397 479.834431 
L 269.240599 490.603485 
L 272.367228 500.43289 
L 273.930543 505.008597 
L 275.493857 507.665372 
L 277.057172 513.584166 
L 280.183801 521.247554 
L 283.31043 528.11961 
L 286.43706 534.241662 
L 289.563689 539.654356 
L 291.127003 540.407142 
L 292.690318 544.473079 
L 294.253633 544.904093 
L 295.816947 546.957856 
L 297.380262 550.561867 
L 298.943577 552.245192 
L 300.506891 555.489758 
L 302.070206 555.124459 
L 305.196835 557.563447 
L 306.76015 556.899149 
L 308.323464 559.593661 
L 311.450093 561.094434 
L 314.576723 562.177348 
L 317.703352 562.873843 
L 320.829981 563.214142 
L 323.95661 563.227245 
L 325.519925 561.419782 
L 327.08324 561.316399 
L 328.646554 562.843143 
L 330.209869 562.527616 
L 331.773183 563.850265 
L 334.899813 559.448124 
L 336.463127 560.680418 
L 339.589757 559.442871 
L 342.716386 558.026527 
L 347.40633 555.611409 
L 350.532959 553.835477 
L 352.096273 554.604548 
L 353.659588 551.872184 
L 358.349532 548.872056 
L 359.912847 546.133396 
L 361.476161 545.15404 
L 364.60279 462.028831 
L 366.166105 471.279364 
L 367.72942 531.651718 
L 369.292734 547.873697 
L 370.856049 548.198917 
L 372.419363 546.918221 
L 373.982678 547.332715 
L 375.545993 545.968246 
L 377.109307 542.903438 
L 378.672622 543.315269 
L 388.05251 535.211671 
L 389.615824 532.185946 
L 391.179139 532.645509 
L 395.869083 528.758747 
L 397.432397 525.787771 
L 398.995712 526.305882 
L 400.559027 523.360783 
L 402.122341 523.905989 
L 408.3756 519.135143 
L 411.502229 516.850455 
L 413.065543 514.034575 
L 414.628858 491.421802 
L 416.192173 478.114977 
L 417.755487 511.973508 
L 420.882117 513.230624 
L 422.445431 512.160243 
L 424.008746 509.409382 
L 425.57206 510.153854 
L 427.135375 509.140917 
L 428.69869 506.44792 
L 430.262004 505.550557 
L 431.825319 469.820742 
L 433.388633 377.516074 
L 434.951948 491.970771 
L 436.515263 509.981924 
L 441.205207 507.078448 
L 442.768521 507.848912 
L 444.331836 505.16302 
L 445.89515 504.273695 
L 447.458465 505.103721 
L 449.02178 502.477454 
L 450.585094 501.647754 
L 452.148409 502.537351 
L 453.711723 499.970542 
L 455.275038 466.049303 
L 456.838353 373.608211 
L 458.401667 488.276193 
L 459.964982 504.624882 
L 463.091611 502.900224 
L 464.654926 503.766513 
L 466.21824 501.176222 
L 467.781555 500.382192 
L 469.34487 501.307131 
L 472.471499 499.664062 
L 474.034813 497.173092 
L 475.598128 498.177974 
L 477.161443 495.725649 
L 478.724757 496.768895 
L 480.288072 474.464126 
L 481.851387 458.068207 
L 483.414701 494.091367 
L 484.978016 496.748785 
L 489.66796 494.705063 
L 491.231274 492.361381 
L 492.794589 493.511796 
L 497.484533 491.740137 
L 499.047847 479.624881 
L 500.611162 441.349898 
L 502.174477 489.611753 
L 505.301106 491.943855 
L 506.86442 491.407042 
L 508.427735 489.186598 
L 509.99105 488.757919 
L 511.554364 490.043553 
L 513.117679 487.867633 
L 514.680993 489.182859 
L 517.807623 488.304455 
L 519.370937 469.697172 
L 520.934252 360.28023 
L 522.497567 461.953018 
L 524.060881 492.757328 
L 525.624196 493.994066 
L 527.18751 493.467604 
L 528.750825 491.255073 
L 530.31414 492.532007 
L 536.567398 490.666743 
L 541.257342 489.406737 
L 542.820657 467.421823 
L 544.383971 361.576396 
L 545.947286 466.664245 
L 547.5106 493.930489 
L 549.073915 493.481823 
L 550.63723 494.743778 
L 553.763859 493.749861 
L 555.327173 491.571118 
L 556.890488 492.880067 
L 563.143747 491.126046 
L 564.707061 475.756521 
L 566.270376 411.251838 
L 567.83369 439.383022 
L 569.397005 491.155664 
L 570.96032 494.090611 
L 572.523634 495.358471 
L 580.340207 492.982048 
L 586.593466 491.283204 
L 588.15678 487.655962 
L 589.720095 439.131918 
L 591.28341 407.890485 
L 592.846724 419.391445 
L 594.410039 483.836571 
L 595.973353 497.200326 
L 599.099983 496.229923 
L 600.663297 497.458702 
L 606.916556 495.375804 
L 608.47987 493.182907 
L 610.043185 494.47676 
L 611.6065 494.004466 
L 613.169814 491.84323 
L 614.733129 493.168663 
L 616.296443 492.727839 
L 617.859758 490.597938 
L 619.423073 490.254503 
L 620.986387 491.620233 
L 627.239646 490.080836 
L 628.80296 454.871353 
L 630.366275 362.908834 
L 631.92959 479.574961 
L 633.492904 494.783286 
L 635.056219 496.060205 
L 636.619533 493.87014 
L 638.182848 495.16604 
L 639.746163 492.994995 
L 641.309477 494.309933 
L 642.872792 493.857967 
L 644.436107 491.716319 
L 645.999421 493.06061 
L 653.815994 491.049331 
L 656.942623 490.315455 
L 658.505938 475.002984 
L 660.069253 442.1744 
L 661.632567 487.144965 
L 663.195882 490.207466 
L 664.759197 489.901045 
L 666.322511 491.302521 
L 667.885826 490.936236 
L 669.44914 488.879366 
L 671.012455 488.607447 
L 672.57577 490.043175 
L 680.392343 488.472395 
L 681.955657 455.034159 
L 683.518972 356.435549 
L 685.082287 476.790466 
L 686.645601 493.659922 
L 688.208916 493.296788 
L 689.77223 494.640737 
L 691.335545 492.516161 
L 692.89886 493.87601 
L 700.715433 491.92156 
L 702.278747 483.226949 
L 703.842062 436.830196 
L 705.405377 490.417917 
L 706.968691 491.689694 
L 710.09532 491.055319 
L 711.658635 492.448758 
L 713.22195 490.373637 
L 714.785264 491.782861 
L 716.348579 489.723481 
L 717.911893 466.327766 
L 719.475208 405.545071 
L 721.038523 465.46272 
L 722.601837 493.04395 
L 725.728467 495.578597 
L 728.855096 494.692978 
L 730.41841 492.563551 
L 731.981725 493.918714 
L 736.671669 492.706414 
L 738.234983 490.620281 
L 739.798298 492.018733 
L 741.361613 491.648865 
L 742.924927 489.587878 
L 744.488242 491.011382 
L 747.614871 490.330304 
L 749.178186 488.302849 
L 752.304815 380.526713 
L 753.86813 491.537381 
L 755.431444 494.524292 
L 756.994759 495.84144 
L 764.811332 493.67369 
L 772.627905 491.729516 
L 775.754534 491.014256 
L 777.317849 455.818988 
L 778.881163 407.220244 
L 780.444478 418.779244 
L 782.007793 483.28048 
L 783.571107 496.698443 
L 785.134422 497.960996 
L 786.697737 495.755355 
L 788.261051 498.734577 
L 789.824366 496.470216 
L 797.640939 494.176162 
L 799.204253 492.045808 
L 800.767568 493.400584 
L 802.330883 491.287562 
L 803.894197 494.359692 
L 805.457512 492.188425 
L 808.584141 491.428759 
L 810.147456 492.76304 
L 811.71077 490.631028 
L 817.964029 489.303869 
L 819.527343 487.294597 
L 821.090658 438.958526 
L 822.653973 482.358941 
L 824.217287 489.024275 
L 825.780602 488.765176 
L 827.343917 490.213015 
L 828.907231 489.892131 
L 830.470546 491.279781 
L 832.03386 489.200251 
L 835.16049 488.620716 
L 836.723804 486.643228 
L 838.287119 488.149444 
L 839.850433 477.85614 
L 841.413748 370.093846 
L 842.977063 454.809437 
L 844.540377 494.390972 
L 846.103692 492.291637 
L 847.667007 493.675848 
L 849.230321 491.590715 
L 852.35695 494.318444 
L 853.920265 492.180124 
L 855.48358 491.82711 
L 857.046894 493.182157 
L 858.610209 491.069605 
L 863.300153 490.111531 
L 864.863467 474.84759 
L 866.426782 407.044696 
L 867.990097 457.015687 
L 869.553411 493.111115 
L 871.116726 494.478573 
L 878.933299 492.549134 
L 883.623243 491.487939 
L 885.186557 492.850327 
L 886.749872 492.445159 
L 888.313187 488.649594 
L 889.876501 490.114847 
L 891.439816 420.108958 
L 893.00313 361.367392 
L 894.566445 406.789705 
L 896.12976 357.150562 
L 897.693074 489.315775 
L 899.256389 505.909913 
L 900.819703 505.271597 
L 902.383018 506.340763 
L 908.636277 503.60525 
L 910.199591 501.246729 
L 913.32622 503.435509 
L 916.45285 498.716572 
L 918.016164 499.887955 
L 919.579479 499.293288 
L 921.142793 497.009892 
L 922.706108 498.213484 
L 924.269423 495.951201 
L 925.832737 497.176012 
L 933.64931 494.586782 
L 935.212625 494.103544 
L 936.77594 491.931745 
L 938.339254 491.546944 
L 939.902569 464.651148 
L 941.465883 407.322263 
L 943.029198 480.402164 
L 944.592513 494.038573 
L 946.155827 496.872681 
L 953.9724 494.330164 
L 958.662344 492.941149 
L 960.225659 490.800636 
L 961.788973 490.446856 
L 963.352288 491.802504 
L 964.915603 458.241065 
L 966.478917 404.40264 
L 968.042232 480.994141 
L 969.605547 494.418887 
L 972.732176 493.57051 
L 974.29549 494.860206 
L 975.858805 492.683523 
L 977.42212 493.993367 
L 982.112063 492.656334 
L 983.675378 490.532228 
L 985.238693 490.194401 
L 986.802007 491.565552 
L 988.365322 491.170007 
L 989.928637 489.084921 
L 991.491951 490.485858 
L 993.055266 488.419804 
L 994.61858 488.139544 
L 996.181895 489.567746 
L 997.74521 447.747656 
L 999.308524 382.789519 
L 1000.871839 491.946484 
L 1002.435153 493.159853 
L 1003.998468 492.781847 
L 1005.561783 494.112069 
L 1007.125097 491.974871 
L 1008.688412 493.32317 
L 1010.251727 492.90407 
L 1011.815041 490.794778 
L 1013.378356 490.470867 
L 1014.94167 491.855064 
L 1018.0683 491.098052 
L 1019.631614 484.103841 
L 1021.194929 442.56283 
L 1022.758243 490.759494 
L 1025.884873 490.136716 
L 1027.448187 491.536902 
L 1029.011502 489.469115 
L 1030.574817 490.886228 
L 1032.138131 490.535303 
L 1033.701446 488.493511 
L 1035.26476 489.936432 
L 1036.828075 489.61111 
L 1038.39139 487.594701 
L 1039.954704 452.511848 
L 1041.518019 404.023825 
L 1043.081333 482.3335 
L 1044.644648 490.770295 
L 1046.207963 492.033986 
L 1047.771277 491.705203 
L 1049.334592 493.083546 
L 1057.151165 491.220678 
L 1060.277794 490.536596 
L 1061.841109 488.507439 
L 1063.404423 488.262388 
L 1064.967738 489.72415 
L 1068.094367 489.118313 
L 1069.657682 487.127803 
L 1071.220997 488.621096 
L 1072.784311 486.645184 
L 1074.347626 486.452863 
L 1075.91094 476.406518 
L 1077.474255 360.211633 
L 1079.03757 473.761553 
L 1080.600884 492.454865 
L 1082.164199 493.837493 
L 1083.727513 491.750689 
L 1086.854143 491.15027 
L 1088.417457 492.55946 
L 1096.23403 490.838458 
L 1097.797345 488.818007 
L 1099.36066 488.580984 
L 1100.923974 440.238863 
L 1102.487289 483.632253 
L 1104.050603 490.289639 
L 1107.177233 489.759859 
L 1108.740547 491.204098 
L 1111.867177 490.56126 
L 1113.430491 488.551365 
L 1114.993806 490.024739 
L 1119.68375 489.1586 
L 1121.247064 444.003776 
L 1122.810379 480.582074 
L 1124.373693 490.753723 
L 1133.753581 489.021807 
L 1135.316896 472.098008 
L 1136.88021 361.228996 
L 1138.443525 483.102445 
L 1140.00684 493.088139 
L 1144.696783 492.153731 
L 1146.260098 493.553546 
L 1147.823413 491.483457 
L 1149.386727 492.896423 
L 1149.386727 492.896423 
" style="fill:none;stroke:#1f77b4;stroke-linecap:square;stroke-width:1.5;"/>
   </g>
   <g id="line2d_15">
    <path clip-path="url(#p42cc4d7f1d)" d="M 212.961273 120.549731 
L 214.524587 150.406185 
L 216.087902 177.362723 
L 217.651217 206.591245 
L 220.777846 256.408381 
L 222.34116 282.197155 
L 223.904475 303.421522 
L 225.46779 327.062598 
L 228.594419 367.66298 
L 230.157733 384.819424 
L 231.721048 406.169823 
L 237.974307 467.043669 
L 239.537621 478.893493 
L 244.227565 516.694869 
L 247.354194 536.927923 
L 248.917509 546.0149 
L 250.480823 554.44526 
L 252.044138 560.572534 
L 253.607453 569.560135 
L 255.170767 574.476333 
L 256.734082 582.294877 
L 258.297397 587.751631 
L 259.860711 592.677689 
L 261.424026 597.09272 
L 262.98734 601.016026 
L 264.550655 604.466553 
L 266.11397 607.462884 
L 267.677284 610.023246 
L 269.240599 610.497184 
L 270.803913 614.044136 
L 272.367228 613.728404 
L 273.930543 616.519784 
L 275.493857 617.150194 
L 277.057172 617.4468 
L 278.620487 617.425349 
L 280.183801 617.101243 
L 281.747116 614.821211 
L 283.31043 614.073568 
L 284.873745 614.730077 
L 286.43706 613.331301 
L 288.000374 611.701994 
L 289.563689 609.855508 
L 291.127003 607.804861 
L 294.253633 603.141495 
L 295.816947 598.88484 
L 298.943577 593.521679 
L 302.070206 587.604427 
L 303.63352 586.133361 
L 308.323464 575.720276 
L 311.450093 568.400324 
L 313.013408 562.985388 
L 314.576723 560.997492 
L 316.140037 555.49182 
L 317.703352 553.429115 
L 320.829981 545.619689 
L 322.393296 540.029824 
L 323.95661 536.242976 
L 325.519925 534.122924 
L 333.336498 514.738619 
L 336.463127 507.210453 
L 338.026442 501.845402 
L 341.153071 494.875787 
L 342.716386 493.136428 
L 347.40633 482.87095 
L 348.969644 479.588016 
L 350.532959 474.710844 
L 352.096273 471.715527 
L 353.659588 470.461759 
L 356.786217 464.577811 
L 359.912847 459.033481 
L 361.476161 454.724198 
L 364.60279 449.979202 
L 367.72942 445.576869 
L 369.292734 386.449762 
L 370.856049 343.606017 
L 372.419363 447.705443 
L 373.982678 450.599772 
L 375.545993 448.344612 
L 377.109307 447.860319 
L 380.235937 443.593588 
L 383.362566 439.755334 
L 386.489195 436.339853 
L 389.615824 433.339858 
L 391.179139 430.324664 
L 392.742453 430.883559 
L 394.305768 428.062387 
L 395.869083 388.105681 
L 397.432397 413.339389 
L 398.995712 431.649101 
L 400.559027 430.678768 
L 402.122341 428.136794 
L 403.685656 429.163345 
L 405.24897 426.803755 
L 406.812285 428.009155 
L 409.938914 427.064713 
L 413.065543 426.462904 
L 414.628858 409.935824 
L 416.192173 383.485796 
L 417.755487 427.899314 
L 419.318802 431.180714 
L 422.445431 431.094013 
L 425.57206 431.302318 
L 428.69869 431.787368 
L 430.262004 417.446688 
L 431.825319 309.779588 
L 433.388633 410.124342 
L 434.951948 445.516503 
L 436.515263 447.325022 
L 439.641892 447.519438 
L 442.768521 447.963537 
L 445.89515 448.637903 
L 447.458465 447.387117 
L 449.02178 449.660342 
L 450.585094 450.170704 
L 452.148409 449.058627 
L 453.711723 407.420008 
L 455.275038 338.264933 
L 456.838353 454.537568 
L 458.401667 465.313611 
L 459.964982 465.628693 
L 461.528297 467.653143 
L 463.091611 466.242877 
L 464.654926 468.348623 
L 466.21824 467.015297 
L 467.781555 467.525372 
L 469.34487 469.734085 
L 470.908184 470.165847 
L 472.471499 467.459827 
L 474.034813 414.326984 
L 475.598128 394.997556 
L 477.161443 410.213576 
L 478.724757 476.729807 
L 480.288072 489.024765 
L 481.851387 490.705965 
L 483.414701 488.944849 
L 484.978016 490.692423 
L 486.54133 488.993884 
L 488.104645 490.800321 
L 492.794589 490.957105 
L 494.357903 489.392019 
L 495.921218 489.654852 
L 497.484533 491.601357 
L 500.611162 491.929708 
L 502.174477 490.451229 
L 503.737791 490.79317 
L 505.301106 492.811501 
L 506.86442 491.363054 
L 508.427735 493.399481 
L 509.99105 491.966633 
L 511.554364 494.016246 
L 513.117679 492.594255 
L 514.680993 478.302915 
L 516.244308 416.334757 
L 517.807623 449.289586 
L 519.370937 500.849298 
L 520.934252 504.484733 
L 524.060881 507.566975 
L 525.624196 505.664303 
L 527.18751 505.57847 
L 528.750825 507.165898 
L 530.31414 506.952185 
L 531.877454 505.079177 
L 533.440769 506.687934 
L 535.004083 504.824773 
L 536.567398 506.441895 
L 538.130713 504.585686 
L 549.073915 504.228155 
L 550.63723 489.484359 
L 552.200544 384.684465 
L 553.763859 479.216554 
L 555.327173 515.99601 
L 556.890488 516.972954 
L 564.707061 513.834055 
L 566.270376 514.897389 
L 567.83369 514.162325 
L 569.397005 511.771205 
L 570.96032 512.865569 
L 572.523634 512.160523 
L 574.086949 490.279087 
L 575.650263 386.898655 
L 577.213578 496.066532 
L 578.776893 521.403476 
L 585.030151 517.16774 
L 586.593466 517.82148 
L 588.15678 515.018857 
L 594.410039 511.219226 
L 595.973353 510.309959 
L 597.536668 493.233843 
L 599.099983 433.291357 
L 600.663297 440.329061 
L 602.226612 474.681395 
L 603.789927 519.405439 
L 605.353241 521.319788 
L 610.043185 516.933544 
L 611.6065 517.203237 
L 613.169814 514.03049 
L 614.733129 512.699503 
L 616.296443 513.067207 
L 617.859758 509.991352 
L 619.423073 510.424473 
L 620.986387 509.081584 
L 622.549702 506.104976 
L 625.676331 503.858692 
L 627.239646 504.445659 
L 628.80296 501.586474 
L 630.366275 502.233689 
L 631.92959 499.43401 
L 633.492904 500.13999 
L 635.056219 499.06666 
L 636.619533 496.356328 
L 638.182848 495.48216 
L 639.746163 479.951549 
L 641.309477 418.437112 
L 642.872792 448.397381 
L 644.436107 498.799398 
L 645.999421 502.805 
L 650.689365 499.276233 
L 655.379309 496.054058 
L 656.942623 496.714335 
L 658.505938 493.933255 
L 660.069253 494.663214 
L 663.195882 492.611334 
L 664.759197 489.971044 
L 666.322511 490.839542 
L 667.885826 489.9317 
L 669.44914 487.389664 
L 671.012455 465.498737 
L 672.57577 363.793439 
L 674.139084 471.178999 
L 675.702399 496.727368 
L 678.829028 497.729187 
L 680.392343 494.834307 
L 683.518972 492.780352 
L 685.082287 493.47726 
L 686.645601 490.736761 
L 688.208916 489.842751 
L 689.77223 490.651851 
L 694.462174 487.882517 
L 696.025489 474.022778 
L 697.588803 363.337598 
L 699.152118 467.28946 
L 700.715433 496.192811 
L 702.278747 495.074962 
L 703.842062 495.667183 
L 705.405377 492.82677 
L 710.09532 489.975937 
L 711.658635 490.770478 
L 716.348579 487.973819 
L 717.911893 485.45459 
L 719.475208 440.73608 
L 721.038523 476.408718 
L 722.601837 487.925229 
L 727.291781 485.740252 
L 728.855096 486.748062 
L 733.54504 484.565054 
L 735.108354 483.909966 
L 736.671669 481.621359 
L 738.234983 481.171955 
L 739.798298 474.243491 
L 741.361613 405.98104 
L 742.924927 437.7648 
L 744.488242 486.870364 
L 746.051557 489.546786 
L 747.614871 488.816913 
L 749.178186 489.789267 
L 752.304815 488.227489 
L 753.86813 485.834197 
L 755.431444 486.950536 
L 758.558073 485.665867 
L 760.121388 483.405773 
L 761.684703 484.651786 
L 763.248017 484.118481 
L 764.811332 481.947721 
L 766.374647 483.280558 
L 771.06459 482.018084 
L 772.627905 481.651854 
L 774.19122 479.643219 
L 775.754534 477.963478 
L 777.317849 384.834714 
L 778.881163 431.659052 
L 780.444478 491.144814 
L 782.007793 492.200707 
L 786.697737 490.137244 
L 788.261051 487.84547 
L 789.824366 487.389699 
L 791.38768 488.626464 
L 796.077624 487.075953 
L 799.204253 486.177693 
L 800.767568 484.098452 
L 802.330883 444.810158 
L 803.894197 475.477578 
L 805.457512 487.407153 
L 807.020827 488.710738 
L 811.71077 487.341723 
L 816.400714 486.186911 
L 817.964029 485.846144 
L 819.527343 483.857953 
L 821.090658 483.69525 
L 822.653973 485.214747 
L 824.217287 447.40504 
L 825.780602 375.324886 
L 827.343917 488.462684 
L 828.907231 494.916493 
L 830.470546 495.999242 
L 832.03386 495.299863 
L 833.597175 492.960337 
L 835.16049 494.12184 
L 836.723804 491.830779 
L 838.287119 493.03942 
L 842.977063 491.382454 
L 844.540377 490.877921 
L 846.103692 466.038635 
L 847.667007 359.804856 
L 849.230321 388.148987 
L 850.793636 394.903163 
L 852.35695 438.978202 
L 853.920265 520.632218 
L 855.48358 520.524618 
L 857.046894 518.837488 
L 858.610209 518.868194 
L 860.173523 515.473899 
L 861.736838 515.606557 
L 863.300153 512.312284 
L 864.863467 512.543054 
L 866.426782 509.345001 
L 867.990097 508.001797 
L 869.553411 508.369845 
L 872.68004 505.626457 
L 874.243355 502.655832 
L 875.80667 503.203798 
L 878.933299 500.809216 
L 880.496613 498.007558 
L 882.059928 497.052596 
L 883.623243 497.80082 
L 885.186557 496.777874 
L 886.749872 494.125616 
L 889.876501 492.539547 
L 891.439816 493.461546 
L 893.00313 490.940131 
L 894.566445 490.259132 
L 896.12976 486.436974 
L 897.693074 429.016166 
L 899.256389 423.509365 
L 900.819703 490.37144 
L 902.383018 498.226342 
L 907.072962 495.386762 
L 908.636277 494.510439 
L 910.199591 495.336263 
L 911.762906 494.389873 
L 913.32622 491.813129 
L 914.889535 492.747078 
L 916.45285 491.906322 
L 918.016164 489.432746 
L 922.706108 487.615615 
L 924.269423 487.064393 
L 925.832737 462.181763 
L 927.396052 369.08773 
L 928.959367 489.071992 
L 930.522681 495.482324 
L 933.64931 496.952555 
L 935.212625 494.285397 
L 939.902569 491.915607 
L 944.592513 489.827731 
L 946.155827 481.016199 
L 947.719142 412.677693 
L 950.845771 494.26364 
L 952.409086 495.24765 
L 953.9724 495.953007 
L 955.535715 495.06386 
L 957.09903 495.877693 
L 958.662344 493.251793 
L 963.352288 491.001914 
L 964.915603 491.982611 
L 966.478917 489.519623 
L 968.042232 490.565068 
L 969.605547 488.165226 
L 971.168861 479.429128 
L 972.732176 367.120671 
L 974.29549 373.149768 
L 975.858805 395.586754 
L 977.42212 437.578188 
L 978.985434 517.305511 
L 982.112063 513.925318 
L 983.675378 513.815411 
L 986.802007 510.503763 
L 988.365322 510.598157 
L 989.928637 507.272126 
L 993.055266 504.397114 
L 994.61858 504.703312 
L 996.181895 503.253116 
L 997.74521 500.188117 
L 1002.435153 496.701881 
L 1003.998468 497.296697 
L 1005.561783 494.460578 
L 1007.125097 495.145423 
L 1008.688412 492.397291 
L 1010.251727 493.168101 
L 1011.815041 490.503934 
L 1013.378356 489.688406 
L 1014.94167 490.577868 
L 1016.504985 488.029498 
L 1018.0683 464.637749 
L 1019.631614 359.72632 
L 1021.194929 354.90559 
L 1022.758243 487.857289 
L 1024.321558 509.227628 
L 1027.448187 506.135153 
L 1030.574817 503.259057 
L 1033.701446 500.590378 
L 1036.828075 498.120313 
L 1038.39139 496.957056 
L 1039.954704 497.508549 
L 1041.518019 494.631814 
L 1043.081333 495.278663 
L 1044.644648 492.49507 
L 1046.207963 493.23287 
L 1049.334592 491.225545 
L 1054.024536 488.545732 
L 1055.58785 486.068044 
L 1057.151165 459.409948 
L 1058.71448 403.891003 
L 1060.277794 471.951803 
L 1061.841109 493.976877 
L 1063.404423 494.711191 
L 1064.967738 493.680698 
L 1066.531053 491.027007 
L 1068.094367 491.89092 
L 1071.220997 490.124604 
L 1072.784311 487.634937 
L 1074.347626 488.658649 
L 1075.91094 486.241827 
L 1077.474255 487.336418 
L 1082.164199 485.404414 
L 1083.727513 484.82953 
L 1085.290828 482.619236 
L 1086.854143 483.914492 
L 1088.417457 481.761489 
L 1089.980772 483.112281 
L 1091.544087 482.681409 
L 1093.107401 480.610702 
L 1094.670716 467.359942 
L 1096.23403 445.355384 
L 1097.797345 482.426859 
L 1099.36066 485.378593 
L 1104.050603 484.080009 
L 1108.740547 483.017136 
L 1110.303862 482.7113 
L 1111.867177 479.258522 
L 1113.430491 391.170392 
L 1114.993806 359.205985 
L 1116.55712 403.578038 
L 1118.120435 382.833472 
L 1119.68375 507.549677 
L 1121.247064 513.11066 
L 1122.810379 511.657014 
L 1124.373693 511.919211 
L 1129.063637 507.581905 
L 1133.753581 503.685216 
L 1138.443525 500.20004 
L 1143.133469 497.098361 
L 1144.696783 496.145003 
L 1146.260098 493.561958 
L 1147.823413 494.490194 
L 1149.386727 493.644235 
L 1149.386727 493.644235 
" style="fill:none;stroke:#ff7f0e;stroke-linecap:square;stroke-width:1.5;"/>
   </g>
   <g id="patch_3">
    <path d="M 166.14 642.7224 
L 166.14 86.6592 
" style="fill:none;stroke:#000000;stroke-linecap:square;stroke-linejoin:miter;stroke-width:0.8;"/>
   </g>
   <g id="patch_4">
    <path d="M 1196.208 642.7224 
L 1196.208 86.6592 
" style="fill:none;stroke:#000000;stroke-linecap:square;stroke-linejoin:miter;stroke-width:0.8;"/>
   </g>
   <g id="patch_5">
    <path d="M 166.14 642.7224 
L 1196.208 642.7224 
" style="fill:none;stroke:#000000;stroke-linecap:square;stroke-linejoin:miter;stroke-width:0.8;"/>
   </g>
   <g id="patch_6">
    <path d="M 166.14 86.6592 
L 1196.208 86.6592 
" style="fill:none;stroke:#000000;stroke-linecap:square;stroke-linejoin:miter;stroke-width:0.8;"/>
   </g>
   <g id="text_16">
    <!-- Result of HP Filter -->
    <defs>
     <path d="M 44.390625 34.1875 
Q 47.5625 33.109375 50.5625 29.59375 
Q 53.5625 26.078125 56.59375 19.921875 
L 66.609375 0 
L 56 0 
L 46.6875 18.703125 
Q 43.0625 26.03125 39.671875 28.421875 
Q 36.28125 30.8125 30.421875 30.8125 
L 19.671875 30.8125 
L 19.671875 0 
L 9.8125 0 
L 9.8125 72.90625 
L 32.078125 72.90625 
Q 44.578125 72.90625 50.734375 67.671875 
Q 56.890625 62.453125 56.890625 51.90625 
Q 56.890625 45.015625 53.6875 40.46875 
Q 50.484375 35.9375 44.390625 34.1875 
z
M 19.671875 64.796875 
L 19.671875 38.921875 
L 32.078125 38.921875 
Q 39.203125 38.921875 42.84375 42.21875 
Q 46.484375 45.515625 46.484375 51.90625 
Q 46.484375 58.296875 42.84375 61.546875 
Q 39.203125 64.796875 32.078125 64.796875 
z
" id="DejaVuSans-82"/>
     <path d="M 8.5 21.578125 
L 8.5 54.6875 
L 17.484375 54.6875 
L 17.484375 21.921875 
Q 17.484375 14.15625 20.5 10.265625 
Q 23.53125 6.390625 29.59375 6.390625 
Q 36.859375 6.390625 41.078125 11.03125 
Q 45.3125 15.671875 45.3125 23.6875 
L 45.3125 54.6875 
L 54.296875 54.6875 
L 54.296875 0 
L 45.3125 0 
L 45.3125 8.40625 
Q 42.046875 3.421875 37.71875 1 
Q 33.40625 -1.421875 27.6875 -1.421875 
Q 18.265625 -1.421875 13.375 4.4375 
Q 8.5 10.296875 8.5 21.578125 
z
M 31.109375 56 
z
" id="DejaVuSans-117"/>
     <path d="M 9.421875 75.984375 
L 18.40625 75.984375 
L 18.40625 0 
L 9.421875 0 
z
" id="DejaVuSans-108"/>
     <path d="M 30.609375 48.390625 
Q 23.390625 48.390625 19.1875 42.75 
Q 14.984375 37.109375 14.984375 27.296875 
Q 14.984375 17.484375 19.15625 11.84375 
Q 23.34375 6.203125 30.609375 6.203125 
Q 37.796875 6.203125 41.984375 11.859375 
Q 46.1875 17.53125 46.1875 27.296875 
Q 46.1875 37.015625 41.984375 42.703125 
Q 37.796875 48.390625 30.609375 48.390625 
z
M 30.609375 56 
Q 42.328125 56 49.015625 48.375 
Q 55.71875 40.765625 55.71875 27.296875 
Q 55.71875 13.875 49.015625 6.21875 
Q 42.328125 -1.421875 30.609375 -1.421875 
Q 18.84375 -1.421875 12.171875 6.21875 
Q 5.515625 13.875 5.515625 27.296875 
Q 5.515625 40.765625 12.171875 48.375 
Q 18.84375 56 30.609375 56 
z
" id="DejaVuSans-111"/>
     <path d="M 37.109375 75.984375 
L 37.109375 68.5 
L 28.515625 68.5 
Q 23.6875 68.5 21.796875 66.546875 
Q 19.921875 64.59375 19.921875 59.515625 
L 19.921875 54.6875 
L 34.71875 54.6875 
L 34.71875 47.703125 
L 19.921875 47.703125 
L 19.921875 0 
L 10.890625 0 
L 10.890625 47.703125 
L 2.296875 47.703125 
L 2.296875 54.6875 
L 10.890625 54.6875 
L 10.890625 58.5 
Q 10.890625 67.625 15.140625 71.796875 
Q 19.390625 75.984375 28.609375 75.984375 
z
" id="DejaVuSans-102"/>
     <path d="M 9.8125 72.90625 
L 19.671875 72.90625 
L 19.671875 43.015625 
L 55.515625 43.015625 
L 55.515625 72.90625 
L 65.375 72.90625 
L 65.375 0 
L 55.515625 0 
L 55.515625 34.71875 
L 19.671875 34.71875 
L 19.671875 0 
L 9.8125 0 
z
" id="DejaVuSans-72"/>
     <path d="M 19.671875 64.796875 
L 19.671875 37.40625 
L 32.078125 37.40625 
Q 38.96875 37.40625 42.71875 40.96875 
Q 46.484375 44.53125 46.484375 51.125 
Q 46.484375 57.671875 42.71875 61.234375 
Q 38.96875 64.796875 32.078125 64.796875 
z
M 9.8125 72.90625 
L 32.078125 72.90625 
Q 44.34375 72.90625 50.609375 67.359375 
Q 56.890625 61.8125 56.890625 51.125 
Q 56.890625 40.328125 50.609375 34.8125 
Q 44.34375 29.296875 32.078125 29.296875 
L 19.671875 29.296875 
L 19.671875 0 
L 9.8125 0 
z
" id="DejaVuSans-80"/>
     <path d="M 9.8125 72.90625 
L 51.703125 72.90625 
L 51.703125 64.59375 
L 19.671875 64.59375 
L 19.671875 43.109375 
L 48.578125 43.109375 
L 48.578125 34.8125 
L 19.671875 34.8125 
L 19.671875 0 
L 9.8125 0 
z
" id="DejaVuSans-70"/>
     <path d="M 41.109375 46.296875 
Q 39.59375 47.171875 37.8125 47.578125 
Q 36.03125 48 33.890625 48 
Q 26.265625 48 22.1875 43.046875 
Q 18.109375 38.09375 18.109375 28.8125 
L 18.109375 0 
L 9.078125 0 
L 9.078125 54.6875 
L 18.109375 54.6875 
L 18.109375 46.1875 
Q 20.953125 51.171875 25.484375 53.578125 
Q 30.03125 56 36.53125 56 
Q 37.453125 56 38.578125 55.875 
Q 39.703125 55.765625 41.0625 55.515625 
z
" id="DejaVuSans-114"/>
    </defs>
    <g transform="translate(628.1415 80.6592)scale(0.12 -0.12)">
     <use xlink:href="#DejaVuSans-82"/>
     <use x="64.982422" xlink:href="#DejaVuSans-101"/>
     <use x="126.505859" xlink:href="#DejaVuSans-115"/>
     <use x="178.605469" xlink:href="#DejaVuSans-117"/>
     <use x="241.984375" xlink:href="#DejaVuSans-108"/>
     <use x="269.767578" xlink:href="#DejaVuSans-116"/>
     <use x="308.976562" xlink:href="#DejaVuSans-32"/>
     <use x="340.763672" xlink:href="#DejaVuSans-111"/>
     <use x="401.945312" xlink:href="#DejaVuSans-102"/>
     <use x="437.150391" xlink:href="#DejaVuSans-32"/>
     <use x="468.9375" xlink:href="#DejaVuSans-72"/>
     <use x="544.132812" xlink:href="#DejaVuSans-80"/>
     <use x="604.435547" xlink:href="#DejaVuSans-32"/>
     <use x="636.222656" xlink:href="#DejaVuSans-70"/>
     <use x="686.492188" xlink:href="#DejaVuSans-105"/>
     <use x="714.275391" xlink:href="#DejaVuSans-108"/>
     <use x="742.058594" xlink:href="#DejaVuSans-116"/>
     <use x="781.267578" xlink:href="#DejaVuSans-101"/>
     <use x="842.791016" xlink:href="#DejaVuSans-114"/>
    </g>
   </g>
  </g>
 </g>
 <defs>
  <clipPath id="p42cc4d7f1d">
   <rect height="556.0632" width="1030.068" x="166.14" y="86.6592"/>
  </clipPath>
 </defs>
</svg>
