<?xml version="1.0" encoding="utf-8" standalone="no"?>
<!DOCTYPE svg PUBLIC "-//W3C//DTD SVG 1.1//EN"
  "http://www.w3.org/Graphics/SVG/1.1/DTD/svg11.dtd">
<!-- Created with matplotlib (https://matplotlib.org/) -->
<svg height="693.36pt" version="1.1" viewBox="0 0 1382.4 693.36" width="1382.4pt" xmlns="http://www.w3.org/2000/svg" xmlns:xlink="http://www.w3.org/1999/xlink">
 <defs>
  <style type="text/css">
*{stroke-linecap:butt;stroke-linejoin:round;}
  </style>
 </defs>
 <g id="figure_1">
  <g id="patch_1">
   <path d="M 0 693.36 
L 1382.4 693.36 
L 1382.4 0 
L 0 0 
z
" style="fill:#ffffff;"/>
  </g>
  <g id="axes_1">
   <g id="patch_2">
    <path d="M 172.8 617.0904 
L 1244.16 617.0904 
L 1244.16 83.2032 
L 172.8 83.2032 
z
" style="fill:#ffffff;"/>
   </g>
   <g id="matplotlib.axis_1">
    <g id="xtick_1">
     <g id="line2d_1">
      <defs>
       <path d="M 0 0 
L 0 3.5 
" id="m1115f7b74a" style="stroke:#000000;stroke-width:0.8;"/>
      </defs>
      <g>
       <use style="stroke:#000000;stroke-width:0.8;" x="221.498182" xlink:href="#m1115f7b74a" y="617.0904"/>
      </g>
     </g>
     <g id="text_1">
      <!-- 0 -->
      <defs>
       <path d="M 31.78125 66.40625 
Q 24.171875 66.40625 20.328125 58.90625 
Q 16.5 51.421875 16.5 36.375 
Q 16.5 21.390625 20.328125 13.890625 
Q 24.171875 6.390625 31.78125 6.390625 
Q 39.453125 6.390625 43.28125 13.890625 
Q 47.125 21.390625 47.125 36.375 
Q 47.125 51.421875 43.28125 58.90625 
Q 39.453125 66.40625 31.78125 66.40625 
z
M 31.78125 74.21875 
Q 44.046875 74.21875 50.515625 64.515625 
Q 56.984375 54.828125 56.984375 36.375 
Q 56.984375 17.96875 50.515625 8.265625 
Q 44.046875 -1.421875 31.78125 -1.421875 
Q 19.53125 -1.421875 13.0625 8.265625 
Q 6.59375 17.96875 6.59375 36.375 
Q 6.59375 54.828125 13.0625 64.515625 
Q 19.53125 74.21875 31.78125 74.21875 
z
" id="DejaVuSans-48"/>
      </defs>
      <g transform="translate(218.316932 631.688837)scale(0.1 -0.1)">
       <use xlink:href="#DejaVuSans-48"/>
      </g>
     </g>
    </g>
    <g id="xtick_2">
     <g id="line2d_2">
      <g>
       <use style="stroke:#000000;stroke-width:0.8;" x="383.825455" xlink:href="#m1115f7b74a" y="617.0904"/>
      </g>
     </g>
     <g id="text_2">
      <!-- 5 -->
      <defs>
       <path d="M 10.796875 72.90625 
L 49.515625 72.90625 
L 49.515625 64.59375 
L 19.828125 64.59375 
L 19.828125 46.734375 
Q 21.96875 47.46875 24.109375 47.828125 
Q 26.265625 48.1875 28.421875 48.1875 
Q 40.625 48.1875 47.75 41.5 
Q 54.890625 34.8125 54.890625 23.390625 
Q 54.890625 11.625 47.5625 5.09375 
Q 40.234375 -1.421875 26.90625 -1.421875 
Q 22.3125 -1.421875 17.546875 -0.640625 
Q 12.796875 0.140625 7.71875 1.703125 
L 7.71875 11.625 
Q 12.109375 9.234375 16.796875 8.0625 
Q 21.484375 6.890625 26.703125 6.890625 
Q 35.15625 6.890625 40.078125 11.328125 
Q 45.015625 15.765625 45.015625 23.390625 
Q 45.015625 31 40.078125 35.4375 
Q 35.15625 39.890625 26.703125 39.890625 
Q 22.75 39.890625 18.8125 39.015625 
Q 14.890625 38.140625 10.796875 36.28125 
z
" id="DejaVuSans-53"/>
      </defs>
      <g transform="translate(380.644205 631.688837)scale(0.1 -0.1)">
       <use xlink:href="#DejaVuSans-53"/>
      </g>
     </g>
    </g>
    <g id="xtick_3">
     <g id="line2d_3">
      <g>
       <use style="stroke:#000000;stroke-width:0.8;" x="546.152727" xlink:href="#m1115f7b74a" y="617.0904"/>
      </g>
     </g>
     <g id="text_3">
      <!-- 10 -->
      <defs>
       <path d="M 12.40625 8.296875 
L 28.515625 8.296875 
L 28.515625 63.921875 
L 10.984375 60.40625 
L 10.984375 69.390625 
L 28.421875 72.90625 
L 38.28125 72.90625 
L 38.28125 8.296875 
L 54.390625 8.296875 
L 54.390625 0 
L 12.40625 0 
z
" id="DejaVuSans-49"/>
      </defs>
      <g transform="translate(539.790227 631.688837)scale(0.1 -0.1)">
       <use xlink:href="#DejaVuSans-49"/>
       <use x="63.623047" xlink:href="#DejaVuSans-48"/>
      </g>
     </g>
    </g>
    <g id="xtick_4">
     <g id="line2d_4">
      <g>
       <use style="stroke:#000000;stroke-width:0.8;" x="708.48" xlink:href="#m1115f7b74a" y="617.0904"/>
      </g>
     </g>
     <g id="text_4">
      <!-- 15 -->
      <g transform="translate(702.1175 631.688837)scale(0.1 -0.1)">
       <use xlink:href="#DejaVuSans-49"/>
       <use x="63.623047" xlink:href="#DejaVuSans-53"/>
      </g>
     </g>
    </g>
    <g id="xtick_5">
     <g id="line2d_5">
      <g>
       <use style="stroke:#000000;stroke-width:0.8;" x="870.807273" xlink:href="#m1115f7b74a" y="617.0904"/>
      </g>
     </g>
     <g id="text_5">
      <!-- 20 -->
      <defs>
       <path d="M 19.1875 8.296875 
L 53.609375 8.296875 
L 53.609375 0 
L 7.328125 0 
L 7.328125 8.296875 
Q 12.9375 14.109375 22.625 23.890625 
Q 32.328125 33.6875 34.8125 36.53125 
Q 39.546875 41.84375 41.421875 45.53125 
Q 43.3125 49.21875 43.3125 52.78125 
Q 43.3125 58.59375 39.234375 62.25 
Q 35.15625 65.921875 28.609375 65.921875 
Q 23.96875 65.921875 18.8125 64.3125 
Q 13.671875 62.703125 7.8125 59.421875 
L 7.8125 69.390625 
Q 13.765625 71.78125 18.9375 73 
Q 24.125 74.21875 28.421875 74.21875 
Q 39.75 74.21875 46.484375 68.546875 
Q 53.21875 62.890625 53.21875 53.421875 
Q 53.21875 48.921875 51.53125 44.890625 
Q 49.859375 40.875 45.40625 35.40625 
Q 44.1875 33.984375 37.640625 27.21875 
Q 31.109375 20.453125 19.1875 8.296875 
z
" id="DejaVuSans-50"/>
      </defs>
      <g transform="translate(864.444773 631.688837)scale(0.1 -0.1)">
       <use xlink:href="#DejaVuSans-50"/>
       <use x="63.623047" xlink:href="#DejaVuSans-48"/>
      </g>
     </g>
    </g>
    <g id="xtick_6">
     <g id="line2d_6">
      <g>
       <use style="stroke:#000000;stroke-width:0.8;" x="1033.134545" xlink:href="#m1115f7b74a" y="617.0904"/>
      </g>
     </g>
     <g id="text_6">
      <!-- 25 -->
      <g transform="translate(1026.772045 631.688837)scale(0.1 -0.1)">
       <use xlink:href="#DejaVuSans-50"/>
       <use x="63.623047" xlink:href="#DejaVuSans-53"/>
      </g>
     </g>
    </g>
    <g id="xtick_7">
     <g id="line2d_7">
      <g>
       <use style="stroke:#000000;stroke-width:0.8;" x="1195.461818" xlink:href="#m1115f7b74a" y="617.0904"/>
      </g>
     </g>
     <g id="text_7">
      <!-- 30 -->
      <defs>
       <path d="M 40.578125 39.3125 
Q 47.65625 37.796875 51.625 33 
Q 55.609375 28.21875 55.609375 21.1875 
Q 55.609375 10.40625 48.1875 4.484375 
Q 40.765625 -1.421875 27.09375 -1.421875 
Q 22.515625 -1.421875 17.65625 -0.515625 
Q 12.796875 0.390625 7.625 2.203125 
L 7.625 11.71875 
Q 11.71875 9.328125 16.59375 8.109375 
Q 21.484375 6.890625 26.8125 6.890625 
Q 36.078125 6.890625 40.9375 10.546875 
Q 45.796875 14.203125 45.796875 21.1875 
Q 45.796875 27.640625 41.28125 31.265625 
Q 36.765625 34.90625 28.71875 34.90625 
L 20.21875 34.90625 
L 20.21875 43.015625 
L 29.109375 43.015625 
Q 36.375 43.015625 40.234375 45.921875 
Q 44.09375 48.828125 44.09375 54.296875 
Q 44.09375 59.90625 40.109375 62.90625 
Q 36.140625 65.921875 28.71875 65.921875 
Q 24.65625 65.921875 20.015625 65.03125 
Q 15.375 64.15625 9.8125 62.3125 
L 9.8125 71.09375 
Q 15.4375 72.65625 20.34375 73.4375 
Q 25.25 74.21875 29.59375 74.21875 
Q 40.828125 74.21875 47.359375 69.109375 
Q 53.90625 64.015625 53.90625 55.328125 
Q 53.90625 49.265625 50.4375 45.09375 
Q 46.96875 40.921875 40.578125 39.3125 
z
" id="DejaVuSans-51"/>
      </defs>
      <g transform="translate(1189.099318 631.688837)scale(0.1 -0.1)">
       <use xlink:href="#DejaVuSans-51"/>
       <use x="63.623047" xlink:href="#DejaVuSans-48"/>
      </g>
     </g>
    </g>
    <g id="text_8">
     <!-- Time [s] -->
     <defs>
      <path d="M -0.296875 72.90625 
L 61.375 72.90625 
L 61.375 64.59375 
L 35.5 64.59375 
L 35.5 0 
L 25.59375 0 
L 25.59375 64.59375 
L -0.296875 64.59375 
z
" id="DejaVuSans-84"/>
      <path d="M 9.421875 54.6875 
L 18.40625 54.6875 
L 18.40625 0 
L 9.421875 0 
z
M 9.421875 75.984375 
L 18.40625 75.984375 
L 18.40625 64.59375 
L 9.421875 64.59375 
z
" id="DejaVuSans-105"/>
      <path d="M 52 44.1875 
Q 55.375 50.25 60.0625 53.125 
Q 64.75 56 71.09375 56 
Q 79.640625 56 84.28125 50.015625 
Q 88.921875 44.046875 88.921875 33.015625 
L 88.921875 0 
L 79.890625 0 
L 79.890625 32.71875 
Q 79.890625 40.578125 77.09375 44.375 
Q 74.3125 48.1875 68.609375 48.1875 
Q 61.625 48.1875 57.5625 43.546875 
Q 53.515625 38.921875 53.515625 30.90625 
L 53.515625 0 
L 44.484375 0 
L 44.484375 32.71875 
Q 44.484375 40.625 41.703125 44.40625 
Q 38.921875 48.1875 33.109375 48.1875 
Q 26.21875 48.1875 22.15625 43.53125 
Q 18.109375 38.875 18.109375 30.90625 
L 18.109375 0 
L 9.078125 0 
L 9.078125 54.6875 
L 18.109375 54.6875 
L 18.109375 46.1875 
Q 21.1875 51.21875 25.484375 53.609375 
Q 29.78125 56 35.6875 56 
Q 41.65625 56 45.828125 52.96875 
Q 50 49.953125 52 44.1875 
z
" id="DejaVuSans-109"/>
      <path d="M 56.203125 29.59375 
L 56.203125 25.203125 
L 14.890625 25.203125 
Q 15.484375 15.921875 20.484375 11.0625 
Q 25.484375 6.203125 34.421875 6.203125 
Q 39.59375 6.203125 44.453125 7.46875 
Q 49.3125 8.734375 54.109375 11.28125 
L 54.109375 2.78125 
Q 49.265625 0.734375 44.1875 -0.34375 
Q 39.109375 -1.421875 33.890625 -1.421875 
Q 20.796875 -1.421875 13.15625 6.1875 
Q 5.515625 13.8125 5.515625 26.8125 
Q 5.515625 40.234375 12.765625 48.109375 
Q 20.015625 56 32.328125 56 
Q 43.359375 56 49.78125 48.890625 
Q 56.203125 41.796875 56.203125 29.59375 
z
M 47.21875 32.234375 
Q 47.125 39.59375 43.09375 43.984375 
Q 39.0625 48.390625 32.421875 48.390625 
Q 24.90625 48.390625 20.390625 44.140625 
Q 15.875 39.890625 15.1875 32.171875 
z
" id="DejaVuSans-101"/>
      <path id="DejaVuSans-32"/>
      <path d="M 8.59375 75.984375 
L 29.296875 75.984375 
L 29.296875 69 
L 17.578125 69 
L 17.578125 -6.203125 
L 29.296875 -6.203125 
L 29.296875 -13.1875 
L 8.59375 -13.1875 
z
" id="DejaVuSans-91"/>
      <path d="M 44.28125 53.078125 
L 44.28125 44.578125 
Q 40.484375 46.53125 36.375 47.5 
Q 32.28125 48.484375 27.875 48.484375 
Q 21.1875 48.484375 17.84375 46.4375 
Q 14.5 44.390625 14.5 40.28125 
Q 14.5 37.15625 16.890625 35.375 
Q 19.28125 33.59375 26.515625 31.984375 
L 29.59375 31.296875 
Q 39.15625 29.25 43.1875 25.515625 
Q 47.21875 21.78125 47.21875 15.09375 
Q 47.21875 7.46875 41.1875 3.015625 
Q 35.15625 -1.421875 24.609375 -1.421875 
Q 20.21875 -1.421875 15.453125 -0.5625 
Q 10.6875 0.296875 5.421875 2 
L 5.421875 11.28125 
Q 10.40625 8.6875 15.234375 7.390625 
Q 20.0625 6.109375 24.8125 6.109375 
Q 31.15625 6.109375 34.5625 8.28125 
Q 37.984375 10.453125 37.984375 14.40625 
Q 37.984375 18.0625 35.515625 20.015625 
Q 33.0625 21.96875 24.703125 23.78125 
L 21.578125 24.515625 
Q 13.234375 26.265625 9.515625 29.90625 
Q 5.8125 33.546875 5.8125 39.890625 
Q 5.8125 47.609375 11.28125 51.796875 
Q 16.75 56 26.8125 56 
Q 31.78125 56 36.171875 55.265625 
Q 40.578125 54.546875 44.28125 53.078125 
z
" id="DejaVuSans-115"/>
      <path d="M 30.421875 75.984375 
L 30.421875 -13.1875 
L 9.71875 -13.1875 
L 9.71875 -6.203125 
L 21.390625 -6.203125 
L 21.390625 69 
L 9.71875 69 
L 9.71875 75.984375 
z
" id="DejaVuSans-93"/>
     </defs>
     <g transform="translate(688.151094 645.366962)scale(0.1 -0.1)">
      <use xlink:href="#DejaVuSans-84"/>
      <use x="57.958984" xlink:href="#DejaVuSans-105"/>
      <use x="85.742188" xlink:href="#DejaVuSans-109"/>
      <use x="183.154297" xlink:href="#DejaVuSans-101"/>
      <use x="244.677734" xlink:href="#DejaVuSans-32"/>
      <use x="276.464844" xlink:href="#DejaVuSans-91"/>
      <use x="315.478516" xlink:href="#DejaVuSans-115"/>
      <use x="367.578125" xlink:href="#DejaVuSans-93"/>
     </g>
    </g>
   </g>
   <g id="matplotlib.axis_2">
    <g id="ytick_1">
     <g id="line2d_8">
      <defs>
       <path d="M 0 0 
L -3.5 0 
" id="m81d66c7ca7" style="stroke:#000000;stroke-width:0.8;"/>
      </defs>
      <g>
       <use style="stroke:#000000;stroke-width:0.8;" x="172.8" xlink:href="#m81d66c7ca7" y="598.429201"/>
      </g>
     </g>
     <g id="text_9">
      <!-- −0.05 -->
      <defs>
       <path d="M 10.59375 35.5 
L 73.1875 35.5 
L 73.1875 27.203125 
L 10.59375 27.203125 
z
" id="DejaVuSans-8722"/>
       <path d="M 10.6875 12.40625 
L 21 12.40625 
L 21 0 
L 10.6875 0 
z
" id="DejaVuSans-46"/>
      </defs>
      <g transform="translate(135.154687 602.22842)scale(0.1 -0.1)">
       <use xlink:href="#DejaVuSans-8722"/>
       <use x="83.789062" xlink:href="#DejaVuSans-48"/>
       <use x="147.412109" xlink:href="#DejaVuSans-46"/>
       <use x="179.199219" xlink:href="#DejaVuSans-48"/>
       <use x="242.822266" xlink:href="#DejaVuSans-53"/>
      </g>
     </g>
    </g>
    <g id="ytick_2">
     <g id="line2d_9">
      <g>
       <use style="stroke:#000000;stroke-width:0.8;" x="172.8" xlink:href="#m81d66c7ca7" y="506.833507"/>
      </g>
     </g>
     <g id="text_10">
      <!-- 0.00 -->
      <g transform="translate(143.534375 510.632726)scale(0.1 -0.1)">
       <use xlink:href="#DejaVuSans-48"/>
       <use x="63.623047" xlink:href="#DejaVuSans-46"/>
       <use x="95.410156" xlink:href="#DejaVuSans-48"/>
       <use x="159.033203" xlink:href="#DejaVuSans-48"/>
      </g>
     </g>
    </g>
    <g id="ytick_3">
     <g id="line2d_10">
      <g>
       <use style="stroke:#000000;stroke-width:0.8;" x="172.8" xlink:href="#m81d66c7ca7" y="415.237814"/>
      </g>
     </g>
     <g id="text_11">
      <!-- 0.05 -->
      <g transform="translate(143.534375 419.037033)scale(0.1 -0.1)">
       <use xlink:href="#DejaVuSans-48"/>
       <use x="63.623047" xlink:href="#DejaVuSans-46"/>
       <use x="95.410156" xlink:href="#DejaVuSans-48"/>
       <use x="159.033203" xlink:href="#DejaVuSans-53"/>
      </g>
     </g>
    </g>
    <g id="ytick_4">
     <g id="line2d_11">
      <g>
       <use style="stroke:#000000;stroke-width:0.8;" x="172.8" xlink:href="#m81d66c7ca7" y="323.642121"/>
      </g>
     </g>
     <g id="text_12">
      <!-- 0.10 -->
      <g transform="translate(143.534375 327.441339)scale(0.1 -0.1)">
       <use xlink:href="#DejaVuSans-48"/>
       <use x="63.623047" xlink:href="#DejaVuSans-46"/>
       <use x="95.410156" xlink:href="#DejaVuSans-49"/>
       <use x="159.033203" xlink:href="#DejaVuSans-48"/>
      </g>
     </g>
    </g>
    <g id="ytick_5">
     <g id="line2d_12">
      <g>
       <use style="stroke:#000000;stroke-width:0.8;" x="172.8" xlink:href="#m81d66c7ca7" y="232.046427"/>
      </g>
     </g>
     <g id="text_13">
      <!-- 0.15 -->
      <g transform="translate(143.534375 235.845646)scale(0.1 -0.1)">
       <use xlink:href="#DejaVuSans-48"/>
       <use x="63.623047" xlink:href="#DejaVuSans-46"/>
       <use x="95.410156" xlink:href="#DejaVuSans-49"/>
       <use x="159.033203" xlink:href="#DejaVuSans-53"/>
      </g>
     </g>
    </g>
    <g id="ytick_6">
     <g id="line2d_13">
      <g>
       <use style="stroke:#000000;stroke-width:0.8;" x="172.8" xlink:href="#m81d66c7ca7" y="140.450734"/>
      </g>
     </g>
     <g id="text_14">
      <!-- 0.20 -->
      <g transform="translate(143.534375 144.249953)scale(0.1 -0.1)">
       <use xlink:href="#DejaVuSans-48"/>
       <use x="63.623047" xlink:href="#DejaVuSans-46"/>
       <use x="95.410156" xlink:href="#DejaVuSans-50"/>
       <use x="159.033203" xlink:href="#DejaVuSans-48"/>
      </g>
     </g>
    </g>
    <g id="text_15">
     <!-- Filtered sensor data -->
     <defs>
      <path d="M 9.8125 72.90625 
L 51.703125 72.90625 
L 51.703125 64.59375 
L 19.671875 64.59375 
L 19.671875 43.109375 
L 48.578125 43.109375 
L 48.578125 34.8125 
L 19.671875 34.8125 
L 19.671875 0 
L 9.8125 0 
z
" id="DejaVuSans-70"/>
      <path d="M 9.421875 75.984375 
L 18.40625 75.984375 
L 18.40625 0 
L 9.421875 0 
z
" id="DejaVuSans-108"/>
      <path d="M 18.3125 70.21875 
L 18.3125 54.6875 
L 36.8125 54.6875 
L 36.8125 47.703125 
L 18.3125 47.703125 
L 18.3125 18.015625 
Q 18.3125 11.328125 20.140625 9.421875 
Q 21.96875 7.515625 27.59375 7.515625 
L 36.8125 7.515625 
L 36.8125 0 
L 27.59375 0 
Q 17.1875 0 13.234375 3.875 
Q 9.28125 7.765625 9.28125 18.015625 
L 9.28125 47.703125 
L 2.6875 47.703125 
L 2.6875 54.6875 
L 9.28125 54.6875 
L 9.28125 70.21875 
z
" id="DejaVuSans-116"/>
      <path d="M 41.109375 46.296875 
Q 39.59375 47.171875 37.8125 47.578125 
Q 36.03125 48 33.890625 48 
Q 26.265625 48 22.1875 43.046875 
Q 18.109375 38.09375 18.109375 28.8125 
L 18.109375 0 
L 9.078125 0 
L 9.078125 54.6875 
L 18.109375 54.6875 
L 18.109375 46.1875 
Q 20.953125 51.171875 25.484375 53.578125 
Q 30.03125 56 36.53125 56 
Q 37.453125 56 38.578125 55.875 
Q 39.703125 55.765625 41.0625 55.515625 
z
" id="DejaVuSans-114"/>
      <path d="M 45.40625 46.390625 
L 45.40625 75.984375 
L 54.390625 75.984375 
L 54.390625 0 
L 45.40625 0 
L 45.40625 8.203125 
Q 42.578125 3.328125 38.25 0.953125 
Q 33.9375 -1.421875 27.875 -1.421875 
Q 17.96875 -1.421875 11.734375 6.484375 
Q 5.515625 14.40625 5.515625 27.296875 
Q 5.515625 40.1875 11.734375 48.09375 
Q 17.96875 56 27.875 56 
Q 33.9375 56 38.25 53.625 
Q 42.578125 51.265625 45.40625 46.390625 
z
M 14.796875 27.296875 
Q 14.796875 17.390625 18.875 11.75 
Q 22.953125 6.109375 30.078125 6.109375 
Q 37.203125 6.109375 41.296875 11.75 
Q 45.40625 17.390625 45.40625 27.296875 
Q 45.40625 37.203125 41.296875 42.84375 
Q 37.203125 48.484375 30.078125 48.484375 
Q 22.953125 48.484375 18.875 42.84375 
Q 14.796875 37.203125 14.796875 27.296875 
z
" id="DejaVuSans-100"/>
      <path d="M 54.890625 33.015625 
L 54.890625 0 
L 45.90625 0 
L 45.90625 32.71875 
Q 45.90625 40.484375 42.875 44.328125 
Q 39.84375 48.1875 33.796875 48.1875 
Q 26.515625 48.1875 22.3125 43.546875 
Q 18.109375 38.921875 18.109375 30.90625 
L 18.109375 0 
L 9.078125 0 
L 9.078125 54.6875 
L 18.109375 54.6875 
L 18.109375 46.1875 
Q 21.34375 51.125 25.703125 53.5625 
Q 30.078125 56 35.796875 56 
Q 45.21875 56 50.046875 50.171875 
Q 54.890625 44.34375 54.890625 33.015625 
z
" id="DejaVuSans-110"/>
      <path d="M 30.609375 48.390625 
Q 23.390625 48.390625 19.1875 42.75 
Q 14.984375 37.109375 14.984375 27.296875 
Q 14.984375 17.484375 19.15625 11.84375 
Q 23.34375 6.203125 30.609375 6.203125 
Q 37.796875 6.203125 41.984375 11.859375 
Q 46.1875 17.53125 46.1875 27.296875 
Q 46.1875 37.015625 41.984375 42.703125 
Q 37.796875 48.390625 30.609375 48.390625 
z
M 30.609375 56 
Q 42.328125 56 49.015625 48.375 
Q 55.71875 40.765625 55.71875 27.296875 
Q 55.71875 13.875 49.015625 6.21875 
Q 42.328125 -1.421875 30.609375 -1.421875 
Q 18.84375 -1.421875 12.171875 6.21875 
Q 5.515625 13.875 5.515625 27.296875 
Q 5.515625 40.765625 12.171875 48.375 
Q 18.84375 56 30.609375 56 
z
" id="DejaVuSans-111"/>
      <path d="M 34.28125 27.484375 
Q 23.390625 27.484375 19.1875 25 
Q 14.984375 22.515625 14.984375 16.5 
Q 14.984375 11.71875 18.140625 8.90625 
Q 21.296875 6.109375 26.703125 6.109375 
Q 34.1875 6.109375 38.703125 11.40625 
Q 43.21875 16.703125 43.21875 25.484375 
L 43.21875 27.484375 
z
M 52.203125 31.203125 
L 52.203125 0 
L 43.21875 0 
L 43.21875 8.296875 
Q 40.140625 3.328125 35.546875 0.953125 
Q 30.953125 -1.421875 24.3125 -1.421875 
Q 15.921875 -1.421875 10.953125 3.296875 
Q 6 8.015625 6 15.921875 
Q 6 25.140625 12.171875 29.828125 
Q 18.359375 34.515625 30.609375 34.515625 
L 43.21875 34.515625 
L 43.21875 35.40625 
Q 43.21875 41.609375 39.140625 45 
Q 35.0625 48.390625 27.6875 48.390625 
Q 23 48.390625 18.546875 47.265625 
Q 14.109375 46.140625 10.015625 43.890625 
L 10.015625 52.203125 
Q 14.9375 54.109375 19.578125 55.046875 
Q 24.21875 56 28.609375 56 
Q 40.484375 56 46.34375 49.84375 
Q 52.203125 43.703125 52.203125 31.203125 
z
" id="DejaVuSans-97"/>
     </defs>
     <g transform="translate(129.075 399.678831)rotate(-90)scale(0.1 -0.1)">
      <use xlink:href="#DejaVuSans-70"/>
      <use x="50.269531" xlink:href="#DejaVuSans-105"/>
      <use x="78.052734" xlink:href="#DejaVuSans-108"/>
      <use x="105.835938" xlink:href="#DejaVuSans-116"/>
      <use x="145.044922" xlink:href="#DejaVuSans-101"/>
      <use x="206.568359" xlink:href="#DejaVuSans-114"/>
      <use x="245.431641" xlink:href="#DejaVuSans-101"/>
      <use x="306.955078" xlink:href="#DejaVuSans-100"/>
      <use x="370.431641" xlink:href="#DejaVuSans-32"/>
      <use x="402.21875" xlink:href="#DejaVuSans-115"/>
      <use x="454.318359" xlink:href="#DejaVuSans-101"/>
      <use x="515.841797" xlink:href="#DejaVuSans-110"/>
      <use x="579.220703" xlink:href="#DejaVuSans-115"/>
      <use x="631.320312" xlink:href="#DejaVuSans-111"/>
      <use x="692.501953" xlink:href="#DejaVuSans-114"/>
      <use x="733.615234" xlink:href="#DejaVuSans-32"/>
      <use x="765.402344" xlink:href="#DejaVuSans-100"/>
      <use x="828.878906" xlink:href="#DejaVuSans-97"/>
      <use x="890.158203" xlink:href="#DejaVuSans-116"/>
      <use x="929.367188" xlink:href="#DejaVuSans-97"/>
     </g>
    </g>
   </g>
   <g id="line2d_14">
    <path clip-path="url(#pcdd3a70f84)" d="M 221.498182 107.4708 
L 223.124165 123.419527 
L 226.37613 157.850939 
L 229.628095 190.672922 
L 232.880061 221.89835 
L 234.506043 236.917743 
L 236.132026 253.336702 
L 237.758009 265.703554 
L 241.009974 293.028728 
L 244.26194 318.838122 
L 247.513905 343.163133 
L 250.76587 366.038097 
L 252.391853 376.94325 
L 254.017836 389.291574 
L 255.643818 397.633429 
L 258.895784 417.05301 
L 262.147749 435.160549 
L 265.399715 451.999211 
L 268.65168 467.613283 
L 271.903645 482.047912 
L 273.529628 488.837219 
L 275.155611 493.73636 
L 278.407576 506.091419 
L 281.659542 517.398801 
L 283.285524 524.28661 
L 284.911507 527.633248 
L 288.163472 536.987477 
L 289.789455 542.933283 
L 293.041421 550.799103 
L 294.667403 552.803654 
L 297.919369 559.575559 
L 301.171334 565.572486 
L 302.797317 569.906381 
L 304.423299 570.766047 
L 307.675265 575.34508 
L 309.301248 579.001521 
L 310.92723 580.816893 
L 312.553213 580.869448 
L 314.179196 584.073244 
L 315.805178 585.450744 
L 317.431161 585.079982 
L 319.057144 587.874792 
L 320.683126 587.244907 
L 322.309109 589.789765 
L 325.561075 591.160085 
L 327.187057 590.067496 
L 328.81304 592.167031 
L 332.065005 592.69755 
L 333.690988 592.822325 
L 335.316971 591.24616 
L 336.942953 591.269495 
L 338.568936 592.8228 
L 340.194919 591.000585 
L 341.820902 590.788799 
L 343.446884 592.117665 
L 345.072867 591.693945 
L 346.69885 589.594211 
L 348.324832 590.730825 
L 351.576798 589.464204 
L 354.828763 587.993188 
L 358.080728 586.340712 
L 362.958677 583.568823 
L 367.836625 580.505053 
L 374.340555 576.072112 
L 380.844486 571.360365 
L 392.226365 562.776167 
L 406.860209 551.760984 
L 414.990123 545.904621 
L 416.616106 544.76749 
L 418.242088 542.03065 
L 419.868071 532.212093 
L 421.494054 484.274859 
L 423.120036 540.030133 
L 424.746019 544.238746 
L 426.372002 541.240853 
L 427.997985 538.519185 
L 429.623967 486.614342 
L 431.24995 522.984657 
L 432.875933 540.02135 
L 439.379863 535.667921 
L 445.883794 531.606625 
L 447.509777 504.480047 
L 449.13576 385.547015 
L 450.761742 506.607924 
L 452.387725 534.974811 
L 454.013708 535.565127 
L 460.517638 531.383634 
L 463.769604 529.41486 
L 465.395587 526.848745 
L 470.273535 524.321291 
L 471.899517 525.129149 
L 473.5255 524.271736 
L 475.151483 521.822246 
L 476.777465 451.023029 
L 478.403448 400.733544 
L 480.029431 522.761142 
L 481.655414 527.491267 
L 483.281396 528.233393 
L 489.785327 524.662304 
L 491.41131 523.820281 
L 493.037292 521.38595 
L 494.663275 520.655856 
L 496.289258 521.556646 
L 497.915241 519.179076 
L 502.793189 517.211941 
L 504.419171 469.291809 
L 506.045154 428.68619 
L 507.671137 440.803947 
L 509.297119 508.538055 
L 510.923102 524.235349 
L 512.549085 525.079523 
L 519.053016 521.902374 
L 525.556946 519.024764 
L 527.182929 518.351395 
L 528.808912 516.083667 
L 530.434895 517.130558 
L 532.060877 516.509513 
L 533.68686 514.293613 
L 536.938825 513.280645 
L 538.564808 514.40993 
L 541.816773 513.347375 
L 543.442756 486.682516 
L 545.068739 369.999987 
L 546.694722 498.424446 
L 548.320704 518.076116 
L 549.946687 519.125433 
L 554.824635 517.310495 
L 556.450618 518.528316 
L 558.0766 516.09859 
L 562.954548 514.519509 
L 564.580531 512.410456 
L 566.206514 513.612672 
L 572.710445 511.821398 
L 574.336427 509.795878 
L 575.96241 444.609654 
L 577.588393 398.082931 
L 579.214375 514.933164 
L 580.840358 517.943473 
L 585.718306 516.376375 
L 587.344289 517.671613 
L 588.970272 515.316766 
L 595.474202 513.516051 
L 597.100185 511.484413 
L 598.726168 511.149074 
L 600.352151 458.149113 
L 601.978133 427.028514 
L 603.604116 437.470702 
L 605.230099 507.009442 
L 606.856081 519.417752 
L 608.482064 520.524687 
L 613.360012 518.859935 
L 614.985995 520.120644 
L 616.611978 517.730404 
L 623.115908 515.780875 
L 629.619839 514.019468 
L 637.749753 512.074193 
L 639.375735 510.105759 
L 641.001718 511.444708 
L 647.505649 510.162278 
L 649.131632 508.254656 
L 650.757614 458.949369 
L 652.383597 382.091255 
L 654.00958 508.46448 
L 655.635562 517.006857 
L 663.765476 514.910051 
L 665.391458 514.519558 
L 667.017441 515.930281 
L 668.643424 515.47925 
L 670.269407 513.247805 
L 678.39932 511.595115 
L 680.025303 509.679347 
L 681.651285 451.58572 
L 683.277268 389.082464 
L 684.903251 511.621645 
L 686.529234 518.464377 
L 694.659147 516.287043 
L 699.537095 515.088615 
L 701.163078 513.094652 
L 702.789061 514.406296 
L 704.415043 512.428627 
L 706.041026 508.560665 
L 707.667009 455.946598 
L 709.292991 512.451461 
L 710.918974 515.612047 
L 719.048888 513.753053 
L 720.67487 515.199194 
L 722.300853 512.99108 
L 723.926836 511.052144 
L 725.552818 507.222559 
L 727.178801 410.929805 
L 728.804784 450.064236 
L 730.430766 517.473685 
L 732.056749 517.085127 
L 733.682732 518.316058 
L 741.812645 516.17303 
L 745.064611 515.377567 
L 746.690593 506.393098 
L 748.316576 436.345287 
L 749.942559 458.634595 
L 751.568542 516.910177 
L 753.194524 519.968561 
L 756.44649 518.994964 
L 758.072472 516.909452 
L 759.698455 518.129844 
L 766.202386 516.361851 
L 767.828368 514.330821 
L 769.454351 515.605814 
L 772.706317 514.81241 
L 774.332299 512.81722 
L 777.584265 512.221324 
L 779.210247 513.547271 
L 780.83623 509.792446 
L 782.462213 413.210387 
L 784.088195 450.632551 
L 785.714178 519.628593 
L 787.340161 517.5306 
L 788.966144 518.738453 
L 797.096057 516.488867 
L 798.72204 516.067134 
L 800.348022 514.042312 
L 801.974005 513.711023 
L 803.599988 478.270806 
L 805.225971 425.227422 
L 806.851953 500.701293 
L 808.477936 518.613739 
L 810.103919 519.790562 
L 818.233832 517.391107 
L 826.363746 515.236471 
L 827.989728 516.626584 
L 829.615711 512.750998 
L 831.241694 514.054786 
L 832.867676 505.082439 
L 834.493659 380.759962 
L 836.119642 370.536854 
L 837.745625 453.697973 
L 839.371607 526.30901 
L 842.623573 528.415417 
L 844.249555 525.874237 
L 849.127503 523.934466 
L 850.753486 525.101583 
L 852.379469 522.617009 
L 855.631434 521.428085 
L 857.257417 519.238328 
L 858.8834 520.356755 
L 867.013313 517.694542 
L 875.143227 515.322789 
L 876.769209 483.528729 
L 878.395192 430.205475 
L 880.021175 436.96513 
L 881.647157 508.356856 
L 883.27314 522.357161 
L 888.151088 520.597694 
L 889.777071 521.826189 
L 891.403054 519.403488 
L 893.029036 520.657269 
L 894.655019 520.051551 
L 896.281002 517.667727 
L 902.784932 515.741715 
L 910.914846 513.593621 
L 919.044759 511.724139 
L 922.296725 511.051285 
L 923.922708 509.117906 
L 925.54869 510.491341 
L 927.174673 506.78489 
L 928.800656 398.068667 
L 930.426638 451.848606 
L 932.052621 517.140391 
L 940.182535 515.022405 
L 941.808517 514.62788 
L 943.4345 512.630475 
L 945.060483 513.939274 
L 946.686465 473.438483 
L 948.312448 367.900747 
L 949.938431 407.370996 
L 951.564413 371.5845 
L 953.190396 500.525478 
L 954.816379 530.881698 
L 956.442362 530.153849 
L 958.068344 531.047616 
L 966.198258 527.258407 
L 967.82424 524.923822 
L 969.450223 525.898226 
L 975.954154 523.179105 
L 980.832102 521.275078 
L 982.458085 519.053997 
L 985.71005 518.017752 
L 987.336033 519.129336 
L 988.962015 518.568243 
L 990.587998 516.407702 
L 993.839964 515.492257 
L 995.465946 504.480651 
L 997.091929 432.674808 
L 998.717912 435.90685 
L 1000.343894 500.341946 
L 1001.969877 521.849843 
L 1003.59586 522.879411 
L 1010.099791 520.385372 
L 1011.725773 518.182206 
L 1013.351756 519.288826 
L 1019.855687 517.103397 
L 1021.481669 514.977111 
L 1023.107652 516.160364 
L 1029.611583 514.277782 
L 1036.115514 512.594142 
L 1039.367479 508.49193 
L 1040.993462 403.103345 
L 1042.619445 377.823912 
L 1044.245427 422.030116 
L 1045.87141 401.330453 
L 1047.497393 525.32392 
L 1049.123375 528.348675 
L 1050.749358 529.250379 
L 1057.253289 526.24041 
L 1058.879272 523.907846 
L 1060.505254 523.272664 
L 1062.131237 524.261715 
L 1068.635168 521.610061 
L 1071.887133 520.366004 
L 1073.513116 518.151979 
L 1075.139098 519.248241 
L 1076.765081 517.059877 
L 1078.391064 518.181739 
L 1084.894995 516.06102 
L 1086.520977 501.589185 
L 1088.14696 372.188745 
L 1089.772943 393.845806 
L 1091.398925 395.320802 
L 1093.024908 468.864397 
L 1094.650891 532.082044 
L 1096.276874 532.865577 
L 1102.780804 529.399767 
L 1109.284735 526.172151 
L 1115.788666 523.190588 
L 1122.292597 520.458103 
L 1128.796528 517.973629 
L 1132.048493 516.823113 
L 1133.674476 518.062115 
L 1135.300458 475.519746 
L 1136.926441 429.481339 
L 1138.552424 448.584971 
L 1140.178406 515.827189 
L 1141.804389 522.446929 
L 1145.056355 521.120626 
L 1146.682337 522.271202 
L 1148.30832 519.77354 
L 1154.812251 517.421109 
L 1161.316182 515.298697 
L 1166.19413 513.853844 
L 1167.820112 511.787023 
L 1169.446095 513.030238 
L 1175.950026 511.390913 
L 1179.201991 510.647371 
L 1180.827974 505.098163 
L 1182.453957 378.854216 
L 1184.079939 365.182479 
L 1185.705922 459.025008 
L 1187.331905 522.498129 
L 1188.957887 523.535287 
L 1195.461818 521.062327 
L 1195.461818 521.062327 
" style="fill:none;stroke:#1f77b4;stroke-linecap:square;stroke-width:1.5;"/>
   </g>
   <g id="patch_3">
    <path d="M 172.8 617.0904 
L 172.8 83.2032 
" style="fill:none;stroke:#000000;stroke-linecap:square;stroke-linejoin:miter;stroke-width:0.8;"/>
   </g>
   <g id="patch_4">
    <path d="M 1244.16 617.0904 
L 1244.16 83.2032 
" style="fill:none;stroke:#000000;stroke-linecap:square;stroke-linejoin:miter;stroke-width:0.8;"/>
   </g>
   <g id="patch_5">
    <path d="M 172.8 617.0904 
L 1244.16 617.0904 
" style="fill:none;stroke:#000000;stroke-linecap:square;stroke-linejoin:miter;stroke-width:0.8;"/>
   </g>
   <g id="patch_6">
    <path d="M 172.8 83.2032 
L 1244.16 83.2032 
" style="fill:none;stroke:#000000;stroke-linecap:square;stroke-linejoin:miter;stroke-width:0.8;"/>
   </g>
   <g id="text_16">
    <!-- Second order Highpass Filtering -->
    <defs>
     <path d="M 53.515625 70.515625 
L 53.515625 60.890625 
Q 47.90625 63.578125 42.921875 64.890625 
Q 37.9375 66.21875 33.296875 66.21875 
Q 25.25 66.21875 20.875 63.09375 
Q 16.5 59.96875 16.5 54.203125 
Q 16.5 49.359375 19.40625 46.890625 
Q 22.3125 44.4375 30.421875 42.921875 
L 36.375 41.703125 
Q 47.40625 39.59375 52.65625 34.296875 
Q 57.90625 29 57.90625 20.125 
Q 57.90625 9.515625 50.796875 4.046875 
Q 43.703125 -1.421875 29.984375 -1.421875 
Q 24.8125 -1.421875 18.96875 -0.25 
Q 13.140625 0.921875 6.890625 3.21875 
L 6.890625 13.375 
Q 12.890625 10.015625 18.65625 8.296875 
Q 24.421875 6.59375 29.984375 6.59375 
Q 38.421875 6.59375 43.015625 9.90625 
Q 47.609375 13.234375 47.609375 19.390625 
Q 47.609375 24.75 44.3125 27.78125 
Q 41.015625 30.8125 33.5 32.328125 
L 27.484375 33.5 
Q 16.453125 35.6875 11.515625 40.375 
Q 6.59375 45.0625 6.59375 53.421875 
Q 6.59375 63.09375 13.40625 68.65625 
Q 20.21875 74.21875 32.171875 74.21875 
Q 37.3125 74.21875 42.625 73.28125 
Q 47.953125 72.359375 53.515625 70.515625 
z
" id="DejaVuSans-83"/>
     <path d="M 48.78125 52.59375 
L 48.78125 44.1875 
Q 44.96875 46.296875 41.140625 47.34375 
Q 37.3125 48.390625 33.40625 48.390625 
Q 24.65625 48.390625 19.8125 42.84375 
Q 14.984375 37.3125 14.984375 27.296875 
Q 14.984375 17.28125 19.8125 11.734375 
Q 24.65625 6.203125 33.40625 6.203125 
Q 37.3125 6.203125 41.140625 7.25 
Q 44.96875 8.296875 48.78125 10.40625 
L 48.78125 2.09375 
Q 45.015625 0.34375 40.984375 -0.53125 
Q 36.96875 -1.421875 32.421875 -1.421875 
Q 20.0625 -1.421875 12.78125 6.34375 
Q 5.515625 14.109375 5.515625 27.296875 
Q 5.515625 40.671875 12.859375 48.328125 
Q 20.21875 56 33.015625 56 
Q 37.15625 56 41.109375 55.140625 
Q 45.0625 54.296875 48.78125 52.59375 
z
" id="DejaVuSans-99"/>
     <path d="M 9.8125 72.90625 
L 19.671875 72.90625 
L 19.671875 43.015625 
L 55.515625 43.015625 
L 55.515625 72.90625 
L 65.375 72.90625 
L 65.375 0 
L 55.515625 0 
L 55.515625 34.71875 
L 19.671875 34.71875 
L 19.671875 0 
L 9.8125 0 
z
" id="DejaVuSans-72"/>
     <path d="M 45.40625 27.984375 
Q 45.40625 37.75 41.375 43.109375 
Q 37.359375 48.484375 30.078125 48.484375 
Q 22.859375 48.484375 18.828125 43.109375 
Q 14.796875 37.75 14.796875 27.984375 
Q 14.796875 18.265625 18.828125 12.890625 
Q 22.859375 7.515625 30.078125 7.515625 
Q 37.359375 7.515625 41.375 12.890625 
Q 45.40625 18.265625 45.40625 27.984375 
z
M 54.390625 6.78125 
Q 54.390625 -7.171875 48.1875 -13.984375 
Q 42 -20.796875 29.203125 -20.796875 
Q 24.46875 -20.796875 20.265625 -20.09375 
Q 16.0625 -19.390625 12.109375 -17.921875 
L 12.109375 -9.1875 
Q 16.0625 -11.328125 19.921875 -12.34375 
Q 23.78125 -13.375 27.78125 -13.375 
Q 36.625 -13.375 41.015625 -8.765625 
Q 45.40625 -4.15625 45.40625 5.171875 
L 45.40625 9.625 
Q 42.625 4.78125 38.28125 2.390625 
Q 33.9375 0 27.875 0 
Q 17.828125 0 11.671875 7.65625 
Q 5.515625 15.328125 5.515625 27.984375 
Q 5.515625 40.671875 11.671875 48.328125 
Q 17.828125 56 27.875 56 
Q 33.9375 56 38.28125 53.609375 
Q 42.625 51.21875 45.40625 46.390625 
L 45.40625 54.6875 
L 54.390625 54.6875 
z
" id="DejaVuSans-103"/>
     <path d="M 54.890625 33.015625 
L 54.890625 0 
L 45.90625 0 
L 45.90625 32.71875 
Q 45.90625 40.484375 42.875 44.328125 
Q 39.84375 48.1875 33.796875 48.1875 
Q 26.515625 48.1875 22.3125 43.546875 
Q 18.109375 38.921875 18.109375 30.90625 
L 18.109375 0 
L 9.078125 0 
L 9.078125 75.984375 
L 18.109375 75.984375 
L 18.109375 46.1875 
Q 21.34375 51.125 25.703125 53.5625 
Q 30.078125 56 35.796875 56 
Q 45.21875 56 50.046875 50.171875 
Q 54.890625 44.34375 54.890625 33.015625 
z
" id="DejaVuSans-104"/>
     <path d="M 18.109375 8.203125 
L 18.109375 -20.796875 
L 9.078125 -20.796875 
L 9.078125 54.6875 
L 18.109375 54.6875 
L 18.109375 46.390625 
Q 20.953125 51.265625 25.265625 53.625 
Q 29.59375 56 35.59375 56 
Q 45.5625 56 51.78125 48.09375 
Q 58.015625 40.1875 58.015625 27.296875 
Q 58.015625 14.40625 51.78125 6.484375 
Q 45.5625 -1.421875 35.59375 -1.421875 
Q 29.59375 -1.421875 25.265625 0.953125 
Q 20.953125 3.328125 18.109375 8.203125 
z
M 48.6875 27.296875 
Q 48.6875 37.203125 44.609375 42.84375 
Q 40.53125 48.484375 33.40625 48.484375 
Q 26.265625 48.484375 22.1875 42.84375 
Q 18.109375 37.203125 18.109375 27.296875 
Q 18.109375 17.390625 22.1875 11.75 
Q 26.265625 6.109375 33.40625 6.109375 
Q 40.53125 6.109375 44.609375 11.75 
Q 48.6875 17.390625 48.6875 27.296875 
z
" id="DejaVuSans-112"/>
    </defs>
    <g transform="translate(613.009687 77.2032)scale(0.12 -0.12)">
     <use xlink:href="#DejaVuSans-83"/>
     <use x="63.476562" xlink:href="#DejaVuSans-101"/>
     <use x="125" xlink:href="#DejaVuSans-99"/>
     <use x="179.980469" xlink:href="#DejaVuSans-111"/>
     <use x="241.162109" xlink:href="#DejaVuSans-110"/>
     <use x="304.541016" xlink:href="#DejaVuSans-100"/>
     <use x="368.017578" xlink:href="#DejaVuSans-32"/>
     <use x="399.804688" xlink:href="#DejaVuSans-111"/>
     <use x="460.986328" xlink:href="#DejaVuSans-114"/>
     <use x="500.349609" xlink:href="#DejaVuSans-100"/>
     <use x="563.826172" xlink:href="#DejaVuSans-101"/>
     <use x="625.349609" xlink:href="#DejaVuSans-114"/>
     <use x="666.462891" xlink:href="#DejaVuSans-32"/>
     <use x="698.25" xlink:href="#DejaVuSans-72"/>
     <use x="773.445312" xlink:href="#DejaVuSans-105"/>
     <use x="801.228516" xlink:href="#DejaVuSans-103"/>
     <use x="864.705078" xlink:href="#DejaVuSans-104"/>
     <use x="928.083984" xlink:href="#DejaVuSans-112"/>
     <use x="991.560547" xlink:href="#DejaVuSans-97"/>
     <use x="1052.839844" xlink:href="#DejaVuSans-115"/>
     <use x="1104.939453" xlink:href="#DejaVuSans-115"/>
     <use x="1157.039062" xlink:href="#DejaVuSans-32"/>
     <use x="1188.826172" xlink:href="#DejaVuSans-70"/>
     <use x="1239.095703" xlink:href="#DejaVuSans-105"/>
     <use x="1266.878906" xlink:href="#DejaVuSans-108"/>
     <use x="1294.662109" xlink:href="#DejaVuSans-116"/>
     <use x="1333.871094" xlink:href="#DejaVuSans-101"/>
     <use x="1395.394531" xlink:href="#DejaVuSans-114"/>
     <use x="1436.507812" xlink:href="#DejaVuSans-105"/>
     <use x="1464.291016" xlink:href="#DejaVuSans-110"/>
     <use x="1527.669922" xlink:href="#DejaVuSans-103"/>
    </g>
   </g>
  </g>
 </g>
 <defs>
  <clipPath id="pcdd3a70f84">
   <rect height="533.8872" width="1071.36" x="172.8" y="83.2032"/>
  </clipPath>
 </defs>
</svg>
