<?xml version="1.0" encoding="utf-8" standalone="no"?>
<!DOCTYPE svg PUBLIC "-//W3C//DTD SVG 1.1//EN"
  "http://www.w3.org/Graphics/SVG/1.1/DTD/svg11.dtd">
<!-- Created with matplotlib (https://matplotlib.org/) -->
<svg height="693.36pt" version="1.1" viewBox="0 0 1382.4 693.36" width="1382.4pt" xmlns="http://www.w3.org/2000/svg" xmlns:xlink="http://www.w3.org/1999/xlink">
 <defs>
  <style type="text/css">
*{stroke-linecap:butt;stroke-linejoin:round;}
  </style>
 </defs>
 <g id="figure_1">
  <g id="patch_1">
   <path d="M 0 693.36 
L 1382.4 693.36 
L 1382.4 0 
L 0 0 
z
" style="fill:#ffffff;"/>
  </g>
  <g id="axes_1">
   <g id="patch_2">
    <path d="M 172.8 617.0904 
L 1244.16 617.0904 
L 1244.16 83.2032 
L 172.8 83.2032 
z
" style="fill:#ffffff;"/>
   </g>
   <g id="matplotlib.axis_1">
    <g id="xtick_1">
     <g id="line2d_1">
      <defs>
       <path d="M 0 0 
L 0 3.5 
" id="mc68037dbce" style="stroke:#000000;stroke-width:0.8;"/>
      </defs>
      <g>
       <use style="stroke:#000000;stroke-width:0.8;" x="221.498182" xlink:href="#mc68037dbce" y="617.0904"/>
      </g>
     </g>
     <g id="text_1">
      <!-- 0 -->
      <defs>
       <path d="M 31.78125 66.40625 
Q 24.171875 66.40625 20.328125 58.90625 
Q 16.5 51.421875 16.5 36.375 
Q 16.5 21.390625 20.328125 13.890625 
Q 24.171875 6.390625 31.78125 6.390625 
Q 39.453125 6.390625 43.28125 13.890625 
Q 47.125 21.390625 47.125 36.375 
Q 47.125 51.421875 43.28125 58.90625 
Q 39.453125 66.40625 31.78125 66.40625 
z
M 31.78125 74.21875 
Q 44.046875 74.21875 50.515625 64.515625 
Q 56.984375 54.828125 56.984375 36.375 
Q 56.984375 17.96875 50.515625 8.265625 
Q 44.046875 -1.421875 31.78125 -1.421875 
Q 19.53125 -1.421875 13.0625 8.265625 
Q 6.59375 17.96875 6.59375 36.375 
Q 6.59375 54.828125 13.0625 64.515625 
Q 19.53125 74.21875 31.78125 74.21875 
z
" id="DejaVuSans-48"/>
      </defs>
      <g transform="translate(218.316932 631.688837)scale(0.1 -0.1)">
       <use xlink:href="#DejaVuSans-48"/>
      </g>
     </g>
    </g>
    <g id="xtick_2">
     <g id="line2d_2">
      <g>
       <use style="stroke:#000000;stroke-width:0.8;" x="383.825455" xlink:href="#mc68037dbce" y="617.0904"/>
      </g>
     </g>
     <g id="text_2">
      <!-- 5 -->
      <defs>
       <path d="M 10.796875 72.90625 
L 49.515625 72.90625 
L 49.515625 64.59375 
L 19.828125 64.59375 
L 19.828125 46.734375 
Q 21.96875 47.46875 24.109375 47.828125 
Q 26.265625 48.1875 28.421875 48.1875 
Q 40.625 48.1875 47.75 41.5 
Q 54.890625 34.8125 54.890625 23.390625 
Q 54.890625 11.625 47.5625 5.09375 
Q 40.234375 -1.421875 26.90625 -1.421875 
Q 22.3125 -1.421875 17.546875 -0.640625 
Q 12.796875 0.140625 7.71875 1.703125 
L 7.71875 11.625 
Q 12.109375 9.234375 16.796875 8.0625 
Q 21.484375 6.890625 26.703125 6.890625 
Q 35.15625 6.890625 40.078125 11.328125 
Q 45.015625 15.765625 45.015625 23.390625 
Q 45.015625 31 40.078125 35.4375 
Q 35.15625 39.890625 26.703125 39.890625 
Q 22.75 39.890625 18.8125 39.015625 
Q 14.890625 38.140625 10.796875 36.28125 
z
" id="DejaVuSans-53"/>
      </defs>
      <g transform="translate(380.644205 631.688837)scale(0.1 -0.1)">
       <use xlink:href="#DejaVuSans-53"/>
      </g>
     </g>
    </g>
    <g id="xtick_3">
     <g id="line2d_3">
      <g>
       <use style="stroke:#000000;stroke-width:0.8;" x="546.152727" xlink:href="#mc68037dbce" y="617.0904"/>
      </g>
     </g>
     <g id="text_3">
      <!-- 10 -->
      <defs>
       <path d="M 12.40625 8.296875 
L 28.515625 8.296875 
L 28.515625 63.921875 
L 10.984375 60.40625 
L 10.984375 69.390625 
L 28.421875 72.90625 
L 38.28125 72.90625 
L 38.28125 8.296875 
L 54.390625 8.296875 
L 54.390625 0 
L 12.40625 0 
z
" id="DejaVuSans-49"/>
      </defs>
      <g transform="translate(539.790227 631.688837)scale(0.1 -0.1)">
       <use xlink:href="#DejaVuSans-49"/>
       <use x="63.623047" xlink:href="#DejaVuSans-48"/>
      </g>
     </g>
    </g>
    <g id="xtick_4">
     <g id="line2d_4">
      <g>
       <use style="stroke:#000000;stroke-width:0.8;" x="708.48" xlink:href="#mc68037dbce" y="617.0904"/>
      </g>
     </g>
     <g id="text_4">
      <!-- 15 -->
      <g transform="translate(702.1175 631.688837)scale(0.1 -0.1)">
       <use xlink:href="#DejaVuSans-49"/>
       <use x="63.623047" xlink:href="#DejaVuSans-53"/>
      </g>
     </g>
    </g>
    <g id="xtick_5">
     <g id="line2d_5">
      <g>
       <use style="stroke:#000000;stroke-width:0.8;" x="870.807273" xlink:href="#mc68037dbce" y="617.0904"/>
      </g>
     </g>
     <g id="text_5">
      <!-- 20 -->
      <defs>
       <path d="M 19.1875 8.296875 
L 53.609375 8.296875 
L 53.609375 0 
L 7.328125 0 
L 7.328125 8.296875 
Q 12.9375 14.109375 22.625 23.890625 
Q 32.328125 33.6875 34.8125 36.53125 
Q 39.546875 41.84375 41.421875 45.53125 
Q 43.3125 49.21875 43.3125 52.78125 
Q 43.3125 58.59375 39.234375 62.25 
Q 35.15625 65.921875 28.609375 65.921875 
Q 23.96875 65.921875 18.8125 64.3125 
Q 13.671875 62.703125 7.8125 59.421875 
L 7.8125 69.390625 
Q 13.765625 71.78125 18.9375 73 
Q 24.125 74.21875 28.421875 74.21875 
Q 39.75 74.21875 46.484375 68.546875 
Q 53.21875 62.890625 53.21875 53.421875 
Q 53.21875 48.921875 51.53125 44.890625 
Q 49.859375 40.875 45.40625 35.40625 
Q 44.1875 33.984375 37.640625 27.21875 
Q 31.109375 20.453125 19.1875 8.296875 
z
" id="DejaVuSans-50"/>
      </defs>
      <g transform="translate(864.444773 631.688837)scale(0.1 -0.1)">
       <use xlink:href="#DejaVuSans-50"/>
       <use x="63.623047" xlink:href="#DejaVuSans-48"/>
      </g>
     </g>
    </g>
    <g id="xtick_6">
     <g id="line2d_6">
      <g>
       <use style="stroke:#000000;stroke-width:0.8;" x="1033.134545" xlink:href="#mc68037dbce" y="617.0904"/>
      </g>
     </g>
     <g id="text_6">
      <!-- 25 -->
      <g transform="translate(1026.772045 631.688837)scale(0.1 -0.1)">
       <use xlink:href="#DejaVuSans-50"/>
       <use x="63.623047" xlink:href="#DejaVuSans-53"/>
      </g>
     </g>
    </g>
    <g id="xtick_7">
     <g id="line2d_7">
      <g>
       <use style="stroke:#000000;stroke-width:0.8;" x="1195.461818" xlink:href="#mc68037dbce" y="617.0904"/>
      </g>
     </g>
     <g id="text_7">
      <!-- 30 -->
      <defs>
       <path d="M 40.578125 39.3125 
Q 47.65625 37.796875 51.625 33 
Q 55.609375 28.21875 55.609375 21.1875 
Q 55.609375 10.40625 48.1875 4.484375 
Q 40.765625 -1.421875 27.09375 -1.421875 
Q 22.515625 -1.421875 17.65625 -0.515625 
Q 12.796875 0.390625 7.625 2.203125 
L 7.625 11.71875 
Q 11.71875 9.328125 16.59375 8.109375 
Q 21.484375 6.890625 26.8125 6.890625 
Q 36.078125 6.890625 40.9375 10.546875 
Q 45.796875 14.203125 45.796875 21.1875 
Q 45.796875 27.640625 41.28125 31.265625 
Q 36.765625 34.90625 28.71875 34.90625 
L 20.21875 34.90625 
L 20.21875 43.015625 
L 29.109375 43.015625 
Q 36.375 43.015625 40.234375 45.921875 
Q 44.09375 48.828125 44.09375 54.296875 
Q 44.09375 59.90625 40.109375 62.90625 
Q 36.140625 65.921875 28.71875 65.921875 
Q 24.65625 65.921875 20.015625 65.03125 
Q 15.375 64.15625 9.8125 62.3125 
L 9.8125 71.09375 
Q 15.4375 72.65625 20.34375 73.4375 
Q 25.25 74.21875 29.59375 74.21875 
Q 40.828125 74.21875 47.359375 69.109375 
Q 53.90625 64.015625 53.90625 55.328125 
Q 53.90625 49.265625 50.4375 45.09375 
Q 46.96875 40.921875 40.578125 39.3125 
z
" id="DejaVuSans-51"/>
      </defs>
      <g transform="translate(1189.099318 631.688837)scale(0.1 -0.1)">
       <use xlink:href="#DejaVuSans-51"/>
       <use x="63.623047" xlink:href="#DejaVuSans-48"/>
      </g>
     </g>
    </g>
    <g id="text_8">
     <!-- Time [s] -->
     <defs>
      <path d="M -0.296875 72.90625 
L 61.375 72.90625 
L 61.375 64.59375 
L 35.5 64.59375 
L 35.5 0 
L 25.59375 0 
L 25.59375 64.59375 
L -0.296875 64.59375 
z
" id="DejaVuSans-84"/>
      <path d="M 9.421875 54.6875 
L 18.40625 54.6875 
L 18.40625 0 
L 9.421875 0 
z
M 9.421875 75.984375 
L 18.40625 75.984375 
L 18.40625 64.59375 
L 9.421875 64.59375 
z
" id="DejaVuSans-105"/>
      <path d="M 52 44.1875 
Q 55.375 50.25 60.0625 53.125 
Q 64.75 56 71.09375 56 
Q 79.640625 56 84.28125 50.015625 
Q 88.921875 44.046875 88.921875 33.015625 
L 88.921875 0 
L 79.890625 0 
L 79.890625 32.71875 
Q 79.890625 40.578125 77.09375 44.375 
Q 74.3125 48.1875 68.609375 48.1875 
Q 61.625 48.1875 57.5625 43.546875 
Q 53.515625 38.921875 53.515625 30.90625 
L 53.515625 0 
L 44.484375 0 
L 44.484375 32.71875 
Q 44.484375 40.625 41.703125 44.40625 
Q 38.921875 48.1875 33.109375 48.1875 
Q 26.21875 48.1875 22.15625 43.53125 
Q 18.109375 38.875 18.109375 30.90625 
L 18.109375 0 
L 9.078125 0 
L 9.078125 54.6875 
L 18.109375 54.6875 
L 18.109375 46.1875 
Q 21.1875 51.21875 25.484375 53.609375 
Q 29.78125 56 35.6875 56 
Q 41.65625 56 45.828125 52.96875 
Q 50 49.953125 52 44.1875 
z
" id="DejaVuSans-109"/>
      <path d="M 56.203125 29.59375 
L 56.203125 25.203125 
L 14.890625 25.203125 
Q 15.484375 15.921875 20.484375 11.0625 
Q 25.484375 6.203125 34.421875 6.203125 
Q 39.59375 6.203125 44.453125 7.46875 
Q 49.3125 8.734375 54.109375 11.28125 
L 54.109375 2.78125 
Q 49.265625 0.734375 44.1875 -0.34375 
Q 39.109375 -1.421875 33.890625 -1.421875 
Q 20.796875 -1.421875 13.15625 6.1875 
Q 5.515625 13.8125 5.515625 26.8125 
Q 5.515625 40.234375 12.765625 48.109375 
Q 20.015625 56 32.328125 56 
Q 43.359375 56 49.78125 48.890625 
Q 56.203125 41.796875 56.203125 29.59375 
z
M 47.21875 32.234375 
Q 47.125 39.59375 43.09375 43.984375 
Q 39.0625 48.390625 32.421875 48.390625 
Q 24.90625 48.390625 20.390625 44.140625 
Q 15.875 39.890625 15.1875 32.171875 
z
" id="DejaVuSans-101"/>
      <path id="DejaVuSans-32"/>
      <path d="M 8.59375 75.984375 
L 29.296875 75.984375 
L 29.296875 69 
L 17.578125 69 
L 17.578125 -6.203125 
L 29.296875 -6.203125 
L 29.296875 -13.1875 
L 8.59375 -13.1875 
z
" id="DejaVuSans-91"/>
      <path d="M 44.28125 53.078125 
L 44.28125 44.578125 
Q 40.484375 46.53125 36.375 47.5 
Q 32.28125 48.484375 27.875 48.484375 
Q 21.1875 48.484375 17.84375 46.4375 
Q 14.5 44.390625 14.5 40.28125 
Q 14.5 37.15625 16.890625 35.375 
Q 19.28125 33.59375 26.515625 31.984375 
L 29.59375 31.296875 
Q 39.15625 29.25 43.1875 25.515625 
Q 47.21875 21.78125 47.21875 15.09375 
Q 47.21875 7.46875 41.1875 3.015625 
Q 35.15625 -1.421875 24.609375 -1.421875 
Q 20.21875 -1.421875 15.453125 -0.5625 
Q 10.6875 0.296875 5.421875 2 
L 5.421875 11.28125 
Q 10.40625 8.6875 15.234375 7.390625 
Q 20.0625 6.109375 24.8125 6.109375 
Q 31.15625 6.109375 34.5625 8.28125 
Q 37.984375 10.453125 37.984375 14.40625 
Q 37.984375 18.0625 35.515625 20.015625 
Q 33.0625 21.96875 24.703125 23.78125 
L 21.578125 24.515625 
Q 13.234375 26.265625 9.515625 29.90625 
Q 5.8125 33.546875 5.8125 39.890625 
Q 5.8125 47.609375 11.28125 51.796875 
Q 16.75 56 26.8125 56 
Q 31.78125 56 36.171875 55.265625 
Q 40.578125 54.546875 44.28125 53.078125 
z
" id="DejaVuSans-115"/>
      <path d="M 30.421875 75.984375 
L 30.421875 -13.1875 
L 9.71875 -13.1875 
L 9.71875 -6.203125 
L 21.390625 -6.203125 
L 21.390625 69 
L 9.71875 69 
L 9.71875 75.984375 
z
" id="DejaVuSans-93"/>
     </defs>
     <g transform="translate(688.151094 645.366962)scale(0.1 -0.1)">
      <use xlink:href="#DejaVuSans-84"/>
      <use x="57.958984" xlink:href="#DejaVuSans-105"/>
      <use x="85.742188" xlink:href="#DejaVuSans-109"/>
      <use x="183.154297" xlink:href="#DejaVuSans-101"/>
      <use x="244.677734" xlink:href="#DejaVuSans-32"/>
      <use x="276.464844" xlink:href="#DejaVuSans-91"/>
      <use x="315.478516" xlink:href="#DejaVuSans-115"/>
      <use x="367.578125" xlink:href="#DejaVuSans-93"/>
     </g>
    </g>
   </g>
   <g id="matplotlib.axis_2">
    <g id="ytick_1">
     <g id="line2d_8">
      <defs>
       <path d="M 0 0 
L -3.5 0 
" id="m3206c21d74" style="stroke:#000000;stroke-width:0.8;"/>
      </defs>
      <g>
       <use style="stroke:#000000;stroke-width:0.8;" x="172.8" xlink:href="#m3206c21d74" y="545.015386"/>
      </g>
     </g>
     <g id="text_9">
      <!-- −0.05 -->
      <defs>
       <path d="M 10.59375 35.5 
L 73.1875 35.5 
L 73.1875 27.203125 
L 10.59375 27.203125 
z
" id="DejaVuSans-8722"/>
       <path d="M 10.6875 12.40625 
L 21 12.40625 
L 21 0 
L 10.6875 0 
z
" id="DejaVuSans-46"/>
      </defs>
      <g transform="translate(135.154687 548.814604)scale(0.1 -0.1)">
       <use xlink:href="#DejaVuSans-8722"/>
       <use x="83.789062" xlink:href="#DejaVuSans-48"/>
       <use x="147.412109" xlink:href="#DejaVuSans-46"/>
       <use x="179.199219" xlink:href="#DejaVuSans-48"/>
       <use x="242.822266" xlink:href="#DejaVuSans-53"/>
      </g>
     </g>
    </g>
    <g id="ytick_2">
     <g id="line2d_9">
      <g>
       <use style="stroke:#000000;stroke-width:0.8;" x="172.8" xlink:href="#m3206c21d74" y="462.427155"/>
      </g>
     </g>
     <g id="text_10">
      <!-- 0.00 -->
      <g transform="translate(143.534375 466.226374)scale(0.1 -0.1)">
       <use xlink:href="#DejaVuSans-48"/>
       <use x="63.623047" xlink:href="#DejaVuSans-46"/>
       <use x="95.410156" xlink:href="#DejaVuSans-48"/>
       <use x="159.033203" xlink:href="#DejaVuSans-48"/>
      </g>
     </g>
    </g>
    <g id="ytick_3">
     <g id="line2d_10">
      <g>
       <use style="stroke:#000000;stroke-width:0.8;" x="172.8" xlink:href="#m3206c21d74" y="379.838924"/>
      </g>
     </g>
     <g id="text_11">
      <!-- 0.05 -->
      <g transform="translate(143.534375 383.638143)scale(0.1 -0.1)">
       <use xlink:href="#DejaVuSans-48"/>
       <use x="63.623047" xlink:href="#DejaVuSans-46"/>
       <use x="95.410156" xlink:href="#DejaVuSans-48"/>
       <use x="159.033203" xlink:href="#DejaVuSans-53"/>
      </g>
     </g>
    </g>
    <g id="ytick_4">
     <g id="line2d_11">
      <g>
       <use style="stroke:#000000;stroke-width:0.8;" x="172.8" xlink:href="#m3206c21d74" y="297.250694"/>
      </g>
     </g>
     <g id="text_12">
      <!-- 0.10 -->
      <g transform="translate(143.534375 301.049912)scale(0.1 -0.1)">
       <use xlink:href="#DejaVuSans-48"/>
       <use x="63.623047" xlink:href="#DejaVuSans-46"/>
       <use x="95.410156" xlink:href="#DejaVuSans-49"/>
       <use x="159.033203" xlink:href="#DejaVuSans-48"/>
      </g>
     </g>
    </g>
    <g id="ytick_5">
     <g id="line2d_12">
      <g>
       <use style="stroke:#000000;stroke-width:0.8;" x="172.8" xlink:href="#m3206c21d74" y="214.662463"/>
      </g>
     </g>
     <g id="text_13">
      <!-- 0.15 -->
      <g transform="translate(143.534375 218.461682)scale(0.1 -0.1)">
       <use xlink:href="#DejaVuSans-48"/>
       <use x="63.623047" xlink:href="#DejaVuSans-46"/>
       <use x="95.410156" xlink:href="#DejaVuSans-49"/>
       <use x="159.033203" xlink:href="#DejaVuSans-53"/>
      </g>
     </g>
    </g>
    <g id="ytick_6">
     <g id="line2d_13">
      <g>
       <use style="stroke:#000000;stroke-width:0.8;" x="172.8" xlink:href="#m3206c21d74" y="132.074232"/>
      </g>
     </g>
     <g id="text_14">
      <!-- 0.20 -->
      <g transform="translate(143.534375 135.873451)scale(0.1 -0.1)">
       <use xlink:href="#DejaVuSans-48"/>
       <use x="63.623047" xlink:href="#DejaVuSans-46"/>
       <use x="95.410156" xlink:href="#DejaVuSans-50"/>
       <use x="159.033203" xlink:href="#DejaVuSans-48"/>
      </g>
     </g>
    </g>
    <g id="text_15">
     <!-- Filtered sensor data -->
     <defs>
      <path d="M 9.8125 72.90625 
L 51.703125 72.90625 
L 51.703125 64.59375 
L 19.671875 64.59375 
L 19.671875 43.109375 
L 48.578125 43.109375 
L 48.578125 34.8125 
L 19.671875 34.8125 
L 19.671875 0 
L 9.8125 0 
z
" id="DejaVuSans-70"/>
      <path d="M 9.421875 75.984375 
L 18.40625 75.984375 
L 18.40625 0 
L 9.421875 0 
z
" id="DejaVuSans-108"/>
      <path d="M 18.3125 70.21875 
L 18.3125 54.6875 
L 36.8125 54.6875 
L 36.8125 47.703125 
L 18.3125 47.703125 
L 18.3125 18.015625 
Q 18.3125 11.328125 20.140625 9.421875 
Q 21.96875 7.515625 27.59375 7.515625 
L 36.8125 7.515625 
L 36.8125 0 
L 27.59375 0 
Q 17.1875 0 13.234375 3.875 
Q 9.28125 7.765625 9.28125 18.015625 
L 9.28125 47.703125 
L 2.6875 47.703125 
L 2.6875 54.6875 
L 9.28125 54.6875 
L 9.28125 70.21875 
z
" id="DejaVuSans-116"/>
      <path d="M 41.109375 46.296875 
Q 39.59375 47.171875 37.8125 47.578125 
Q 36.03125 48 33.890625 48 
Q 26.265625 48 22.1875 43.046875 
Q 18.109375 38.09375 18.109375 28.8125 
L 18.109375 0 
L 9.078125 0 
L 9.078125 54.6875 
L 18.109375 54.6875 
L 18.109375 46.1875 
Q 20.953125 51.171875 25.484375 53.578125 
Q 30.03125 56 36.53125 56 
Q 37.453125 56 38.578125 55.875 
Q 39.703125 55.765625 41.0625 55.515625 
z
" id="DejaVuSans-114"/>
      <path d="M 45.40625 46.390625 
L 45.40625 75.984375 
L 54.390625 75.984375 
L 54.390625 0 
L 45.40625 0 
L 45.40625 8.203125 
Q 42.578125 3.328125 38.25 0.953125 
Q 33.9375 -1.421875 27.875 -1.421875 
Q 17.96875 -1.421875 11.734375 6.484375 
Q 5.515625 14.40625 5.515625 27.296875 
Q 5.515625 40.1875 11.734375 48.09375 
Q 17.96875 56 27.875 56 
Q 33.9375 56 38.25 53.625 
Q 42.578125 51.265625 45.40625 46.390625 
z
M 14.796875 27.296875 
Q 14.796875 17.390625 18.875 11.75 
Q 22.953125 6.109375 30.078125 6.109375 
Q 37.203125 6.109375 41.296875 11.75 
Q 45.40625 17.390625 45.40625 27.296875 
Q 45.40625 37.203125 41.296875 42.84375 
Q 37.203125 48.484375 30.078125 48.484375 
Q 22.953125 48.484375 18.875 42.84375 
Q 14.796875 37.203125 14.796875 27.296875 
z
" id="DejaVuSans-100"/>
      <path d="M 54.890625 33.015625 
L 54.890625 0 
L 45.90625 0 
L 45.90625 32.71875 
Q 45.90625 40.484375 42.875 44.328125 
Q 39.84375 48.1875 33.796875 48.1875 
Q 26.515625 48.1875 22.3125 43.546875 
Q 18.109375 38.921875 18.109375 30.90625 
L 18.109375 0 
L 9.078125 0 
L 9.078125 54.6875 
L 18.109375 54.6875 
L 18.109375 46.1875 
Q 21.34375 51.125 25.703125 53.5625 
Q 30.078125 56 35.796875 56 
Q 45.21875 56 50.046875 50.171875 
Q 54.890625 44.34375 54.890625 33.015625 
z
" id="DejaVuSans-110"/>
      <path d="M 30.609375 48.390625 
Q 23.390625 48.390625 19.1875 42.75 
Q 14.984375 37.109375 14.984375 27.296875 
Q 14.984375 17.484375 19.15625 11.84375 
Q 23.34375 6.203125 30.609375 6.203125 
Q 37.796875 6.203125 41.984375 11.859375 
Q 46.1875 17.53125 46.1875 27.296875 
Q 46.1875 37.015625 41.984375 42.703125 
Q 37.796875 48.390625 30.609375 48.390625 
z
M 30.609375 56 
Q 42.328125 56 49.015625 48.375 
Q 55.71875 40.765625 55.71875 27.296875 
Q 55.71875 13.875 49.015625 6.21875 
Q 42.328125 -1.421875 30.609375 -1.421875 
Q 18.84375 -1.421875 12.171875 6.21875 
Q 5.515625 13.875 5.515625 27.296875 
Q 5.515625 40.765625 12.171875 48.375 
Q 18.84375 56 30.609375 56 
z
" id="DejaVuSans-111"/>
      <path d="M 34.28125 27.484375 
Q 23.390625 27.484375 19.1875 25 
Q 14.984375 22.515625 14.984375 16.5 
Q 14.984375 11.71875 18.140625 8.90625 
Q 21.296875 6.109375 26.703125 6.109375 
Q 34.1875 6.109375 38.703125 11.40625 
Q 43.21875 16.703125 43.21875 25.484375 
L 43.21875 27.484375 
z
M 52.203125 31.203125 
L 52.203125 0 
L 43.21875 0 
L 43.21875 8.296875 
Q 40.140625 3.328125 35.546875 0.953125 
Q 30.953125 -1.421875 24.3125 -1.421875 
Q 15.921875 -1.421875 10.953125 3.296875 
Q 6 8.015625 6 15.921875 
Q 6 25.140625 12.171875 29.828125 
Q 18.359375 34.515625 30.609375 34.515625 
L 43.21875 34.515625 
L 43.21875 35.40625 
Q 43.21875 41.609375 39.140625 45 
Q 35.0625 48.390625 27.6875 48.390625 
Q 23 48.390625 18.546875 47.265625 
Q 14.109375 46.140625 10.015625 43.890625 
L 10.015625 52.203125 
Q 14.9375 54.109375 19.578125 55.046875 
Q 24.21875 56 28.609375 56 
Q 40.484375 56 46.34375 49.84375 
Q 52.203125 43.703125 52.203125 31.203125 
z
" id="DejaVuSans-97"/>
     </defs>
     <g transform="translate(129.075 399.678831)rotate(-90)scale(0.1 -0.1)">
      <use xlink:href="#DejaVuSans-70"/>
      <use x="50.269531" xlink:href="#DejaVuSans-105"/>
      <use x="78.052734" xlink:href="#DejaVuSans-108"/>
      <use x="105.835938" xlink:href="#DejaVuSans-116"/>
      <use x="145.044922" xlink:href="#DejaVuSans-101"/>
      <use x="206.568359" xlink:href="#DejaVuSans-114"/>
      <use x="245.431641" xlink:href="#DejaVuSans-101"/>
      <use x="306.955078" xlink:href="#DejaVuSans-100"/>
      <use x="370.431641" xlink:href="#DejaVuSans-32"/>
      <use x="402.21875" xlink:href="#DejaVuSans-115"/>
      <use x="454.318359" xlink:href="#DejaVuSans-101"/>
      <use x="515.841797" xlink:href="#DejaVuSans-110"/>
      <use x="579.220703" xlink:href="#DejaVuSans-115"/>
      <use x="631.320312" xlink:href="#DejaVuSans-111"/>
      <use x="692.501953" xlink:href="#DejaVuSans-114"/>
      <use x="733.615234" xlink:href="#DejaVuSans-32"/>
      <use x="765.402344" xlink:href="#DejaVuSans-100"/>
      <use x="828.878906" xlink:href="#DejaVuSans-97"/>
      <use x="890.158203" xlink:href="#DejaVuSans-116"/>
      <use x="929.367188" xlink:href="#DejaVuSans-97"/>
     </g>
    </g>
   </g>
   <g id="line2d_14">
    <path clip-path="url(#pb15e517f21)" d="M 221.498182 107.4708 
L 224.750147 164.547048 
L 226.37613 189.884621 
L 228.002113 217.049066 
L 229.628095 241.549422 
L 231.254078 263.535936 
L 232.880061 287.433951 
L 234.506043 307.32462 
L 236.132026 329.181442 
L 237.758009 348.511652 
L 241.009974 383.034301 
L 242.635957 401.127159 
L 245.887922 431.61744 
L 249.139888 457.498827 
L 250.76587 471.456526 
L 254.017836 494.038426 
L 255.643818 502.830591 
L 257.269801 513.90882 
L 258.895784 522.775668 
L 260.521767 531.001701 
L 262.147749 537.181446 
L 263.773732 545.733409 
L 265.399715 550.73191 
L 267.025697 556.716821 
L 268.65168 562.159282 
L 270.277663 567.078961 
L 271.903645 572.92197 
L 273.529628 576.736536 
L 275.155611 580.090024 
L 276.781594 581.573767 
L 278.407576 585.60308 
L 280.033559 587.675908 
L 281.659542 589.358215 
L 283.285524 590.666743 
L 284.911507 590.191083 
L 286.53749 590.918019 
L 288.163472 591.314496 
L 289.789455 592.8228 
L 291.415438 592.487345 
L 293.041421 591.871698 
L 294.667403 590.99021 
L 296.293386 588.430097 
L 297.919369 588.602574 
L 299.545351 585.574705 
L 301.171334 585.305926 
L 302.797317 581.862645 
L 304.423299 581.203648 
L 306.049282 577.394697 
L 307.675265 576.393937 
L 309.301248 572.266492 
L 310.92723 570.969878 
L 314.179196 564.902398 
L 317.431161 558.401287 
L 319.057144 553.585815 
L 320.683126 551.661467 
L 325.561075 540.853227 
L 332.065005 525.841533 
L 346.69885 491.749146 
L 353.20278 477.302455 
L 358.080728 467.006596 
L 362.958677 457.277483 
L 367.836625 448.191422 
L 371.08859 442.521996 
L 374.340555 437.18023 
L 377.592521 432.177913 
L 380.844486 427.524283 
L 384.096452 423.226164 
L 387.348417 419.288102 
L 388.9744 416.028124 
L 390.600382 363.196535 
L 392.226365 342.714912 
L 393.852348 353.37457 
L 395.478331 415.997985 
L 397.104313 424.19564 
L 398.730296 422.341288 
L 400.356279 422.014855 
L 403.608244 418.579226 
L 406.860209 415.556749 
L 410.112175 412.938028 
L 413.36414 410.712432 
L 416.616106 408.868208 
L 419.868071 407.392605 
L 423.120036 406.271981 
L 426.372002 405.491914 
L 429.623967 405.037307 
L 432.875933 404.89249 
L 434.501915 404.931225 
L 436.127898 386.49291 
L 437.753881 281.343438 
L 439.379863 392.490279 
L 441.005846 417.650658 
L 442.631829 419.011368 
L 445.883794 418.856755 
L 449.13576 418.982337 
L 450.761742 417.7176 
L 452.387725 419.486681 
L 454.013708 419.767774 
L 455.63969 418.680648 
L 457.265673 400.486787 
L 458.891656 297.318522 
L 460.517638 407.125024 
L 462.143621 434.230486 
L 465.395587 434.569976 
L 467.021569 434.818807 
L 468.647552 436.544157 
L 471.899517 437.05208 
L 473.5255 435.952107 
L 475.151483 436.441601 
L 476.777465 438.396354 
L 478.403448 437.416737 
L 480.029431 438.020171 
L 481.655414 416.936659 
L 483.281396 410.031847 
L 484.907379 444.27551 
L 489.785327 445.988714 
L 491.41131 448.038749 
L 493.037292 448.567819 
L 494.663275 447.696066 
L 496.289258 409.551637 
L 497.915241 376.356987 
L 499.541223 387.786157 
L 501.167206 446.633632 
L 502.793189 465.429113 
L 504.419171 467.245445 
L 506.045154 468.793569 
L 507.671137 467.395226 
L 509.297119 468.995044 
L 510.923102 469.071787 
L 512.549085 467.745835 
L 514.175068 467.986261 
L 515.80105 469.669489 
L 519.053016 469.995145 
L 520.678998 468.756633 
L 522.304981 470.503883 
L 523.930964 469.2892 
L 525.556946 469.630833 
L 527.182929 471.405502 
L 528.808912 471.641318 
L 530.434895 470.459123 
L 532.060877 472.255252 
L 533.68686 472.509059 
L 535.312843 466.585506 
L 536.938825 368.273291 
L 538.564808 423.611134 
L 540.190791 484.135633 
L 541.816773 485.672046 
L 543.442756 486.92397 
L 548.320704 486.111321 
L 549.946687 484.436455 
L 551.57267 485.742193 
L 561.328566 484.447074 
L 562.954548 476.641938 
L 564.580531 415.088539 
L 566.206514 429.782908 
L 567.832497 490.099072 
L 569.458479 493.005211 
L 571.084462 493.904678 
L 575.96241 492.031657 
L 577.588393 493.015819 
L 579.214375 490.709869 
L 580.840358 491.720307 
L 582.466341 489.439541 
L 590.596254 486.768113 
L 592.222237 484.829919 
L 593.84822 439.41902 
L 595.474202 413.400744 
L 597.100185 423.565396 
L 598.726168 485.897641 
L 600.352151 498.270101 
L 603.604116 499.115477 
L 605.230099 496.288667 
L 611.734029 492.075798 
L 618.23796 488.183373 
L 624.741891 484.592155 
L 631.245822 481.285501 
L 637.749753 478.248871 
L 639.375735 463.737955 
L 641.001718 355.572172 
L 642.627701 453.18873 
L 644.253683 487.513266 
L 645.879666 486.410087 
L 647.505649 486.757926 
L 652.383597 483.327104 
L 657.261545 480.147662 
L 658.887528 479.142159 
L 660.51351 476.736461 
L 662.139493 475.900974 
L 663.765476 467.318471 
L 665.391458 361.737993 
L 667.017441 443.15657 
L 668.643424 483.983156 
L 670.269407 484.431308 
L 671.895389 483.19185 
L 673.521372 483.412183 
L 675.147355 480.694397 
L 676.773337 479.557605 
L 678.39932 479.879347 
L 681.651285 477.533475 
L 683.277268 474.986937 
L 684.903251 474.019125 
L 686.529234 474.507575 
L 688.155216 473.48117 
L 689.781199 471.061485 
L 691.407182 451.511798 
L 693.033164 396.58719 
L 696.28513 476.720673 
L 697.911112 477.264297 
L 699.537095 476.123936 
L 701.163078 476.446838 
L 702.789061 475.261738 
L 704.415043 472.690062 
L 706.041026 471.701887 
L 707.667009 472.174598 
L 709.292991 469.710127 
L 710.918974 468.82743 
L 712.544957 469.40389 
L 714.170939 468.468237 
L 715.796922 466.141895 
L 717.422905 466.821737 
L 719.048888 464.560815 
L 720.67487 465.304884 
L 723.926836 463.795778 
L 725.552818 453.895234 
L 727.178801 388.818982 
L 728.804784 395.834175 
L 730.430766 448.948959 
L 732.056749 471.594123 
L 733.682732 472.280784 
L 735.308715 471.284961 
L 736.934697 471.753726 
L 738.56068 469.288841 
L 740.186663 469.835894 
L 741.812645 467.44777 
L 746.690593 465.135663 
L 748.316576 465.857987 
L 751.568542 464.314801 
L 753.194524 462.169762 
L 754.820507 463.02996 
L 756.44649 460.948307 
L 758.072472 461.870427 
L 759.698455 461.276042 
L 761.324438 459.286453 
L 762.95042 458.871613 
L 764.576403 459.908794 
L 766.202386 459.426617 
L 767.828368 438.839456 
L 769.454351 336.227472 
L 771.080334 454.533765 
L 772.706317 467.303797 
L 774.332299 469.690801 
L 779.210247 467.268375 
L 784.088195 465.166773 
L 788.966144 463.362856 
L 790.592126 461.396995 
L 792.218109 462.43162 
L 793.844092 461.946429 
L 795.470074 394.905462 
L 797.096057 376.796153 
L 798.72204 470.25182 
L 800.348022 471.183733 
L 801.974005 471.854732 
L 806.851953 469.441957 
L 808.477936 468.708322 
L 810.103919 466.581721 
L 811.729901 467.458816 
L 816.607849 465.633396 
L 819.859815 464.566332 
L 821.485798 462.648499 
L 823.11178 420.449032 
L 824.737763 389.475131 
L 826.363746 460.261959 
L 827.989728 472.846428 
L 829.615711 470.615672 
L 831.241694 471.389971 
L 836.119642 469.264201 
L 840.99759 467.417599 
L 845.875538 465.828032 
L 850.753486 464.474272 
L 854.005452 463.692698 
L 855.631434 443.202255 
L 857.257417 339.25396 
L 858.8834 460.773833 
L 860.509382 473.487087 
L 862.135365 474.231409 
L 867.013313 472.007356 
L 871.891261 470.051006 
L 876.769209 468.341607 
L 878.395192 467.823229 
L 880.021175 458.134428 
L 881.647157 427.346658 
L 883.27314 469.01493 
L 884.899123 469.96764 
L 889.777071 468.332077 
L 894.655019 466.911405 
L 897.906984 466.074774 
L 899.532967 442.541793 
L 901.15895 439.477296 
L 902.784932 467.645221 
L 904.410915 468.689742 
L 906.036898 468.207847 
L 907.662881 466.320984 
L 914.166811 465.126779 
L 915.792794 395.110552 
L 917.418777 343.20013 
L 919.044759 388.837251 
L 920.670742 345.843351 
L 922.296725 477.223874 
L 923.922708 497.405028 
L 927.174673 494.198323 
L 928.800656 494.091975 
L 930.426638 491.060567 
L 932.052621 491.049555 
L 933.678604 489.538497 
L 935.304586 486.648535 
L 936.930569 486.776269 
L 938.556552 485.401287 
L 940.182535 482.644754 
L 941.808517 481.476499 
L 943.4345 481.773666 
L 945.060483 479.137955 
L 946.686465 479.5149 
L 951.564413 476.242696 
L 953.190396 473.803517 
L 954.816379 472.946046 
L 956.442362 473.547496 
L 958.068344 472.636437 
L 959.694327 470.334136 
L 961.32031 471.037322 
L 964.572275 469.447392 
L 966.198258 447.141045 
L 967.82424 339.601544 
L 969.450223 332.567172 
L 971.076206 458.099347 
L 972.702188 488.633476 
L 974.328171 488.78821 
L 975.954154 487.272128 
L 977.580137 487.232072 
L 979.206119 484.269583 
L 980.832102 484.33003 
L 982.458085 481.466089 
L 984.084067 481.623147 
L 987.336033 478.986608 
L 988.962015 476.313083 
L 990.587998 476.656661 
L 992.213981 474.070068 
L 993.839964 474.498741 
L 998.717912 471.396431 
L 1000.343894 469.018469 
L 1001.969877 469.65115 
L 1006.847825 467.133566 
L 1011.725773 464.94361 
L 1013.351756 464.282319 
L 1014.977739 456.044333 
L 1016.603721 418.817346 
L 1018.229704 463.762369 
L 1019.855687 466.310008 
L 1024.733635 464.344757 
L 1029.611583 462.663757 
L 1034.489531 461.244704 
L 1036.115514 420.558667 
L 1037.741496 384.789545 
L 1039.367479 458.936268 
L 1040.993462 468.431301 
L 1042.619445 469.228765 
L 1047.497393 467.172737 
L 1052.375341 465.396371 
L 1055.627306 464.356594 
L 1057.253289 465.462998 
L 1058.879272 463.294863 
L 1063.75722 462.10268 
L 1065.383202 461.752586 
L 1067.009185 438.279059 
L 1068.635168 329.851046 
L 1070.26115 362.138939 
L 1071.887133 351.789159 
L 1073.513116 451.225617 
L 1075.139098 491.835332 
L 1076.765081 490.330196 
L 1078.391064 490.300016 
L 1083.269012 485.871475 
L 1088.14696 481.883848 
L 1093.024908 478.309523 
L 1097.902856 475.121775 
L 1099.528839 472.713806 
L 1101.154822 473.315706 
L 1106.03277 470.701122 
L 1107.658752 468.475233 
L 1109.284735 469.254814 
L 1110.910718 468.519504 
L 1112.536701 469.402654 
L 1114.162683 467.017269 
L 1115.788666 464.957366 
L 1117.414649 448.935594 
L 1119.040631 339.728132 
L 1120.666614 465.751366 
L 1122.292597 474.983111 
L 1123.918579 474.09627 
L 1125.544562 474.670604 
L 1127.170545 472.307781 
L 1128.796528 472.953301 
L 1130.42251 470.659969 
L 1132.048493 471.373306 
L 1136.926441 469.074267 
L 1138.552424 466.94745 
L 1140.178406 466.396322 
L 1141.804389 445.737549 
L 1143.430372 445.305412 
L 1145.056355 468.264367 
L 1146.682337 469.10022 
L 1148.30832 468.418937 
L 1149.934303 466.341772 
L 1151.560285 467.265449 
L 1153.186268 465.242872 
L 1154.812251 466.219664 
L 1156.438233 465.675553 
L 1158.064216 463.731847 
L 1159.690199 455.590381 
L 1161.316182 334.914615 
L 1162.942164 337.355609 
L 1164.568147 440.845926 
L 1166.19413 485.058573 
L 1167.820112 485.461639 
L 1172.69806 481.766214 
L 1174.324043 482.044356 
L 1175.950026 480.81869 
L 1177.576008 478.210317 
L 1179.201991 478.615802 
L 1182.453957 476.454941 
L 1184.079939 474.008792 
L 1185.705922 473.146057 
L 1187.331905 473.743862 
L 1192.209853 471.114488 
L 1193.835835 470.309698 
L 1195.461818 468.112493 
L 1195.461818 468.112493 
" style="fill:none;stroke:#1f77b4;stroke-linecap:square;stroke-width:1.5;"/>
   </g>
   <g id="patch_3">
    <path d="M 172.8 617.0904 
L 172.8 83.2032 
" style="fill:none;stroke:#000000;stroke-linecap:square;stroke-linejoin:miter;stroke-width:0.8;"/>
   </g>
   <g id="patch_4">
    <path d="M 1244.16 617.0904 
L 1244.16 83.2032 
" style="fill:none;stroke:#000000;stroke-linecap:square;stroke-linejoin:miter;stroke-width:0.8;"/>
   </g>
   <g id="patch_5">
    <path d="M 172.8 617.0904 
L 1244.16 617.0904 
" style="fill:none;stroke:#000000;stroke-linecap:square;stroke-linejoin:miter;stroke-width:0.8;"/>
   </g>
   <g id="patch_6">
    <path d="M 172.8 83.2032 
L 1244.16 83.2032 
" style="fill:none;stroke:#000000;stroke-linecap:square;stroke-linejoin:miter;stroke-width:0.8;"/>
   </g>
   <g id="text_16">
    <!-- Fourth order Highpass Filtering -->
    <defs>
     <path d="M 8.5 21.578125 
L 8.5 54.6875 
L 17.484375 54.6875 
L 17.484375 21.921875 
Q 17.484375 14.15625 20.5 10.265625 
Q 23.53125 6.390625 29.59375 6.390625 
Q 36.859375 6.390625 41.078125 11.03125 
Q 45.3125 15.671875 45.3125 23.6875 
L 45.3125 54.6875 
L 54.296875 54.6875 
L 54.296875 0 
L 45.3125 0 
L 45.3125 8.40625 
Q 42.046875 3.421875 37.71875 1 
Q 33.40625 -1.421875 27.6875 -1.421875 
Q 18.265625 -1.421875 13.375 4.4375 
Q 8.5 10.296875 8.5 21.578125 
z
M 31.109375 56 
z
" id="DejaVuSans-117"/>
     <path d="M 54.890625 33.015625 
L 54.890625 0 
L 45.90625 0 
L 45.90625 32.71875 
Q 45.90625 40.484375 42.875 44.328125 
Q 39.84375 48.1875 33.796875 48.1875 
Q 26.515625 48.1875 22.3125 43.546875 
Q 18.109375 38.921875 18.109375 30.90625 
L 18.109375 0 
L 9.078125 0 
L 9.078125 75.984375 
L 18.109375 75.984375 
L 18.109375 46.1875 
Q 21.34375 51.125 25.703125 53.5625 
Q 30.078125 56 35.796875 56 
Q 45.21875 56 50.046875 50.171875 
Q 54.890625 44.34375 54.890625 33.015625 
z
" id="DejaVuSans-104"/>
     <path d="M 9.8125 72.90625 
L 19.671875 72.90625 
L 19.671875 43.015625 
L 55.515625 43.015625 
L 55.515625 72.90625 
L 65.375 72.90625 
L 65.375 0 
L 55.515625 0 
L 55.515625 34.71875 
L 19.671875 34.71875 
L 19.671875 0 
L 9.8125 0 
z
" id="DejaVuSans-72"/>
     <path d="M 45.40625 27.984375 
Q 45.40625 37.75 41.375 43.109375 
Q 37.359375 48.484375 30.078125 48.484375 
Q 22.859375 48.484375 18.828125 43.109375 
Q 14.796875 37.75 14.796875 27.984375 
Q 14.796875 18.265625 18.828125 12.890625 
Q 22.859375 7.515625 30.078125 7.515625 
Q 37.359375 7.515625 41.375 12.890625 
Q 45.40625 18.265625 45.40625 27.984375 
z
M 54.390625 6.78125 
Q 54.390625 -7.171875 48.1875 -13.984375 
Q 42 -20.796875 29.203125 -20.796875 
Q 24.46875 -20.796875 20.265625 -20.09375 
Q 16.0625 -19.390625 12.109375 -17.921875 
L 12.109375 -9.1875 
Q 16.0625 -11.328125 19.921875 -12.34375 
Q 23.78125 -13.375 27.78125 -13.375 
Q 36.625 -13.375 41.015625 -8.765625 
Q 45.40625 -4.15625 45.40625 5.171875 
L 45.40625 9.625 
Q 42.625 4.78125 38.28125 2.390625 
Q 33.9375 0 27.875 0 
Q 17.828125 0 11.671875 7.65625 
Q 5.515625 15.328125 5.515625 27.984375 
Q 5.515625 40.671875 11.671875 48.328125 
Q 17.828125 56 27.875 56 
Q 33.9375 56 38.28125 53.609375 
Q 42.625 51.21875 45.40625 46.390625 
L 45.40625 54.6875 
L 54.390625 54.6875 
z
" id="DejaVuSans-103"/>
     <path d="M 18.109375 8.203125 
L 18.109375 -20.796875 
L 9.078125 -20.796875 
L 9.078125 54.6875 
L 18.109375 54.6875 
L 18.109375 46.390625 
Q 20.953125 51.265625 25.265625 53.625 
Q 29.59375 56 35.59375 56 
Q 45.5625 56 51.78125 48.09375 
Q 58.015625 40.1875 58.015625 27.296875 
Q 58.015625 14.40625 51.78125 6.484375 
Q 45.5625 -1.421875 35.59375 -1.421875 
Q 29.59375 -1.421875 25.265625 0.953125 
Q 20.953125 3.328125 18.109375 8.203125 
z
M 48.6875 27.296875 
Q 48.6875 37.203125 44.609375 42.84375 
Q 40.53125 48.484375 33.40625 48.484375 
Q 26.265625 48.484375 22.1875 42.84375 
Q 18.109375 37.203125 18.109375 27.296875 
Q 18.109375 17.390625 22.1875 11.75 
Q 26.265625 6.109375 33.40625 6.109375 
Q 40.53125 6.109375 44.609375 11.75 
Q 48.6875 17.390625 48.6875 27.296875 
z
" id="DejaVuSans-112"/>
    </defs>
    <g transform="translate(615.764062 77.2032)scale(0.12 -0.12)">
     <use xlink:href="#DejaVuSans-70"/>
     <use x="53.894531" xlink:href="#DejaVuSans-111"/>
     <use x="115.076172" xlink:href="#DejaVuSans-117"/>
     <use x="178.455078" xlink:href="#DejaVuSans-114"/>
     <use x="219.568359" xlink:href="#DejaVuSans-116"/>
     <use x="258.777344" xlink:href="#DejaVuSans-104"/>
     <use x="322.15625" xlink:href="#DejaVuSans-32"/>
     <use x="353.943359" xlink:href="#DejaVuSans-111"/>
     <use x="415.125" xlink:href="#DejaVuSans-114"/>
     <use x="454.488281" xlink:href="#DejaVuSans-100"/>
     <use x="517.964844" xlink:href="#DejaVuSans-101"/>
     <use x="579.488281" xlink:href="#DejaVuSans-114"/>
     <use x="620.601562" xlink:href="#DejaVuSans-32"/>
     <use x="652.388672" xlink:href="#DejaVuSans-72"/>
     <use x="727.583984" xlink:href="#DejaVuSans-105"/>
     <use x="755.367188" xlink:href="#DejaVuSans-103"/>
     <use x="818.84375" xlink:href="#DejaVuSans-104"/>
     <use x="882.222656" xlink:href="#DejaVuSans-112"/>
     <use x="945.699219" xlink:href="#DejaVuSans-97"/>
     <use x="1006.978516" xlink:href="#DejaVuSans-115"/>
     <use x="1059.078125" xlink:href="#DejaVuSans-115"/>
     <use x="1111.177734" xlink:href="#DejaVuSans-32"/>
     <use x="1142.964844" xlink:href="#DejaVuSans-70"/>
     <use x="1193.234375" xlink:href="#DejaVuSans-105"/>
     <use x="1221.017578" xlink:href="#DejaVuSans-108"/>
     <use x="1248.800781" xlink:href="#DejaVuSans-116"/>
     <use x="1288.009766" xlink:href="#DejaVuSans-101"/>
     <use x="1349.533203" xlink:href="#DejaVuSans-114"/>
     <use x="1390.646484" xlink:href="#DejaVuSans-105"/>
     <use x="1418.429688" xlink:href="#DejaVuSans-110"/>
     <use x="1481.808594" xlink:href="#DejaVuSans-103"/>
    </g>
   </g>
  </g>
 </g>
 <defs>
  <clipPath id="pb15e517f21">
   <rect height="533.8872" width="1071.36" x="172.8" y="83.2032"/>
  </clipPath>
 </defs>
</svg>
