<?xml version="1.0" encoding="utf-8" standalone="no"?>
<!DOCTYPE svg PUBLIC "-//W3C//DTD SVG 1.1//EN"
  "http://www.w3.org/Graphics/SVG/1.1/DTD/svg11.dtd">
<!-- Created with matplotlib (https://matplotlib.org/) -->
<svg height="722.16pt" version="1.1" viewBox="0 0 1329.12 722.16" width="1329.12pt" xmlns="http://www.w3.org/2000/svg" xmlns:xlink="http://www.w3.org/1999/xlink">
 <defs>
  <style type="text/css">
*{stroke-linecap:butt;stroke-linejoin:round;}
  </style>
 </defs>
 <g id="figure_1">
  <g id="patch_1">
   <path d="M 0 722.16 
L 1329.12 722.16 
L 1329.12 0 
L 0 0 
z
" style="fill:#ffffff;"/>
  </g>
  <g id="axes_1">
   <g id="patch_2">
    <path d="M 166.14 642.7224 
L 1196.208 642.7224 
L 1196.208 86.6592 
L 166.14 86.6592 
z
" style="fill:#ffffff;"/>
   </g>
   <g id="matplotlib.axis_1">
    <g id="xtick_1">
     <g id="line2d_1">
      <defs>
       <path d="M 0 0 
L 0 3.5 
" id="m7301d826ac" style="stroke:#000000;stroke-width:0.8;"/>
      </defs>
      <g>
       <use style="stroke:#000000;stroke-width:0.8;" x="212.961273" xlink:href="#m7301d826ac" y="642.7224"/>
      </g>
     </g>
     <g id="text_1">
      <!-- 0 -->
      <defs>
       <path d="M 31.78125 66.40625 
Q 24.171875 66.40625 20.328125 58.90625 
Q 16.5 51.421875 16.5 36.375 
Q 16.5 21.390625 20.328125 13.890625 
Q 24.171875 6.390625 31.78125 6.390625 
Q 39.453125 6.390625 43.28125 13.890625 
Q 47.125 21.390625 47.125 36.375 
Q 47.125 51.421875 43.28125 58.90625 
Q 39.453125 66.40625 31.78125 66.40625 
z
M 31.78125 74.21875 
Q 44.046875 74.21875 50.515625 64.515625 
Q 56.984375 54.828125 56.984375 36.375 
Q 56.984375 17.96875 50.515625 8.265625 
Q 44.046875 -1.421875 31.78125 -1.421875 
Q 19.53125 -1.421875 13.0625 8.265625 
Q 6.59375 17.96875 6.59375 36.375 
Q 6.59375 54.828125 13.0625 64.515625 
Q 19.53125 74.21875 31.78125 74.21875 
z
" id="DejaVuSans-48"/>
      </defs>
      <g transform="translate(209.780023 657.320837)scale(0.1 -0.1)">
       <use xlink:href="#DejaVuSans-48"/>
      </g>
     </g>
    </g>
    <g id="xtick_2">
     <g id="line2d_2">
      <g>
       <use style="stroke:#000000;stroke-width:0.8;" x="369.032182" xlink:href="#m7301d826ac" y="642.7224"/>
      </g>
     </g>
     <g id="text_2">
      <!-- 5 -->
      <defs>
       <path d="M 10.796875 72.90625 
L 49.515625 72.90625 
L 49.515625 64.59375 
L 19.828125 64.59375 
L 19.828125 46.734375 
Q 21.96875 47.46875 24.109375 47.828125 
Q 26.265625 48.1875 28.421875 48.1875 
Q 40.625 48.1875 47.75 41.5 
Q 54.890625 34.8125 54.890625 23.390625 
Q 54.890625 11.625 47.5625 5.09375 
Q 40.234375 -1.421875 26.90625 -1.421875 
Q 22.3125 -1.421875 17.546875 -0.640625 
Q 12.796875 0.140625 7.71875 1.703125 
L 7.71875 11.625 
Q 12.109375 9.234375 16.796875 8.0625 
Q 21.484375 6.890625 26.703125 6.890625 
Q 35.15625 6.890625 40.078125 11.328125 
Q 45.015625 15.765625 45.015625 23.390625 
Q 45.015625 31 40.078125 35.4375 
Q 35.15625 39.890625 26.703125 39.890625 
Q 22.75 39.890625 18.8125 39.015625 
Q 14.890625 38.140625 10.796875 36.28125 
z
" id="DejaVuSans-53"/>
      </defs>
      <g transform="translate(365.850932 657.320837)scale(0.1 -0.1)">
       <use xlink:href="#DejaVuSans-53"/>
      </g>
     </g>
    </g>
    <g id="xtick_3">
     <g id="line2d_3">
      <g>
       <use style="stroke:#000000;stroke-width:0.8;" x="525.103091" xlink:href="#m7301d826ac" y="642.7224"/>
      </g>
     </g>
     <g id="text_3">
      <!-- 10 -->
      <defs>
       <path d="M 12.40625 8.296875 
L 28.515625 8.296875 
L 28.515625 63.921875 
L 10.984375 60.40625 
L 10.984375 69.390625 
L 28.421875 72.90625 
L 38.28125 72.90625 
L 38.28125 8.296875 
L 54.390625 8.296875 
L 54.390625 0 
L 12.40625 0 
z
" id="DejaVuSans-49"/>
      </defs>
      <g transform="translate(518.740591 657.320837)scale(0.1 -0.1)">
       <use xlink:href="#DejaVuSans-49"/>
       <use x="63.623047" xlink:href="#DejaVuSans-48"/>
      </g>
     </g>
    </g>
    <g id="xtick_4">
     <g id="line2d_4">
      <g>
       <use style="stroke:#000000;stroke-width:0.8;" x="681.174" xlink:href="#m7301d826ac" y="642.7224"/>
      </g>
     </g>
     <g id="text_4">
      <!-- 15 -->
      <g transform="translate(674.8115 657.320837)scale(0.1 -0.1)">
       <use xlink:href="#DejaVuSans-49"/>
       <use x="63.623047" xlink:href="#DejaVuSans-53"/>
      </g>
     </g>
    </g>
    <g id="xtick_5">
     <g id="line2d_5">
      <g>
       <use style="stroke:#000000;stroke-width:0.8;" x="837.244909" xlink:href="#m7301d826ac" y="642.7224"/>
      </g>
     </g>
     <g id="text_5">
      <!-- 20 -->
      <defs>
       <path d="M 19.1875 8.296875 
L 53.609375 8.296875 
L 53.609375 0 
L 7.328125 0 
L 7.328125 8.296875 
Q 12.9375 14.109375 22.625 23.890625 
Q 32.328125 33.6875 34.8125 36.53125 
Q 39.546875 41.84375 41.421875 45.53125 
Q 43.3125 49.21875 43.3125 52.78125 
Q 43.3125 58.59375 39.234375 62.25 
Q 35.15625 65.921875 28.609375 65.921875 
Q 23.96875 65.921875 18.8125 64.3125 
Q 13.671875 62.703125 7.8125 59.421875 
L 7.8125 69.390625 
Q 13.765625 71.78125 18.9375 73 
Q 24.125 74.21875 28.421875 74.21875 
Q 39.75 74.21875 46.484375 68.546875 
Q 53.21875 62.890625 53.21875 53.421875 
Q 53.21875 48.921875 51.53125 44.890625 
Q 49.859375 40.875 45.40625 35.40625 
Q 44.1875 33.984375 37.640625 27.21875 
Q 31.109375 20.453125 19.1875 8.296875 
z
" id="DejaVuSans-50"/>
      </defs>
      <g transform="translate(830.882409 657.320837)scale(0.1 -0.1)">
       <use xlink:href="#DejaVuSans-50"/>
       <use x="63.623047" xlink:href="#DejaVuSans-48"/>
      </g>
     </g>
    </g>
    <g id="xtick_6">
     <g id="line2d_6">
      <g>
       <use style="stroke:#000000;stroke-width:0.8;" x="993.315818" xlink:href="#m7301d826ac" y="642.7224"/>
      </g>
     </g>
     <g id="text_6">
      <!-- 25 -->
      <g transform="translate(986.953318 657.320837)scale(0.1 -0.1)">
       <use xlink:href="#DejaVuSans-50"/>
       <use x="63.623047" xlink:href="#DejaVuSans-53"/>
      </g>
     </g>
    </g>
    <g id="xtick_7">
     <g id="line2d_7">
      <g>
       <use style="stroke:#000000;stroke-width:0.8;" x="1149.386727" xlink:href="#m7301d826ac" y="642.7224"/>
      </g>
     </g>
     <g id="text_7">
      <!-- 30 -->
      <defs>
       <path d="M 40.578125 39.3125 
Q 47.65625 37.796875 51.625 33 
Q 55.609375 28.21875 55.609375 21.1875 
Q 55.609375 10.40625 48.1875 4.484375 
Q 40.765625 -1.421875 27.09375 -1.421875 
Q 22.515625 -1.421875 17.65625 -0.515625 
Q 12.796875 0.390625 7.625 2.203125 
L 7.625 11.71875 
Q 11.71875 9.328125 16.59375 8.109375 
Q 21.484375 6.890625 26.8125 6.890625 
Q 36.078125 6.890625 40.9375 10.546875 
Q 45.796875 14.203125 45.796875 21.1875 
Q 45.796875 27.640625 41.28125 31.265625 
Q 36.765625 34.90625 28.71875 34.90625 
L 20.21875 34.90625 
L 20.21875 43.015625 
L 29.109375 43.015625 
Q 36.375 43.015625 40.234375 45.921875 
Q 44.09375 48.828125 44.09375 54.296875 
Q 44.09375 59.90625 40.109375 62.90625 
Q 36.140625 65.921875 28.71875 65.921875 
Q 24.65625 65.921875 20.015625 65.03125 
Q 15.375 64.15625 9.8125 62.3125 
L 9.8125 71.09375 
Q 15.4375 72.65625 20.34375 73.4375 
Q 25.25 74.21875 29.59375 74.21875 
Q 40.828125 74.21875 47.359375 69.109375 
Q 53.90625 64.015625 53.90625 55.328125 
Q 53.90625 49.265625 50.4375 45.09375 
Q 46.96875 40.921875 40.578125 39.3125 
z
" id="DejaVuSans-51"/>
      </defs>
      <g transform="translate(1143.024227 657.320837)scale(0.1 -0.1)">
       <use xlink:href="#DejaVuSans-51"/>
       <use x="63.623047" xlink:href="#DejaVuSans-48"/>
      </g>
     </g>
    </g>
    <g id="text_8">
     <!-- Time [s] -->
     <defs>
      <path d="M -0.296875 72.90625 
L 61.375 72.90625 
L 61.375 64.59375 
L 35.5 64.59375 
L 35.5 0 
L 25.59375 0 
L 25.59375 64.59375 
L -0.296875 64.59375 
z
" id="DejaVuSans-84"/>
      <path d="M 9.421875 54.6875 
L 18.40625 54.6875 
L 18.40625 0 
L 9.421875 0 
z
M 9.421875 75.984375 
L 18.40625 75.984375 
L 18.40625 64.59375 
L 9.421875 64.59375 
z
" id="DejaVuSans-105"/>
      <path d="M 52 44.1875 
Q 55.375 50.25 60.0625 53.125 
Q 64.75 56 71.09375 56 
Q 79.640625 56 84.28125 50.015625 
Q 88.921875 44.046875 88.921875 33.015625 
L 88.921875 0 
L 79.890625 0 
L 79.890625 32.71875 
Q 79.890625 40.578125 77.09375 44.375 
Q 74.3125 48.1875 68.609375 48.1875 
Q 61.625 48.1875 57.5625 43.546875 
Q 53.515625 38.921875 53.515625 30.90625 
L 53.515625 0 
L 44.484375 0 
L 44.484375 32.71875 
Q 44.484375 40.625 41.703125 44.40625 
Q 38.921875 48.1875 33.109375 48.1875 
Q 26.21875 48.1875 22.15625 43.53125 
Q 18.109375 38.875 18.109375 30.90625 
L 18.109375 0 
L 9.078125 0 
L 9.078125 54.6875 
L 18.109375 54.6875 
L 18.109375 46.1875 
Q 21.1875 51.21875 25.484375 53.609375 
Q 29.78125 56 35.6875 56 
Q 41.65625 56 45.828125 52.96875 
Q 50 49.953125 52 44.1875 
z
" id="DejaVuSans-109"/>
      <path d="M 56.203125 29.59375 
L 56.203125 25.203125 
L 14.890625 25.203125 
Q 15.484375 15.921875 20.484375 11.0625 
Q 25.484375 6.203125 34.421875 6.203125 
Q 39.59375 6.203125 44.453125 7.46875 
Q 49.3125 8.734375 54.109375 11.28125 
L 54.109375 2.78125 
Q 49.265625 0.734375 44.1875 -0.34375 
Q 39.109375 -1.421875 33.890625 -1.421875 
Q 20.796875 -1.421875 13.15625 6.1875 
Q 5.515625 13.8125 5.515625 26.8125 
Q 5.515625 40.234375 12.765625 48.109375 
Q 20.015625 56 32.328125 56 
Q 43.359375 56 49.78125 48.890625 
Q 56.203125 41.796875 56.203125 29.59375 
z
M 47.21875 32.234375 
Q 47.125 39.59375 43.09375 43.984375 
Q 39.0625 48.390625 32.421875 48.390625 
Q 24.90625 48.390625 20.390625 44.140625 
Q 15.875 39.890625 15.1875 32.171875 
z
" id="DejaVuSans-101"/>
      <path id="DejaVuSans-32"/>
      <path d="M 8.59375 75.984375 
L 29.296875 75.984375 
L 29.296875 69 
L 17.578125 69 
L 17.578125 -6.203125 
L 29.296875 -6.203125 
L 29.296875 -13.1875 
L 8.59375 -13.1875 
z
" id="DejaVuSans-91"/>
      <path d="M 44.28125 53.078125 
L 44.28125 44.578125 
Q 40.484375 46.53125 36.375 47.5 
Q 32.28125 48.484375 27.875 48.484375 
Q 21.1875 48.484375 17.84375 46.4375 
Q 14.5 44.390625 14.5 40.28125 
Q 14.5 37.15625 16.890625 35.375 
Q 19.28125 33.59375 26.515625 31.984375 
L 29.59375 31.296875 
Q 39.15625 29.25 43.1875 25.515625 
Q 47.21875 21.78125 47.21875 15.09375 
Q 47.21875 7.46875 41.1875 3.015625 
Q 35.15625 -1.421875 24.609375 -1.421875 
Q 20.21875 -1.421875 15.453125 -0.5625 
Q 10.6875 0.296875 5.421875 2 
L 5.421875 11.28125 
Q 10.40625 8.6875 15.234375 7.390625 
Q 20.0625 6.109375 24.8125 6.109375 
Q 31.15625 6.109375 34.5625 8.28125 
Q 37.984375 10.453125 37.984375 14.40625 
Q 37.984375 18.0625 35.515625 20.015625 
Q 33.0625 21.96875 24.703125 23.78125 
L 21.578125 24.515625 
Q 13.234375 26.265625 9.515625 29.90625 
Q 5.8125 33.546875 5.8125 39.890625 
Q 5.8125 47.609375 11.28125 51.796875 
Q 16.75 56 26.8125 56 
Q 31.78125 56 36.171875 55.265625 
Q 40.578125 54.546875 44.28125 53.078125 
z
" id="DejaVuSans-115"/>
      <path d="M 30.421875 75.984375 
L 30.421875 -13.1875 
L 9.71875 -13.1875 
L 9.71875 -6.203125 
L 21.390625 -6.203125 
L 21.390625 69 
L 9.71875 69 
L 9.71875 75.984375 
z
" id="DejaVuSans-93"/>
     </defs>
     <g transform="translate(660.845094 670.998962)scale(0.1 -0.1)">
      <use xlink:href="#DejaVuSans-84"/>
      <use x="57.958984" xlink:href="#DejaVuSans-105"/>
      <use x="85.742188" xlink:href="#DejaVuSans-109"/>
      <use x="183.154297" xlink:href="#DejaVuSans-101"/>
      <use x="244.677734" xlink:href="#DejaVuSans-32"/>
      <use x="276.464844" xlink:href="#DejaVuSans-91"/>
      <use x="315.478516" xlink:href="#DejaVuSans-115"/>
      <use x="367.578125" xlink:href="#DejaVuSans-93"/>
     </g>
    </g>
   </g>
   <g id="matplotlib.axis_2">
    <g id="ytick_1">
     <g id="line2d_8">
      <defs>
       <path d="M 0 0 
L -3.5 0 
" id="m17d52c70c9" style="stroke:#000000;stroke-width:0.8;"/>
      </defs>
      <g>
       <use style="stroke:#000000;stroke-width:0.8;" x="166.14" xlink:href="#m17d52c70c9" y="624.184775"/>
      </g>
     </g>
     <g id="text_9">
      <!-- −0.05 -->
      <defs>
       <path d="M 10.59375 35.5 
L 73.1875 35.5 
L 73.1875 27.203125 
L 10.59375 27.203125 
z
" id="DejaVuSans-8722"/>
       <path d="M 10.6875 12.40625 
L 21 12.40625 
L 21 0 
L 10.6875 0 
z
" id="DejaVuSans-46"/>
      </defs>
      <g transform="translate(128.494687 627.983993)scale(0.1 -0.1)">
       <use xlink:href="#DejaVuSans-8722"/>
       <use x="83.789062" xlink:href="#DejaVuSans-48"/>
       <use x="147.412109" xlink:href="#DejaVuSans-46"/>
       <use x="179.199219" xlink:href="#DejaVuSans-48"/>
       <use x="242.822266" xlink:href="#DejaVuSans-53"/>
      </g>
     </g>
    </g>
    <g id="ytick_2">
     <g id="line2d_9">
      <g>
       <use style="stroke:#000000;stroke-width:0.8;" x="166.14" xlink:href="#m17d52c70c9" y="526.879492"/>
      </g>
     </g>
     <g id="text_10">
      <!-- 0.00 -->
      <g transform="translate(136.874375 530.67871)scale(0.1 -0.1)">
       <use xlink:href="#DejaVuSans-48"/>
       <use x="63.623047" xlink:href="#DejaVuSans-46"/>
       <use x="95.410156" xlink:href="#DejaVuSans-48"/>
       <use x="159.033203" xlink:href="#DejaVuSans-48"/>
      </g>
     </g>
    </g>
    <g id="ytick_3">
     <g id="line2d_10">
      <g>
       <use style="stroke:#000000;stroke-width:0.8;" x="166.14" xlink:href="#m17d52c70c9" y="429.574208"/>
      </g>
     </g>
     <g id="text_11">
      <!-- 0.05 -->
      <g transform="translate(136.874375 433.373427)scale(0.1 -0.1)">
       <use xlink:href="#DejaVuSans-48"/>
       <use x="63.623047" xlink:href="#DejaVuSans-46"/>
       <use x="95.410156" xlink:href="#DejaVuSans-48"/>
       <use x="159.033203" xlink:href="#DejaVuSans-53"/>
      </g>
     </g>
    </g>
    <g id="ytick_4">
     <g id="line2d_11">
      <g>
       <use style="stroke:#000000;stroke-width:0.8;" x="166.14" xlink:href="#m17d52c70c9" y="332.268925"/>
      </g>
     </g>
     <g id="text_12">
      <!-- 0.10 -->
      <g transform="translate(136.874375 336.068144)scale(0.1 -0.1)">
       <use xlink:href="#DejaVuSans-48"/>
       <use x="63.623047" xlink:href="#DejaVuSans-46"/>
       <use x="95.410156" xlink:href="#DejaVuSans-49"/>
       <use x="159.033203" xlink:href="#DejaVuSans-48"/>
      </g>
     </g>
    </g>
    <g id="ytick_5">
     <g id="line2d_12">
      <g>
       <use style="stroke:#000000;stroke-width:0.8;" x="166.14" xlink:href="#m17d52c70c9" y="234.963642"/>
      </g>
     </g>
     <g id="text_13">
      <!-- 0.15 -->
      <g transform="translate(136.874375 238.762861)scale(0.1 -0.1)">
       <use xlink:href="#DejaVuSans-48"/>
       <use x="63.623047" xlink:href="#DejaVuSans-46"/>
       <use x="95.410156" xlink:href="#DejaVuSans-49"/>
       <use x="159.033203" xlink:href="#DejaVuSans-53"/>
      </g>
     </g>
    </g>
    <g id="ytick_6">
     <g id="line2d_13">
      <g>
       <use style="stroke:#000000;stroke-width:0.8;" x="166.14" xlink:href="#m17d52c70c9" y="137.658359"/>
      </g>
     </g>
     <g id="text_14">
      <!-- 0.20 -->
      <g transform="translate(136.874375 141.457578)scale(0.1 -0.1)">
       <use xlink:href="#DejaVuSans-48"/>
       <use x="63.623047" xlink:href="#DejaVuSans-46"/>
       <use x="95.410156" xlink:href="#DejaVuSans-50"/>
       <use x="159.033203" xlink:href="#DejaVuSans-48"/>
      </g>
     </g>
    </g>
    <g id="text_15">
     <!-- Filtered signal value -->
     <defs>
      <path d="M 9.8125 72.90625 
L 51.703125 72.90625 
L 51.703125 64.59375 
L 19.671875 64.59375 
L 19.671875 43.109375 
L 48.578125 43.109375 
L 48.578125 34.8125 
L 19.671875 34.8125 
L 19.671875 0 
L 9.8125 0 
z
" id="DejaVuSans-70"/>
      <path d="M 9.421875 75.984375 
L 18.40625 75.984375 
L 18.40625 0 
L 9.421875 0 
z
" id="DejaVuSans-108"/>
      <path d="M 18.3125 70.21875 
L 18.3125 54.6875 
L 36.8125 54.6875 
L 36.8125 47.703125 
L 18.3125 47.703125 
L 18.3125 18.015625 
Q 18.3125 11.328125 20.140625 9.421875 
Q 21.96875 7.515625 27.59375 7.515625 
L 36.8125 7.515625 
L 36.8125 0 
L 27.59375 0 
Q 17.1875 0 13.234375 3.875 
Q 9.28125 7.765625 9.28125 18.015625 
L 9.28125 47.703125 
L 2.6875 47.703125 
L 2.6875 54.6875 
L 9.28125 54.6875 
L 9.28125 70.21875 
z
" id="DejaVuSans-116"/>
      <path d="M 41.109375 46.296875 
Q 39.59375 47.171875 37.8125 47.578125 
Q 36.03125 48 33.890625 48 
Q 26.265625 48 22.1875 43.046875 
Q 18.109375 38.09375 18.109375 28.8125 
L 18.109375 0 
L 9.078125 0 
L 9.078125 54.6875 
L 18.109375 54.6875 
L 18.109375 46.1875 
Q 20.953125 51.171875 25.484375 53.578125 
Q 30.03125 56 36.53125 56 
Q 37.453125 56 38.578125 55.875 
Q 39.703125 55.765625 41.0625 55.515625 
z
" id="DejaVuSans-114"/>
      <path d="M 45.40625 46.390625 
L 45.40625 75.984375 
L 54.390625 75.984375 
L 54.390625 0 
L 45.40625 0 
L 45.40625 8.203125 
Q 42.578125 3.328125 38.25 0.953125 
Q 33.9375 -1.421875 27.875 -1.421875 
Q 17.96875 -1.421875 11.734375 6.484375 
Q 5.515625 14.40625 5.515625 27.296875 
Q 5.515625 40.1875 11.734375 48.09375 
Q 17.96875 56 27.875 56 
Q 33.9375 56 38.25 53.625 
Q 42.578125 51.265625 45.40625 46.390625 
z
M 14.796875 27.296875 
Q 14.796875 17.390625 18.875 11.75 
Q 22.953125 6.109375 30.078125 6.109375 
Q 37.203125 6.109375 41.296875 11.75 
Q 45.40625 17.390625 45.40625 27.296875 
Q 45.40625 37.203125 41.296875 42.84375 
Q 37.203125 48.484375 30.078125 48.484375 
Q 22.953125 48.484375 18.875 42.84375 
Q 14.796875 37.203125 14.796875 27.296875 
z
" id="DejaVuSans-100"/>
      <path d="M 45.40625 27.984375 
Q 45.40625 37.75 41.375 43.109375 
Q 37.359375 48.484375 30.078125 48.484375 
Q 22.859375 48.484375 18.828125 43.109375 
Q 14.796875 37.75 14.796875 27.984375 
Q 14.796875 18.265625 18.828125 12.890625 
Q 22.859375 7.515625 30.078125 7.515625 
Q 37.359375 7.515625 41.375 12.890625 
Q 45.40625 18.265625 45.40625 27.984375 
z
M 54.390625 6.78125 
Q 54.390625 -7.171875 48.1875 -13.984375 
Q 42 -20.796875 29.203125 -20.796875 
Q 24.46875 -20.796875 20.265625 -20.09375 
Q 16.0625 -19.390625 12.109375 -17.921875 
L 12.109375 -9.1875 
Q 16.0625 -11.328125 19.921875 -12.34375 
Q 23.78125 -13.375 27.78125 -13.375 
Q 36.625 -13.375 41.015625 -8.765625 
Q 45.40625 -4.15625 45.40625 5.171875 
L 45.40625 9.625 
Q 42.625 4.78125 38.28125 2.390625 
Q 33.9375 0 27.875 0 
Q 17.828125 0 11.671875 7.65625 
Q 5.515625 15.328125 5.515625 27.984375 
Q 5.515625 40.671875 11.671875 48.328125 
Q 17.828125 56 27.875 56 
Q 33.9375 56 38.28125 53.609375 
Q 42.625 51.21875 45.40625 46.390625 
L 45.40625 54.6875 
L 54.390625 54.6875 
z
" id="DejaVuSans-103"/>
      <path d="M 54.890625 33.015625 
L 54.890625 0 
L 45.90625 0 
L 45.90625 32.71875 
Q 45.90625 40.484375 42.875 44.328125 
Q 39.84375 48.1875 33.796875 48.1875 
Q 26.515625 48.1875 22.3125 43.546875 
Q 18.109375 38.921875 18.109375 30.90625 
L 18.109375 0 
L 9.078125 0 
L 9.078125 54.6875 
L 18.109375 54.6875 
L 18.109375 46.1875 
Q 21.34375 51.125 25.703125 53.5625 
Q 30.078125 56 35.796875 56 
Q 45.21875 56 50.046875 50.171875 
Q 54.890625 44.34375 54.890625 33.015625 
z
" id="DejaVuSans-110"/>
      <path d="M 34.28125 27.484375 
Q 23.390625 27.484375 19.1875 25 
Q 14.984375 22.515625 14.984375 16.5 
Q 14.984375 11.71875 18.140625 8.90625 
Q 21.296875 6.109375 26.703125 6.109375 
Q 34.1875 6.109375 38.703125 11.40625 
Q 43.21875 16.703125 43.21875 25.484375 
L 43.21875 27.484375 
z
M 52.203125 31.203125 
L 52.203125 0 
L 43.21875 0 
L 43.21875 8.296875 
Q 40.140625 3.328125 35.546875 0.953125 
Q 30.953125 -1.421875 24.3125 -1.421875 
Q 15.921875 -1.421875 10.953125 3.296875 
Q 6 8.015625 6 15.921875 
Q 6 25.140625 12.171875 29.828125 
Q 18.359375 34.515625 30.609375 34.515625 
L 43.21875 34.515625 
L 43.21875 35.40625 
Q 43.21875 41.609375 39.140625 45 
Q 35.0625 48.390625 27.6875 48.390625 
Q 23 48.390625 18.546875 47.265625 
Q 14.109375 46.140625 10.015625 43.890625 
L 10.015625 52.203125 
Q 14.9375 54.109375 19.578125 55.046875 
Q 24.21875 56 28.609375 56 
Q 40.484375 56 46.34375 49.84375 
Q 52.203125 43.703125 52.203125 31.203125 
z
" id="DejaVuSans-97"/>
      <path d="M 2.984375 54.6875 
L 12.5 54.6875 
L 29.59375 8.796875 
L 46.6875 54.6875 
L 56.203125 54.6875 
L 35.6875 0 
L 23.484375 0 
z
" id="DejaVuSans-118"/>
      <path d="M 8.5 21.578125 
L 8.5 54.6875 
L 17.484375 54.6875 
L 17.484375 21.921875 
Q 17.484375 14.15625 20.5 10.265625 
Q 23.53125 6.390625 29.59375 6.390625 
Q 36.859375 6.390625 41.078125 11.03125 
Q 45.3125 15.671875 45.3125 23.6875 
L 45.3125 54.6875 
L 54.296875 54.6875 
L 54.296875 0 
L 45.3125 0 
L 45.3125 8.40625 
Q 42.046875 3.421875 37.71875 1 
Q 33.40625 -1.421875 27.6875 -1.421875 
Q 18.265625 -1.421875 13.375 4.4375 
Q 8.5 10.296875 8.5 21.578125 
z
M 31.109375 56 
z
" id="DejaVuSans-117"/>
     </defs>
     <g transform="translate(122.415 414.838456)rotate(-90)scale(0.1 -0.1)">
      <use xlink:href="#DejaVuSans-70"/>
      <use x="50.269531" xlink:href="#DejaVuSans-105"/>
      <use x="78.052734" xlink:href="#DejaVuSans-108"/>
      <use x="105.835938" xlink:href="#DejaVuSans-116"/>
      <use x="145.044922" xlink:href="#DejaVuSans-101"/>
      <use x="206.568359" xlink:href="#DejaVuSans-114"/>
      <use x="245.431641" xlink:href="#DejaVuSans-101"/>
      <use x="306.955078" xlink:href="#DejaVuSans-100"/>
      <use x="370.431641" xlink:href="#DejaVuSans-32"/>
      <use x="402.21875" xlink:href="#DejaVuSans-115"/>
      <use x="454.318359" xlink:href="#DejaVuSans-105"/>
      <use x="482.101562" xlink:href="#DejaVuSans-103"/>
      <use x="545.578125" xlink:href="#DejaVuSans-110"/>
      <use x="608.957031" xlink:href="#DejaVuSans-97"/>
      <use x="670.236328" xlink:href="#DejaVuSans-108"/>
      <use x="698.019531" xlink:href="#DejaVuSans-32"/>
      <use x="729.806641" xlink:href="#DejaVuSans-118"/>
      <use x="788.986328" xlink:href="#DejaVuSans-97"/>
      <use x="850.265625" xlink:href="#DejaVuSans-108"/>
      <use x="878.048828" xlink:href="#DejaVuSans-117"/>
      <use x="941.427734" xlink:href="#DejaVuSans-101"/>
     </g>
    </g>
   </g>
   <g id="line2d_14">
    <path clip-path="url(#p591ac15ff9)" d="M 212.961273 111.9348 
L 216.087902 183.89484 
L 219.214531 249.099433 
L 222.34116 307.705851 
L 225.46779 361.802685 
L 230.157733 426.827047 
L 233.284363 464.472461 
L 234.847677 481.312207 
L 236.410992 496.892904 
L 237.974307 511.262712 
L 239.537621 524.470275 
L 241.100936 536.564489 
L 242.66425 545.732727 
L 244.227565 557.773751 
L 245.79088 566.813225 
L 247.354194 574.933674 
L 248.917509 582.182535 
L 250.480823 588.606507 
L 252.044138 594.251432 
L 253.607453 599.162202 
L 255.170767 603.382663 
L 256.734082 606.955544 
L 258.297397 608.060814 
L 259.860711 612.488729 
L 261.424026 614.355472 
L 262.98734 615.733229 
L 264.550655 614.796779 
L 266.11397 617.331053 
L 267.677284 617.4468 
L 269.240599 617.210695 
L 270.803913 616.653533 
L 272.367228 615.804701 
L 273.930543 614.692194 
L 275.493857 613.342621 
L 277.057172 611.781226 
L 280.183801 608.117239 
L 283.31043 603.875728 
L 284.873745 601.587687 
L 286.43706 597.350397 
L 288.000374 596.930237 
L 292.690318 589.286643 
L 294.253633 584.827952 
L 295.816947 584.252496 
L 297.380262 579.786138 
L 298.943577 579.222706 
L 300.506891 576.647917 
L 302.070206 572.24243 
L 303.63352 571.763183 
L 308.323464 564.508455 
L 313.013408 557.780406 
L 316.140037 553.63183 
L 319.266667 549.771873 
L 322.393296 546.209336 
L 325.519925 542.947292 
L 327.08324 539.566994 
L 328.646554 538.287632 
L 330.209869 538.935488 
L 331.773183 537.621186 
L 333.336498 534.516442 
L 334.899813 535.369861 
L 336.463127 534.257117 
L 338.026442 531.349506 
L 339.589757 534.256838 
L 341.153071 531.30451 
L 344.2797 529.650708 
L 345.843015 528.910755 
L 347.40633 530.087589 
L 348.969644 527.429149 
L 352.096273 526.331905 
L 353.659588 527.715869 
L 355.222903 527.117485 
L 356.786217 524.707482 
L 358.349532 524.37207 
L 359.912847 520.537642 
L 361.476161 455.062642 
L 363.039476 448.105776 
L 364.60279 458.605621 
L 366.166105 532.136769 
L 367.72942 542.807179 
L 372.419363 539.637746 
L 373.982678 540.518757 
L 375.545993 537.550242 
L 377.109307 536.655283 
L 378.672622 537.661039 
L 380.235937 536.679032 
L 381.799251 533.881902 
L 386.489195 531.821954 
L 391.179139 530.090127 
L 394.305768 529.106753 
L 395.869083 526.801957 
L 397.432397 528.416475 
L 398.995712 528.026404 
L 400.559027 529.526727 
L 405.24897 528.132128 
L 406.812285 515.073993 
L 408.3756 381.050978 
L 409.938914 499.297747 
L 411.502229 542.072073 
L 416.192173 539.325871 
L 417.755487 538.466027 
L 419.318802 539.497077 
L 420.882117 536.669707 
L 424.008746 535.175447 
L 425.57206 536.336106 
L 428.69869 534.704005 
L 430.262004 532.083766 
L 431.825319 520.731003 
L 433.388633 384.52392 
L 434.951948 502.620691 
L 436.515263 547.106793 
L 441.205207 543.44478 
L 442.768521 542.298427 
L 444.331836 543.052843 
L 445.89515 539.958922 
L 449.02178 537.962353 
L 450.585094 538.887404 
L 452.148409 535.965346 
L 453.711723 536.980455 
L 455.275038 528.74944 
L 456.838353 457.545071 
L 458.401667 465.255208 
L 459.964982 485.573826 
L 461.528297 546.02089 
L 463.091611 548.389885 
L 464.654926 546.939329 
L 466.21824 547.397869 
L 467.781555 545.878382 
L 469.34487 542.554709 
L 472.471499 540.12781 
L 474.034813 538.990681 
L 475.598128 539.766028 
L 478.724757 537.422379 
L 480.288072 534.475254 
L 481.851387 535.473054 
L 483.414701 534.492029 
L 484.978016 531.704056 
L 488.104645 530.333286 
L 491.231274 529.135701 
L 492.794589 530.460051 
L 495.921218 529.178816 
L 499.047847 528.072875 
L 500.611162 527.581733 
L 502.174477 525.268106 
L 503.737791 525.018762 
L 505.301106 515.675926 
L 506.86442 379.837786 
L 508.427735 494.566696 
L 509.99105 541.213975 
L 514.680993 538.504749 
L 519.370937 536.067684 
L 524.060881 533.914912 
L 525.624196 535.122431 
L 527.18751 534.334627 
L 528.750825 531.724048 
L 531.877454 530.663288 
L 533.440769 479.356521 
L 535.004083 390.517976 
L 536.567398 537.228597 
L 538.130713 545.96187 
L 542.820657 542.459316 
L 547.5106 539.291501 
L 549.073915 540.175508 
L 550.63723 537.21103 
L 553.763859 535.471044 
L 555.327173 522.002135 
L 556.890488 489.591311 
L 558.453803 538.261818 
L 560.017117 535.469109 
L 561.580432 536.604448 
L 566.270376 534.144525 
L 570.96032 532.034048 
L 572.523634 531.405641 
L 574.086949 501.773004 
L 575.650263 447.388384 
L 577.213578 508.875606 
L 578.776893 538.026346 
L 581.903522 539.969942 
L 586.593466 537.104296 
L 588.15678 536.227345 
L 589.720095 533.528047 
L 591.28341 534.756188 
L 592.846724 533.988637 
L 594.410039 531.397896 
L 595.973353 532.733414 
L 597.536668 530.210179 
L 599.099983 531.611951 
L 602.226612 530.453446 
L 603.789927 528.064411 
L 605.353241 509.678246 
L 606.916556 378.060517 
L 608.47987 516.762869 
L 610.043185 543.376982 
L 611.6065 542.349593 
L 613.169814 543.212669 
L 617.859758 539.929717 
L 619.423073 538.915246 
L 620.986387 536.079965 
L 622.549702 537.174043 
L 627.239646 534.598606 
L 628.80296 533.821261 
L 630.366275 531.22219 
L 631.92959 518.030478 
L 633.492904 384.06023 
L 635.056219 512.954884 
L 636.619533 545.501776 
L 638.182848 544.310223 
L 639.746163 545.015683 
L 644.436107 541.299416 
L 647.562736 539.055102 
L 650.689365 537.000117 
L 652.25268 536.043377 
L 653.815994 536.994913 
L 655.379309 535.965809 
L 658.505938 530.508297 
L 660.069253 500.918302 
L 661.632567 510.241735 
L 663.195882 533.355917 
L 664.759197 534.562445 
L 669.44914 532.324423 
L 671.012455 531.658193 
L 672.57577 529.168964 
L 674.139084 530.605783 
L 675.702399 530.044849 
L 677.265713 509.600798 
L 678.829028 448.887881 
L 680.392343 462.879713 
L 681.955657 507.012408 
L 683.518972 543.5602 
L 685.082287 544.361447 
L 689.77223 540.899096 
L 692.89886 538.797708 
L 694.462174 535.949029 
L 697.588803 537.983339 
L 700.715433 535.968215 
L 702.278747 533.173126 
L 706.968691 531.133414 
L 711.658635 529.438503 
L 713.22195 528.94544 
L 714.785264 530.348051 
L 716.348579 529.756789 
L 717.911893 527.343337 
L 722.601837 526.384045 
L 724.165152 526.119254 
L 725.728467 480.457448 
L 727.291781 393.242978 
L 728.855096 537.892373 
L 730.41841 540.827783 
L 731.981725 541.785636 
L 733.54504 538.882649 
L 735.108354 539.90419 
L 736.671669 538.928157 
L 738.234983 536.127998 
L 739.798298 537.254033 
L 741.361613 536.383619 
L 742.924927 533.689714 
L 744.488242 534.922179 
L 746.051557 532.296384 
L 747.614871 531.734861 
L 749.178186 533.064295 
L 750.7415 530.534246 
L 752.304815 530.066984 
L 753.86813 436.921044 
L 755.431444 444.737194 
L 756.994759 544.905637 
L 761.684703 541.644356 
L 766.374647 538.686725 
L 767.937961 539.633986 
L 771.06459 537.592436 
L 772.627905 534.7767 
L 774.19122 534.032011 
L 775.754534 478.779501 
L 777.317849 532.093911 
L 778.881163 537.110723 
L 780.444478 536.263981 
L 782.007793 537.315333 
L 783.571107 534.51478 
L 788.261051 532.432758 
L 789.824366 531.809385 
L 791.38768 505.716818 
L 792.950995 449.344117 
L 794.51431 516.078808 
L 796.077624 539.020576 
L 797.640939 538.186377 
L 799.204253 539.241947 
L 803.894197 536.525926 
L 805.457512 537.556663 
L 807.020827 534.736335 
L 811.71077 532.600046 
L 816.400714 530.785537 
L 821.090658 529.273972 
L 822.653973 528.833421 
L 824.217287 524.885943 
L 825.780602 426.527388 
L 827.343917 389.589341 
L 828.907231 411.039193 
L 830.470546 556.759779 
L 832.03386 556.880948 
L 833.597175 555.203106 
L 835.16049 555.422469 
L 836.723804 551.792255 
L 838.287119 552.099621 
L 839.850433 548.56248 
L 841.413748 548.967206 
L 842.977063 549.254126 
L 844.540377 545.70902 
L 847.667007 542.860199 
L 850.793636 540.244107 
L 853.920265 537.860669 
L 857.046894 535.706459 
L 860.173523 533.775299 
L 863.300153 532.058792 
L 864.863467 531.277922 
L 866.426782 525.148242 
L 867.990097 388.49127 
L 869.553411 384.042196 
L 871.116726 462.419858 
L 872.68004 558.021986 
L 874.243355 557.887801 
L 875.80667 555.972505 
L 877.369984 555.971688 
L 878.933299 553.999505 
L 880.496613 550.23094 
L 882.059928 550.41761 
L 885.186557 546.927374 
L 888.313187 543.715489 
L 891.439816 540.783062 
L 894.566445 538.126984 
L 897.693074 535.740659 
L 900.819703 533.614665 
L 902.383018 532.645724 
L 903.946333 522.615644 
L 905.509647 482.551957 
L 907.072962 535.229847 
L 908.636277 532.392256 
L 910.199591 531.636572 
L 911.762906 532.78872 
L 914.889535 531.180733 
L 918.016164 529.772292 
L 919.579479 529.139145 
L 921.142793 526.6897 
L 922.706108 471.766613 
L 924.269423 447.222854 
L 925.832737 477.748288 
L 927.396052 540.490313 
L 928.959367 543.118542 
L 930.522681 540.063524 
L 932.085996 540.941496 
L 935.212625 538.764397 
L 938.339254 536.769888 
L 941.465883 534.957071 
L 944.592513 533.32257 
L 947.719142 531.860983 
L 952.409086 529.977101 
L 955.535715 528.914421 
L 957.09903 524.900542 
L 958.662344 397.254473 
L 960.225659 488.697519 
L 961.788973 541.239021 
L 963.352288 542.163243 
L 966.478917 540.053594 
L 968.042232 537.194283 
L 971.168861 539.196309 
L 972.732176 536.281404 
L 977.42212 533.875227 
L 978.985434 533.150557 
L 980.548749 521.666665 
L 982.112063 376.400512 
L 983.675378 367.656557 
L 985.238693 517.001464 
L 986.802007 560.612909 
L 989.928637 556.813049 
L 991.491951 556.842868 
L 994.61858 553.007691 
L 997.74521 549.419145 
L 1000.871839 546.088946 
L 1002.435153 544.52282 
L 1003.998468 544.884738 
L 1005.561783 541.424758 
L 1008.688412 538.771905 
L 1011.815041 536.378961 
L 1014.94167 534.238203 
L 1018.0683 532.33952 
L 1021.194929 530.67095 
L 1022.758243 515.398558 
L 1024.321558 445.061778 
L 1025.884873 510.204742 
L 1027.448187 536.924642 
L 1030.574817 538.712606 
L 1032.138131 535.706629 
L 1033.701446 534.784354 
L 1035.26476 535.772181 
L 1038.39139 533.844027 
L 1039.954704 531.0989 
L 1043.081333 529.809712 
L 1046.207963 528.687997 
L 1047.771277 528.18651 
L 1049.334592 524.185718 
L 1050.897907 449.423005 
L 1052.461221 457.81718 
L 1054.024536 509.319595 
L 1055.58785 540.129537 
L 1057.151165 541.092083 
L 1058.71448 541.919155 
L 1060.277794 538.895996 
L 1061.841109 539.807529 
L 1063.404423 536.869628 
L 1066.531053 535.179872 
L 1068.094367 536.254866 
L 1069.657682 533.47995 
L 1074.347626 531.484227 
L 1077.474255 530.334889 
L 1079.03757 531.673679 
L 1080.600884 529.15744 
L 1082.164199 530.569588 
L 1083.727513 528.124643 
L 1085.290828 527.744353 
L 1086.854143 529.254689 
L 1089.980772 528.31196 
L 1091.544087 526.029408 
L 1093.107401 458.602826 
L 1094.670716 380.596337 
L 1096.23403 438.964849 
L 1097.797345 374.494995 
L 1099.36066 552.68555 
L 1100.923974 562.799929 
L 1102.487289 564.472795 
L 1105.613918 560.224995 
L 1107.177233 560.039532 
L 1108.740547 556.02146 
L 1111.867177 552.232135 
L 1113.430491 550.430577 
L 1114.993806 550.55476 
L 1116.55712 546.855836 
L 1119.68375 543.725408 
L 1121.247064 542.259996 
L 1122.810379 542.722613 
L 1124.373693 539.362938 
L 1127.500323 536.908168 
L 1130.626952 534.708 
L 1133.753581 532.752787 
L 1136.88021 531.030916 
L 1140.00684 529.529291 
L 1141.570154 457.930736 
L 1143.133469 458.204753 
L 1144.696783 535.039328 
L 1146.260098 539.78591 
L 1147.823413 538.681801 
L 1149.386727 535.765381 
L 1149.386727 535.765381 
" style="fill:none;stroke:#1f77b4;stroke-linecap:square;stroke-width:1.5;"/>
   </g>
   <g id="patch_3">
    <path d="M 166.14 642.7224 
L 166.14 86.6592 
" style="fill:none;stroke:#000000;stroke-linecap:square;stroke-linejoin:miter;stroke-width:0.8;"/>
   </g>
   <g id="patch_4">
    <path d="M 1196.208 642.7224 
L 1196.208 86.6592 
" style="fill:none;stroke:#000000;stroke-linecap:square;stroke-linejoin:miter;stroke-width:0.8;"/>
   </g>
   <g id="patch_5">
    <path d="M 166.14 642.7224 
L 1196.208 642.7224 
" style="fill:none;stroke:#000000;stroke-linecap:square;stroke-linejoin:miter;stroke-width:0.8;"/>
   </g>
   <g id="patch_6">
    <path d="M 166.14 86.6592 
L 1196.208 86.6592 
" style="fill:none;stroke:#000000;stroke-linecap:square;stroke-linejoin:miter;stroke-width:0.8;"/>
   </g>
   <g id="text_16">
    <!-- Highpass filtering (calculated coeffs) -->
    <defs>
     <path d="M 9.8125 72.90625 
L 19.671875 72.90625 
L 19.671875 43.015625 
L 55.515625 43.015625 
L 55.515625 72.90625 
L 65.375 72.90625 
L 65.375 0 
L 55.515625 0 
L 55.515625 34.71875 
L 19.671875 34.71875 
L 19.671875 0 
L 9.8125 0 
z
" id="DejaVuSans-72"/>
     <path d="M 54.890625 33.015625 
L 54.890625 0 
L 45.90625 0 
L 45.90625 32.71875 
Q 45.90625 40.484375 42.875 44.328125 
Q 39.84375 48.1875 33.796875 48.1875 
Q 26.515625 48.1875 22.3125 43.546875 
Q 18.109375 38.921875 18.109375 30.90625 
L 18.109375 0 
L 9.078125 0 
L 9.078125 75.984375 
L 18.109375 75.984375 
L 18.109375 46.1875 
Q 21.34375 51.125 25.703125 53.5625 
Q 30.078125 56 35.796875 56 
Q 45.21875 56 50.046875 50.171875 
Q 54.890625 44.34375 54.890625 33.015625 
z
" id="DejaVuSans-104"/>
     <path d="M 18.109375 8.203125 
L 18.109375 -20.796875 
L 9.078125 -20.796875 
L 9.078125 54.6875 
L 18.109375 54.6875 
L 18.109375 46.390625 
Q 20.953125 51.265625 25.265625 53.625 
Q 29.59375 56 35.59375 56 
Q 45.5625 56 51.78125 48.09375 
Q 58.015625 40.1875 58.015625 27.296875 
Q 58.015625 14.40625 51.78125 6.484375 
Q 45.5625 -1.421875 35.59375 -1.421875 
Q 29.59375 -1.421875 25.265625 0.953125 
Q 20.953125 3.328125 18.109375 8.203125 
z
M 48.6875 27.296875 
Q 48.6875 37.203125 44.609375 42.84375 
Q 40.53125 48.484375 33.40625 48.484375 
Q 26.265625 48.484375 22.1875 42.84375 
Q 18.109375 37.203125 18.109375 27.296875 
Q 18.109375 17.390625 22.1875 11.75 
Q 26.265625 6.109375 33.40625 6.109375 
Q 40.53125 6.109375 44.609375 11.75 
Q 48.6875 17.390625 48.6875 27.296875 
z
" id="DejaVuSans-112"/>
     <path d="M 37.109375 75.984375 
L 37.109375 68.5 
L 28.515625 68.5 
Q 23.6875 68.5 21.796875 66.546875 
Q 19.921875 64.59375 19.921875 59.515625 
L 19.921875 54.6875 
L 34.71875 54.6875 
L 34.71875 47.703125 
L 19.921875 47.703125 
L 19.921875 0 
L 10.890625 0 
L 10.890625 47.703125 
L 2.296875 47.703125 
L 2.296875 54.6875 
L 10.890625 54.6875 
L 10.890625 58.5 
Q 10.890625 67.625 15.140625 71.796875 
Q 19.390625 75.984375 28.609375 75.984375 
z
" id="DejaVuSans-102"/>
     <path d="M 31 75.875 
Q 24.46875 64.65625 21.28125 53.65625 
Q 18.109375 42.671875 18.109375 31.390625 
Q 18.109375 20.125 21.3125 9.0625 
Q 24.515625 -2 31 -13.1875 
L 23.1875 -13.1875 
Q 15.875 -1.703125 12.234375 9.375 
Q 8.59375 20.453125 8.59375 31.390625 
Q 8.59375 42.28125 12.203125 53.3125 
Q 15.828125 64.359375 23.1875 75.875 
z
" id="DejaVuSans-40"/>
     <path d="M 48.78125 52.59375 
L 48.78125 44.1875 
Q 44.96875 46.296875 41.140625 47.34375 
Q 37.3125 48.390625 33.40625 48.390625 
Q 24.65625 48.390625 19.8125 42.84375 
Q 14.984375 37.3125 14.984375 27.296875 
Q 14.984375 17.28125 19.8125 11.734375 
Q 24.65625 6.203125 33.40625 6.203125 
Q 37.3125 6.203125 41.140625 7.25 
Q 44.96875 8.296875 48.78125 10.40625 
L 48.78125 2.09375 
Q 45.015625 0.34375 40.984375 -0.53125 
Q 36.96875 -1.421875 32.421875 -1.421875 
Q 20.0625 -1.421875 12.78125 6.34375 
Q 5.515625 14.109375 5.515625 27.296875 
Q 5.515625 40.671875 12.859375 48.328125 
Q 20.21875 56 33.015625 56 
Q 37.15625 56 41.109375 55.140625 
Q 45.0625 54.296875 48.78125 52.59375 
z
" id="DejaVuSans-99"/>
     <path d="M 30.609375 48.390625 
Q 23.390625 48.390625 19.1875 42.75 
Q 14.984375 37.109375 14.984375 27.296875 
Q 14.984375 17.484375 19.15625 11.84375 
Q 23.34375 6.203125 30.609375 6.203125 
Q 37.796875 6.203125 41.984375 11.859375 
Q 46.1875 17.53125 46.1875 27.296875 
Q 46.1875 37.015625 41.984375 42.703125 
Q 37.796875 48.390625 30.609375 48.390625 
z
M 30.609375 56 
Q 42.328125 56 49.015625 48.375 
Q 55.71875 40.765625 55.71875 27.296875 
Q 55.71875 13.875 49.015625 6.21875 
Q 42.328125 -1.421875 30.609375 -1.421875 
Q 18.84375 -1.421875 12.171875 6.21875 
Q 5.515625 13.875 5.515625 27.296875 
Q 5.515625 40.765625 12.171875 48.375 
Q 18.84375 56 30.609375 56 
z
" id="DejaVuSans-111"/>
     <path d="M 8.015625 75.875 
L 15.828125 75.875 
Q 23.140625 64.359375 26.78125 53.3125 
Q 30.421875 42.28125 30.421875 31.390625 
Q 30.421875 20.453125 26.78125 9.375 
Q 23.140625 -1.703125 15.828125 -13.1875 
L 8.015625 -13.1875 
Q 14.5 -2 17.703125 9.0625 
Q 20.90625 20.125 20.90625 31.390625 
Q 20.90625 42.671875 17.703125 53.65625 
Q 14.5 64.65625 8.015625 75.875 
z
" id="DejaVuSans-41"/>
    </defs>
    <g transform="translate(571.05525 80.6592)scale(0.12 -0.12)">
     <use xlink:href="#DejaVuSans-72"/>
     <use x="75.195312" xlink:href="#DejaVuSans-105"/>
     <use x="102.978516" xlink:href="#DejaVuSans-103"/>
     <use x="166.455078" xlink:href="#DejaVuSans-104"/>
     <use x="229.833984" xlink:href="#DejaVuSans-112"/>
     <use x="293.310547" xlink:href="#DejaVuSans-97"/>
     <use x="354.589844" xlink:href="#DejaVuSans-115"/>
     <use x="406.689453" xlink:href="#DejaVuSans-115"/>
     <use x="458.789062" xlink:href="#DejaVuSans-32"/>
     <use x="490.576172" xlink:href="#DejaVuSans-102"/>
     <use x="525.78125" xlink:href="#DejaVuSans-105"/>
     <use x="553.564453" xlink:href="#DejaVuSans-108"/>
     <use x="581.347656" xlink:href="#DejaVuSans-116"/>
     <use x="620.556641" xlink:href="#DejaVuSans-101"/>
     <use x="682.080078" xlink:href="#DejaVuSans-114"/>
     <use x="723.193359" xlink:href="#DejaVuSans-105"/>
     <use x="750.976562" xlink:href="#DejaVuSans-110"/>
     <use x="814.355469" xlink:href="#DejaVuSans-103"/>
     <use x="877.832031" xlink:href="#DejaVuSans-32"/>
     <use x="909.619141" xlink:href="#DejaVuSans-40"/>
     <use x="948.632812" xlink:href="#DejaVuSans-99"/>
     <use x="1003.613281" xlink:href="#DejaVuSans-97"/>
     <use x="1064.892578" xlink:href="#DejaVuSans-108"/>
     <use x="1092.675781" xlink:href="#DejaVuSans-99"/>
     <use x="1147.65625" xlink:href="#DejaVuSans-117"/>
     <use x="1211.035156" xlink:href="#DejaVuSans-108"/>
     <use x="1238.818359" xlink:href="#DejaVuSans-97"/>
     <use x="1300.097656" xlink:href="#DejaVuSans-116"/>
     <use x="1339.306641" xlink:href="#DejaVuSans-101"/>
     <use x="1400.830078" xlink:href="#DejaVuSans-100"/>
     <use x="1464.306641" xlink:href="#DejaVuSans-32"/>
     <use x="1496.09375" xlink:href="#DejaVuSans-99"/>
     <use x="1551.074219" xlink:href="#DejaVuSans-111"/>
     <use x="1612.255859" xlink:href="#DejaVuSans-101"/>
     <use x="1673.779297" xlink:href="#DejaVuSans-102"/>
     <use x="1708.984375" xlink:href="#DejaVuSans-102"/>
     <use x="1744.189453" xlink:href="#DejaVuSans-115"/>
     <use x="1796.289062" xlink:href="#DejaVuSans-41"/>
    </g>
   </g>
  </g>
 </g>
 <defs>
  <clipPath id="p591ac15ff9">
   <rect height="556.0632" width="1030.068" x="166.14" y="86.6592"/>
  </clipPath>
 </defs>
</svg>
