<?xml version="1.0" encoding="utf-8" standalone="no"?>
<!DOCTYPE svg PUBLIC "-//W3C//DTD SVG 1.1//EN"
  "http://www.w3.org/Graphics/SVG/1.1/DTD/svg11.dtd">
<!-- Created with matplotlib (https://matplotlib.org/) -->
<svg height="693.36pt" version="1.1" viewBox="0 0 1382.4 693.36" width="1382.4pt" xmlns="http://www.w3.org/2000/svg" xmlns:xlink="http://www.w3.org/1999/xlink">
 <defs>
  <style type="text/css">
*{stroke-linecap:butt;stroke-linejoin:round;}
  </style>
 </defs>
 <g id="figure_1">
  <g id="patch_1">
   <path d="M 0 693.36 
L 1382.4 693.36 
L 1382.4 0 
L 0 0 
z
" style="fill:#ffffff;"/>
  </g>
  <g id="axes_1">
   <g id="patch_2">
    <path d="M 172.8 617.0904 
L 1244.16 617.0904 
L 1244.16 83.2032 
L 172.8 83.2032 
z
" style="fill:#ffffff;"/>
   </g>
   <g id="matplotlib.axis_1">
    <g id="xtick_1">
     <g id="line2d_1">
      <defs>
       <path d="M 0 0 
L 0 3.5 
" id="m8175b44cdc" style="stroke:#000000;stroke-width:0.8;"/>
      </defs>
      <g>
       <use style="stroke:#000000;stroke-width:0.8;" x="221.498182" xlink:href="#m8175b44cdc" y="617.0904"/>
      </g>
     </g>
     <g id="text_1">
      <!-- 0 -->
      <defs>
       <path d="M 31.78125 66.40625 
Q 24.171875 66.40625 20.328125 58.90625 
Q 16.5 51.421875 16.5 36.375 
Q 16.5 21.390625 20.328125 13.890625 
Q 24.171875 6.390625 31.78125 6.390625 
Q 39.453125 6.390625 43.28125 13.890625 
Q 47.125 21.390625 47.125 36.375 
Q 47.125 51.421875 43.28125 58.90625 
Q 39.453125 66.40625 31.78125 66.40625 
z
M 31.78125 74.21875 
Q 44.046875 74.21875 50.515625 64.515625 
Q 56.984375 54.828125 56.984375 36.375 
Q 56.984375 17.96875 50.515625 8.265625 
Q 44.046875 -1.421875 31.78125 -1.421875 
Q 19.53125 -1.421875 13.0625 8.265625 
Q 6.59375 17.96875 6.59375 36.375 
Q 6.59375 54.828125 13.0625 64.515625 
Q 19.53125 74.21875 31.78125 74.21875 
z
" id="DejaVuSans-48"/>
      </defs>
      <g transform="translate(218.316932 631.688837)scale(0.1 -0.1)">
       <use xlink:href="#DejaVuSans-48"/>
      </g>
     </g>
    </g>
    <g id="xtick_2">
     <g id="line2d_2">
      <g>
       <use style="stroke:#000000;stroke-width:0.8;" x="383.825455" xlink:href="#m8175b44cdc" y="617.0904"/>
      </g>
     </g>
     <g id="text_2">
      <!-- 5 -->
      <defs>
       <path d="M 10.796875 72.90625 
L 49.515625 72.90625 
L 49.515625 64.59375 
L 19.828125 64.59375 
L 19.828125 46.734375 
Q 21.96875 47.46875 24.109375 47.828125 
Q 26.265625 48.1875 28.421875 48.1875 
Q 40.625 48.1875 47.75 41.5 
Q 54.890625 34.8125 54.890625 23.390625 
Q 54.890625 11.625 47.5625 5.09375 
Q 40.234375 -1.421875 26.90625 -1.421875 
Q 22.3125 -1.421875 17.546875 -0.640625 
Q 12.796875 0.140625 7.71875 1.703125 
L 7.71875 11.625 
Q 12.109375 9.234375 16.796875 8.0625 
Q 21.484375 6.890625 26.703125 6.890625 
Q 35.15625 6.890625 40.078125 11.328125 
Q 45.015625 15.765625 45.015625 23.390625 
Q 45.015625 31 40.078125 35.4375 
Q 35.15625 39.890625 26.703125 39.890625 
Q 22.75 39.890625 18.8125 39.015625 
Q 14.890625 38.140625 10.796875 36.28125 
z
" id="DejaVuSans-53"/>
      </defs>
      <g transform="translate(380.644205 631.688837)scale(0.1 -0.1)">
       <use xlink:href="#DejaVuSans-53"/>
      </g>
     </g>
    </g>
    <g id="xtick_3">
     <g id="line2d_3">
      <g>
       <use style="stroke:#000000;stroke-width:0.8;" x="546.152727" xlink:href="#m8175b44cdc" y="617.0904"/>
      </g>
     </g>
     <g id="text_3">
      <!-- 10 -->
      <defs>
       <path d="M 12.40625 8.296875 
L 28.515625 8.296875 
L 28.515625 63.921875 
L 10.984375 60.40625 
L 10.984375 69.390625 
L 28.421875 72.90625 
L 38.28125 72.90625 
L 38.28125 8.296875 
L 54.390625 8.296875 
L 54.390625 0 
L 12.40625 0 
z
" id="DejaVuSans-49"/>
      </defs>
      <g transform="translate(539.790227 631.688837)scale(0.1 -0.1)">
       <use xlink:href="#DejaVuSans-49"/>
       <use x="63.623047" xlink:href="#DejaVuSans-48"/>
      </g>
     </g>
    </g>
    <g id="xtick_4">
     <g id="line2d_4">
      <g>
       <use style="stroke:#000000;stroke-width:0.8;" x="708.48" xlink:href="#m8175b44cdc" y="617.0904"/>
      </g>
     </g>
     <g id="text_4">
      <!-- 15 -->
      <g transform="translate(702.1175 631.688837)scale(0.1 -0.1)">
       <use xlink:href="#DejaVuSans-49"/>
       <use x="63.623047" xlink:href="#DejaVuSans-53"/>
      </g>
     </g>
    </g>
    <g id="xtick_5">
     <g id="line2d_5">
      <g>
       <use style="stroke:#000000;stroke-width:0.8;" x="870.807273" xlink:href="#m8175b44cdc" y="617.0904"/>
      </g>
     </g>
     <g id="text_5">
      <!-- 20 -->
      <defs>
       <path d="M 19.1875 8.296875 
L 53.609375 8.296875 
L 53.609375 0 
L 7.328125 0 
L 7.328125 8.296875 
Q 12.9375 14.109375 22.625 23.890625 
Q 32.328125 33.6875 34.8125 36.53125 
Q 39.546875 41.84375 41.421875 45.53125 
Q 43.3125 49.21875 43.3125 52.78125 
Q 43.3125 58.59375 39.234375 62.25 
Q 35.15625 65.921875 28.609375 65.921875 
Q 23.96875 65.921875 18.8125 64.3125 
Q 13.671875 62.703125 7.8125 59.421875 
L 7.8125 69.390625 
Q 13.765625 71.78125 18.9375 73 
Q 24.125 74.21875 28.421875 74.21875 
Q 39.75 74.21875 46.484375 68.546875 
Q 53.21875 62.890625 53.21875 53.421875 
Q 53.21875 48.921875 51.53125 44.890625 
Q 49.859375 40.875 45.40625 35.40625 
Q 44.1875 33.984375 37.640625 27.21875 
Q 31.109375 20.453125 19.1875 8.296875 
z
" id="DejaVuSans-50"/>
      </defs>
      <g transform="translate(864.444773 631.688837)scale(0.1 -0.1)">
       <use xlink:href="#DejaVuSans-50"/>
       <use x="63.623047" xlink:href="#DejaVuSans-48"/>
      </g>
     </g>
    </g>
    <g id="xtick_6">
     <g id="line2d_6">
      <g>
       <use style="stroke:#000000;stroke-width:0.8;" x="1033.134545" xlink:href="#m8175b44cdc" y="617.0904"/>
      </g>
     </g>
     <g id="text_6">
      <!-- 25 -->
      <g transform="translate(1026.772045 631.688837)scale(0.1 -0.1)">
       <use xlink:href="#DejaVuSans-50"/>
       <use x="63.623047" xlink:href="#DejaVuSans-53"/>
      </g>
     </g>
    </g>
    <g id="xtick_7">
     <g id="line2d_7">
      <g>
       <use style="stroke:#000000;stroke-width:0.8;" x="1195.461818" xlink:href="#m8175b44cdc" y="617.0904"/>
      </g>
     </g>
     <g id="text_7">
      <!-- 30 -->
      <defs>
       <path d="M 40.578125 39.3125 
Q 47.65625 37.796875 51.625 33 
Q 55.609375 28.21875 55.609375 21.1875 
Q 55.609375 10.40625 48.1875 4.484375 
Q 40.765625 -1.421875 27.09375 -1.421875 
Q 22.515625 -1.421875 17.65625 -0.515625 
Q 12.796875 0.390625 7.625 2.203125 
L 7.625 11.71875 
Q 11.71875 9.328125 16.59375 8.109375 
Q 21.484375 6.890625 26.8125 6.890625 
Q 36.078125 6.890625 40.9375 10.546875 
Q 45.796875 14.203125 45.796875 21.1875 
Q 45.796875 27.640625 41.28125 31.265625 
Q 36.765625 34.90625 28.71875 34.90625 
L 20.21875 34.90625 
L 20.21875 43.015625 
L 29.109375 43.015625 
Q 36.375 43.015625 40.234375 45.921875 
Q 44.09375 48.828125 44.09375 54.296875 
Q 44.09375 59.90625 40.109375 62.90625 
Q 36.140625 65.921875 28.71875 65.921875 
Q 24.65625 65.921875 20.015625 65.03125 
Q 15.375 64.15625 9.8125 62.3125 
L 9.8125 71.09375 
Q 15.4375 72.65625 20.34375 73.4375 
Q 25.25 74.21875 29.59375 74.21875 
Q 40.828125 74.21875 47.359375 69.109375 
Q 53.90625 64.015625 53.90625 55.328125 
Q 53.90625 49.265625 50.4375 45.09375 
Q 46.96875 40.921875 40.578125 39.3125 
z
" id="DejaVuSans-51"/>
      </defs>
      <g transform="translate(1189.099318 631.688837)scale(0.1 -0.1)">
       <use xlink:href="#DejaVuSans-51"/>
       <use x="63.623047" xlink:href="#DejaVuSans-48"/>
      </g>
     </g>
    </g>
    <g id="text_8">
     <!-- Time [s] -->
     <defs>
      <path d="M -0.296875 72.90625 
L 61.375 72.90625 
L 61.375 64.59375 
L 35.5 64.59375 
L 35.5 0 
L 25.59375 0 
L 25.59375 64.59375 
L -0.296875 64.59375 
z
" id="DejaVuSans-84"/>
      <path d="M 9.421875 54.6875 
L 18.40625 54.6875 
L 18.40625 0 
L 9.421875 0 
z
M 9.421875 75.984375 
L 18.40625 75.984375 
L 18.40625 64.59375 
L 9.421875 64.59375 
z
" id="DejaVuSans-105"/>
      <path d="M 52 44.1875 
Q 55.375 50.25 60.0625 53.125 
Q 64.75 56 71.09375 56 
Q 79.640625 56 84.28125 50.015625 
Q 88.921875 44.046875 88.921875 33.015625 
L 88.921875 0 
L 79.890625 0 
L 79.890625 32.71875 
Q 79.890625 40.578125 77.09375 44.375 
Q 74.3125 48.1875 68.609375 48.1875 
Q 61.625 48.1875 57.5625 43.546875 
Q 53.515625 38.921875 53.515625 30.90625 
L 53.515625 0 
L 44.484375 0 
L 44.484375 32.71875 
Q 44.484375 40.625 41.703125 44.40625 
Q 38.921875 48.1875 33.109375 48.1875 
Q 26.21875 48.1875 22.15625 43.53125 
Q 18.109375 38.875 18.109375 30.90625 
L 18.109375 0 
L 9.078125 0 
L 9.078125 54.6875 
L 18.109375 54.6875 
L 18.109375 46.1875 
Q 21.1875 51.21875 25.484375 53.609375 
Q 29.78125 56 35.6875 56 
Q 41.65625 56 45.828125 52.96875 
Q 50 49.953125 52 44.1875 
z
" id="DejaVuSans-109"/>
      <path d="M 56.203125 29.59375 
L 56.203125 25.203125 
L 14.890625 25.203125 
Q 15.484375 15.921875 20.484375 11.0625 
Q 25.484375 6.203125 34.421875 6.203125 
Q 39.59375 6.203125 44.453125 7.46875 
Q 49.3125 8.734375 54.109375 11.28125 
L 54.109375 2.78125 
Q 49.265625 0.734375 44.1875 -0.34375 
Q 39.109375 -1.421875 33.890625 -1.421875 
Q 20.796875 -1.421875 13.15625 6.1875 
Q 5.515625 13.8125 5.515625 26.8125 
Q 5.515625 40.234375 12.765625 48.109375 
Q 20.015625 56 32.328125 56 
Q 43.359375 56 49.78125 48.890625 
Q 56.203125 41.796875 56.203125 29.59375 
z
M 47.21875 32.234375 
Q 47.125 39.59375 43.09375 43.984375 
Q 39.0625 48.390625 32.421875 48.390625 
Q 24.90625 48.390625 20.390625 44.140625 
Q 15.875 39.890625 15.1875 32.171875 
z
" id="DejaVuSans-101"/>
      <path id="DejaVuSans-32"/>
      <path d="M 8.59375 75.984375 
L 29.296875 75.984375 
L 29.296875 69 
L 17.578125 69 
L 17.578125 -6.203125 
L 29.296875 -6.203125 
L 29.296875 -13.1875 
L 8.59375 -13.1875 
z
" id="DejaVuSans-91"/>
      <path d="M 44.28125 53.078125 
L 44.28125 44.578125 
Q 40.484375 46.53125 36.375 47.5 
Q 32.28125 48.484375 27.875 48.484375 
Q 21.1875 48.484375 17.84375 46.4375 
Q 14.5 44.390625 14.5 40.28125 
Q 14.5 37.15625 16.890625 35.375 
Q 19.28125 33.59375 26.515625 31.984375 
L 29.59375 31.296875 
Q 39.15625 29.25 43.1875 25.515625 
Q 47.21875 21.78125 47.21875 15.09375 
Q 47.21875 7.46875 41.1875 3.015625 
Q 35.15625 -1.421875 24.609375 -1.421875 
Q 20.21875 -1.421875 15.453125 -0.5625 
Q 10.6875 0.296875 5.421875 2 
L 5.421875 11.28125 
Q 10.40625 8.6875 15.234375 7.390625 
Q 20.0625 6.109375 24.8125 6.109375 
Q 31.15625 6.109375 34.5625 8.28125 
Q 37.984375 10.453125 37.984375 14.40625 
Q 37.984375 18.0625 35.515625 20.015625 
Q 33.0625 21.96875 24.703125 23.78125 
L 21.578125 24.515625 
Q 13.234375 26.265625 9.515625 29.90625 
Q 5.8125 33.546875 5.8125 39.890625 
Q 5.8125 47.609375 11.28125 51.796875 
Q 16.75 56 26.8125 56 
Q 31.78125 56 36.171875 55.265625 
Q 40.578125 54.546875 44.28125 53.078125 
z
" id="DejaVuSans-115"/>
      <path d="M 30.421875 75.984375 
L 30.421875 -13.1875 
L 9.71875 -13.1875 
L 9.71875 -6.203125 
L 21.390625 -6.203125 
L 21.390625 69 
L 9.71875 69 
L 9.71875 75.984375 
z
" id="DejaVuSans-93"/>
     </defs>
     <g transform="translate(688.151094 645.366962)scale(0.1 -0.1)">
      <use xlink:href="#DejaVuSans-84"/>
      <use x="57.958984" xlink:href="#DejaVuSans-105"/>
      <use x="85.742188" xlink:href="#DejaVuSans-109"/>
      <use x="183.154297" xlink:href="#DejaVuSans-101"/>
      <use x="244.677734" xlink:href="#DejaVuSans-32"/>
      <use x="276.464844" xlink:href="#DejaVuSans-91"/>
      <use x="315.478516" xlink:href="#DejaVuSans-115"/>
      <use x="367.578125" xlink:href="#DejaVuSans-93"/>
     </g>
    </g>
   </g>
   <g id="matplotlib.axis_2">
    <g id="ytick_1">
     <g id="line2d_8">
      <defs>
       <path d="M 0 0 
L -3.5 0 
" id="m6f823e68a9" style="stroke:#000000;stroke-width:0.8;"/>
      </defs>
      <g>
       <use style="stroke:#000000;stroke-width:0.8;" x="172.8" xlink:href="#m6f823e68a9" y="570.840659"/>
      </g>
     </g>
     <g id="text_9">
      <!-- 0.0 -->
      <defs>
       <path d="M 10.6875 12.40625 
L 21 12.40625 
L 21 0 
L 10.6875 0 
z
" id="DejaVuSans-46"/>
      </defs>
      <g transform="translate(149.896875 574.639878)scale(0.1 -0.1)">
       <use xlink:href="#DejaVuSans-48"/>
       <use x="63.623047" xlink:href="#DejaVuSans-46"/>
       <use x="95.410156" xlink:href="#DejaVuSans-48"/>
      </g>
     </g>
    </g>
    <g id="ytick_2">
     <g id="line2d_9">
      <g>
       <use style="stroke:#000000;stroke-width:0.8;" x="172.8" xlink:href="#m6f823e68a9" y="478.166687"/>
      </g>
     </g>
     <g id="text_10">
      <!-- 0.2 -->
      <g transform="translate(149.896875 481.965906)scale(0.1 -0.1)">
       <use xlink:href="#DejaVuSans-48"/>
       <use x="63.623047" xlink:href="#DejaVuSans-46"/>
       <use x="95.410156" xlink:href="#DejaVuSans-50"/>
      </g>
     </g>
    </g>
    <g id="ytick_3">
     <g id="line2d_10">
      <g>
       <use style="stroke:#000000;stroke-width:0.8;" x="172.8" xlink:href="#m6f823e68a9" y="385.492715"/>
      </g>
     </g>
     <g id="text_11">
      <!-- 0.4 -->
      <defs>
       <path d="M 37.796875 64.3125 
L 12.890625 25.390625 
L 37.796875 25.390625 
z
M 35.203125 72.90625 
L 47.609375 72.90625 
L 47.609375 25.390625 
L 58.015625 25.390625 
L 58.015625 17.1875 
L 47.609375 17.1875 
L 47.609375 0 
L 37.796875 0 
L 37.796875 17.1875 
L 4.890625 17.1875 
L 4.890625 26.703125 
z
" id="DejaVuSans-52"/>
      </defs>
      <g transform="translate(149.896875 389.291934)scale(0.1 -0.1)">
       <use xlink:href="#DejaVuSans-48"/>
       <use x="63.623047" xlink:href="#DejaVuSans-46"/>
       <use x="95.410156" xlink:href="#DejaVuSans-52"/>
      </g>
     </g>
    </g>
    <g id="ytick_4">
     <g id="line2d_11">
      <g>
       <use style="stroke:#000000;stroke-width:0.8;" x="172.8" xlink:href="#m6f823e68a9" y="292.818744"/>
      </g>
     </g>
     <g id="text_12">
      <!-- 0.6 -->
      <defs>
       <path d="M 33.015625 40.375 
Q 26.375 40.375 22.484375 35.828125 
Q 18.609375 31.296875 18.609375 23.390625 
Q 18.609375 15.53125 22.484375 10.953125 
Q 26.375 6.390625 33.015625 6.390625 
Q 39.65625 6.390625 43.53125 10.953125 
Q 47.40625 15.53125 47.40625 23.390625 
Q 47.40625 31.296875 43.53125 35.828125 
Q 39.65625 40.375 33.015625 40.375 
z
M 52.59375 71.296875 
L 52.59375 62.3125 
Q 48.875 64.0625 45.09375 64.984375 
Q 41.3125 65.921875 37.59375 65.921875 
Q 27.828125 65.921875 22.671875 59.328125 
Q 17.53125 52.734375 16.796875 39.40625 
Q 19.671875 43.65625 24.015625 45.921875 
Q 28.375 48.1875 33.59375 48.1875 
Q 44.578125 48.1875 50.953125 41.515625 
Q 57.328125 34.859375 57.328125 23.390625 
Q 57.328125 12.15625 50.6875 5.359375 
Q 44.046875 -1.421875 33.015625 -1.421875 
Q 20.359375 -1.421875 13.671875 8.265625 
Q 6.984375 17.96875 6.984375 36.375 
Q 6.984375 53.65625 15.1875 63.9375 
Q 23.390625 74.21875 37.203125 74.21875 
Q 40.921875 74.21875 44.703125 73.484375 
Q 48.484375 72.75 52.59375 71.296875 
z
" id="DejaVuSans-54"/>
      </defs>
      <g transform="translate(149.896875 296.617962)scale(0.1 -0.1)">
       <use xlink:href="#DejaVuSans-48"/>
       <use x="63.623047" xlink:href="#DejaVuSans-46"/>
       <use x="95.410156" xlink:href="#DejaVuSans-54"/>
      </g>
     </g>
    </g>
    <g id="ytick_5">
     <g id="line2d_12">
      <g>
       <use style="stroke:#000000;stroke-width:0.8;" x="172.8" xlink:href="#m6f823e68a9" y="200.144772"/>
      </g>
     </g>
     <g id="text_13">
      <!-- 0.8 -->
      <defs>
       <path d="M 31.78125 34.625 
Q 24.75 34.625 20.71875 30.859375 
Q 16.703125 27.09375 16.703125 20.515625 
Q 16.703125 13.921875 20.71875 10.15625 
Q 24.75 6.390625 31.78125 6.390625 
Q 38.8125 6.390625 42.859375 10.171875 
Q 46.921875 13.96875 46.921875 20.515625 
Q 46.921875 27.09375 42.890625 30.859375 
Q 38.875 34.625 31.78125 34.625 
z
M 21.921875 38.8125 
Q 15.578125 40.375 12.03125 44.71875 
Q 8.5 49.078125 8.5 55.328125 
Q 8.5 64.0625 14.71875 69.140625 
Q 20.953125 74.21875 31.78125 74.21875 
Q 42.671875 74.21875 48.875 69.140625 
Q 55.078125 64.0625 55.078125 55.328125 
Q 55.078125 49.078125 51.53125 44.71875 
Q 48 40.375 41.703125 38.8125 
Q 48.828125 37.15625 52.796875 32.3125 
Q 56.78125 27.484375 56.78125 20.515625 
Q 56.78125 9.90625 50.3125 4.234375 
Q 43.84375 -1.421875 31.78125 -1.421875 
Q 19.734375 -1.421875 13.25 4.234375 
Q 6.78125 9.90625 6.78125 20.515625 
Q 6.78125 27.484375 10.78125 32.3125 
Q 14.796875 37.15625 21.921875 38.8125 
z
M 18.3125 54.390625 
Q 18.3125 48.734375 21.84375 45.5625 
Q 25.390625 42.390625 31.78125 42.390625 
Q 38.140625 42.390625 41.71875 45.5625 
Q 45.3125 48.734375 45.3125 54.390625 
Q 45.3125 60.0625 41.71875 63.234375 
Q 38.140625 66.40625 31.78125 66.40625 
Q 25.390625 66.40625 21.84375 63.234375 
Q 18.3125 60.0625 18.3125 54.390625 
z
" id="DejaVuSans-56"/>
      </defs>
      <g transform="translate(149.896875 203.943991)scale(0.1 -0.1)">
       <use xlink:href="#DejaVuSans-48"/>
       <use x="63.623047" xlink:href="#DejaVuSans-46"/>
       <use x="95.410156" xlink:href="#DejaVuSans-56"/>
      </g>
     </g>
    </g>
    <g id="ytick_6">
     <g id="line2d_13">
      <g>
       <use style="stroke:#000000;stroke-width:0.8;" x="172.8" xlink:href="#m6f823e68a9" y="107.4708"/>
      </g>
     </g>
     <g id="text_14">
      <!-- 1.0 -->
      <g transform="translate(149.896875 111.270019)scale(0.1 -0.1)">
       <use xlink:href="#DejaVuSans-49"/>
       <use x="63.623047" xlink:href="#DejaVuSans-46"/>
       <use x="95.410156" xlink:href="#DejaVuSans-48"/>
      </g>
     </g>
    </g>
    <g id="text_15">
     <!-- Jump -->
     <defs>
      <path d="M 9.8125 72.90625 
L 19.671875 72.90625 
L 19.671875 5.078125 
Q 19.671875 -8.109375 14.671875 -14.0625 
Q 9.671875 -20.015625 -1.421875 -20.015625 
L -5.171875 -20.015625 
L -5.171875 -11.71875 
L -2.09375 -11.71875 
Q 4.4375 -11.71875 7.125 -8.046875 
Q 9.8125 -4.390625 9.8125 5.078125 
z
" id="DejaVuSans-74"/>
      <path d="M 8.5 21.578125 
L 8.5 54.6875 
L 17.484375 54.6875 
L 17.484375 21.921875 
Q 17.484375 14.15625 20.5 10.265625 
Q 23.53125 6.390625 29.59375 6.390625 
Q 36.859375 6.390625 41.078125 11.03125 
Q 45.3125 15.671875 45.3125 23.6875 
L 45.3125 54.6875 
L 54.296875 54.6875 
L 54.296875 0 
L 45.3125 0 
L 45.3125 8.40625 
Q 42.046875 3.421875 37.71875 1 
Q 33.40625 -1.421875 27.6875 -1.421875 
Q 18.265625 -1.421875 13.375 4.4375 
Q 8.5 10.296875 8.5 21.578125 
z
M 31.109375 56 
z
" id="DejaVuSans-117"/>
      <path d="M 18.109375 8.203125 
L 18.109375 -20.796875 
L 9.078125 -20.796875 
L 9.078125 54.6875 
L 18.109375 54.6875 
L 18.109375 46.390625 
Q 20.953125 51.265625 25.265625 53.625 
Q 29.59375 56 35.59375 56 
Q 45.5625 56 51.78125 48.09375 
Q 58.015625 40.1875 58.015625 27.296875 
Q 58.015625 14.40625 51.78125 6.484375 
Q 45.5625 -1.421875 35.59375 -1.421875 
Q 29.59375 -1.421875 25.265625 0.953125 
Q 20.953125 3.328125 18.109375 8.203125 
z
M 48.6875 27.296875 
Q 48.6875 37.203125 44.609375 42.84375 
Q 40.53125 48.484375 33.40625 48.484375 
Q 26.265625 48.484375 22.1875 42.84375 
Q 18.109375 37.203125 18.109375 27.296875 
Q 18.109375 17.390625 22.1875 11.75 
Q 26.265625 6.109375 33.40625 6.109375 
Q 40.53125 6.109375 44.609375 11.75 
Q 48.6875 17.390625 48.6875 27.296875 
z
" id="DejaVuSans-112"/>
     </defs>
     <g transform="translate(143.817187 362.835081)rotate(-90)scale(0.1 -0.1)">
      <use xlink:href="#DejaVuSans-74"/>
      <use x="29.492188" xlink:href="#DejaVuSans-117"/>
      <use x="92.871094" xlink:href="#DejaVuSans-109"/>
      <use x="190.283203" xlink:href="#DejaVuSans-112"/>
     </g>
    </g>
   </g>
   <g id="line2d_14">
    <path clip-path="url(#p4f9b210f4f)" d="M 221.498182 570.840659 
L 441.005846 570.840659 
L 442.631829 107.4708 
L 444.257812 570.840659 
L 476.777465 570.840659 
L 478.403448 107.4708 
L 480.029431 570.840659 
L 514.175068 570.840659 
L 515.80105 107.4708 
L 517.427033 570.840659 
L 543.442756 570.840659 
L 545.068739 107.4708 
L 546.694722 570.840659 
L 564.580531 570.840659 
L 566.206514 107.4708 
L 567.832497 570.840659 
L 590.596254 570.840659 
L 592.222237 107.4708 
L 593.84822 570.840659 
L 613.360012 570.840659 
L 614.985995 107.4708 
L 616.611978 570.840659 
L 641.001718 570.840659 
L 642.627701 107.4708 
L 644.253683 570.840659 
L 675.147355 570.840659 
L 676.773337 107.4708 
L 678.39932 570.840659 
L 702.789061 570.840659 
L 704.415043 107.4708 
L 706.041026 570.840659 
L 749.942559 570.840659 
L 751.568542 107.4708 
L 753.194524 570.840659 
L 779.210247 570.840659 
L 780.83623 107.4708 
L 782.462213 570.840659 
L 819.859815 570.840659 
L 821.485798 107.4708 
L 823.11178 570.840659 
L 844.249555 570.840659 
L 845.875538 107.4708 
L 847.501521 570.840659 
L 860.509382 570.840659 
L 862.135365 107.4708 
L 863.761348 570.840659 
L 883.27314 570.840659 
L 884.899123 107.4708 
L 886.525105 570.840659 
L 936.930569 570.840659 
L 938.556552 107.4708 
L 940.182535 570.840659 
L 966.198258 570.840659 
L 967.82424 107.4708 
L 969.450223 570.840659 
L 1003.59586 570.840659 
L 1005.221842 107.4708 
L 1006.847825 570.840659 
L 1032.863548 570.840659 
L 1034.489531 107.4708 
L 1036.115514 570.840659 
L 1058.879272 570.840659 
L 1060.505254 107.4708 
L 1062.131237 570.840659 
L 1107.658752 570.840659 
L 1109.284735 107.4708 
L 1110.910718 570.840659 
L 1133.674476 570.840659 
L 1135.300458 107.4708 
L 1136.926441 570.840659 
L 1184.079939 570.840659 
L 1185.705922 107.4708 
L 1187.331905 570.840659 
L 1195.461818 570.840659 
L 1195.461818 570.840659 
" style="fill:none;stroke:#1f77b4;stroke-linecap:square;stroke-width:1.5;"/>
   </g>
   <g id="line2d_15">
    <path clip-path="url(#p4f9b210f4f)" d="M 221.498182 468.963062 
L 226.37613 482.229113 
L 231.254078 494.576483 
L 234.506043 502.303354 
L 236.132026 506.017177 
L 237.758009 509.179027 
L 239.383992 513.169413 
L 241.009974 516.135715 
L 242.635957 519.932331 
L 244.26194 523.159947 
L 245.887922 525.840168 
L 247.513905 529.353766 
L 249.139888 531.848373 
L 250.76587 534.725428 
L 252.391853 537.96554 
L 254.017836 540.643421 
L 255.643818 542.780916 
L 257.269801 545.759013 
L 262.147749 553.177674 
L 263.773732 554.92576 
L 267.025697 559.03881 
L 270.277663 562.846797 
L 271.903645 564.186804 
L 273.529628 566.3814 
L 275.155611 568.031761 
L 276.781594 569.159938 
L 278.407576 571.147107 
L 281.659542 573.977224 
L 284.911507 576.554921 
L 286.53749 577.752779 
L 288.163472 578.438729 
L 289.789455 579.993928 
L 291.415438 580.566339 
L 293.041421 582.010877 
L 296.293386 583.794941 
L 299.545351 585.37843 
L 302.797317 586.772415 
L 304.423299 587.401742 
L 306.049282 588.395613 
L 307.675265 588.513614 
L 310.92723 589.481559 
L 312.553213 589.907653 
L 314.179196 590.704702 
L 315.805178 590.632203 
L 317.431161 591.359494 
L 319.057144 591.219635 
L 320.683126 591.881927 
L 322.309109 592.087261 
L 323.935092 591.855292 
L 325.561075 592.020989 
L 327.187057 592.566915 
L 328.81304 592.252405 
L 330.439023 592.746637 
L 332.065005 592.790377 
L 333.690988 592.403157 
L 335.316971 592.419819 
L 336.942953 592.8228 
L 340.194919 592.71628 
L 341.820902 592.227123 
L 343.446884 592.146447 
L 345.072867 592.456583 
L 346.69885 592.324507 
L 348.324832 591.769557 
L 349.950815 592.034262 
L 351.576798 591.859135 
L 353.20278 591.263456 
L 354.828763 591.489689 
L 356.454746 590.870414 
L 358.080728 591.074457 
L 359.706711 590.84223 
L 361.332694 590.192913 
L 362.958677 590.368871 
L 364.584659 589.702589 
L 367.836625 589.200043 
L 369.462607 589.346391 
L 375.966538 588.174373 
L 377.592521 587.463026 
L 379.218504 587.174412 
L 380.844486 587.290444 
L 385.722434 586.346586 
L 387.348417 585.621142 
L 388.9744 585.728694 
L 390.600382 585.001457 
L 392.226365 585.107892 
L 393.852348 584.380185 
L 395.478331 584.486771 
L 397.104313 583.759807 
L 398.730296 583.867704 
L 400.356279 583.550464 
L 401.982261 582.826866 
L 403.608244 582.938882 
L 405.234227 582.626479 
L 406.860209 581.9084 
L 408.486192 582.026582 
L 410.112175 581.720958 
L 411.738158 581.010237 
L 413.36414 581.136323 
L 418.242088 580.254641 
L 419.868071 579.559765 
L 421.494054 579.702409 
L 432.875933 577.82718 
L 434.501915 577.168271 
L 436.127898 576.939755 
L 437.753881 577.123152 
L 439.379863 576.476771 
L 441.005846 576.260905 
L 442.631829 560.550014 
L 444.257812 554.822077 
L 445.883794 575.054457 
L 447.509777 577.137123 
L 449.13576 576.902586 
L 450.761742 577.08026 
L 452.387725 576.428446 
L 454.013708 576.615303 
L 455.63969 575.972722 
L 460.517638 575.350845 
L 462.143621 575.560339 
L 463.769604 575.348303 
L 465.395587 574.733255 
L 468.647552 574.369256 
L 470.273535 574.601747 
L 475.151483 574.048682 
L 476.777465 573.465909 
L 478.403448 560.443137 
L 480.029431 551.576413 
L 481.655414 570.576956 
L 483.281396 574.114142 
L 484.907379 574.412783 
L 489.785327 573.912277 
L 491.41131 574.161551 
L 499.541223 573.342663 
L 501.167206 572.784119 
L 502.793189 573.063712 
L 504.419171 572.921138 
L 506.045154 572.374878 
L 507.671137 572.666616 
L 509.297119 572.12817 
L 510.923102 572.019748 
L 512.549085 572.322771 
L 514.175068 571.342261 
L 515.80105 539.813395 
L 517.427033 551.332655 
L 519.053016 573.428163 
L 520.678998 573.759683 
L 522.304981 573.62079 
L 523.930964 573.893121 
L 525.556946 573.334928 
L 527.182929 573.614324 
L 532.060877 573.19548 
L 533.68686 572.655295 
L 535.312843 572.952574 
L 541.816773 572.471457 
L 543.442756 568.824936 
L 545.068739 560.897505 
L 546.694722 572.403481 
L 548.320704 572.304847 
L 549.946687 572.616958 
L 551.57267 572.098049 
L 553.198652 572.416216 
L 554.824635 571.903293 
L 558.0766 571.738407 
L 559.702583 572.067841 
L 562.954548 571.882957 
L 564.580531 571.38708 
L 566.206514 557.588371 
L 567.832497 535.0662 
L 569.458479 571.656304 
L 571.084462 573.391607 
L 572.710445 573.281606 
L 574.336427 573.5819 
L 575.96241 573.050756 
L 579.214375 572.848511 
L 580.840358 573.15887 
L 582.466341 572.637761 
L 585.718306 572.455466 
L 587.344289 572.775725 
L 588.970272 572.672328 
L 590.596254 572.163783 
L 592.222237 549.016447 
L 593.84822 544.207787 
L 595.474202 573.759123 
L 597.100185 574.107106 
L 600.352151 573.862476 
L 601.978133 574.151545 
L 603.604116 574.016987 
L 605.230099 573.477336 
L 606.856081 573.774331 
L 611.734029 573.402865 
L 613.360012 567.98227 
L 614.985995 552.603116 
L 616.611978 561.385089 
L 618.23796 573.782735 
L 619.863943 574.127828 
L 621.489926 574.001562 
L 623.115908 574.285603 
L 626.367874 574.009479 
L 627.993856 573.467856 
L 629.619839 573.355101 
L 631.245822 573.652691 
L 632.871805 573.118892 
L 634.497787 573.42183 
L 637.749753 573.18352 
L 639.375735 572.660777 
L 641.001718 572.974734 
L 642.627701 564.934255 
L 644.253683 550.994756 
L 645.879666 566.049864 
L 647.505649 573.340389 
L 649.131632 573.695149 
L 652.383597 573.46437 
L 654.00958 573.760493 
L 655.635562 573.633059 
L 657.261545 573.100593 
L 662.139493 572.796928 
L 663.765476 573.1084 
L 668.643424 572.780389 
L 670.269407 572.268716 
L 671.895389 572.185768 
L 673.521372 572.512998 
L 675.147355 572.008651 
L 676.773337 559.062305 
L 678.39932 535.224039 
L 680.025303 572.231885 
L 681.651285 573.958353 
L 683.277268 573.839354 
L 684.903251 574.130502 
L 686.529234 573.997953 
L 688.155216 573.460242 
L 689.781199 573.75911 
L 693.033164 573.512222 
L 694.659147 572.984993 
L 701.163078 572.604717 
L 702.789061 571.155792 
L 704.415043 552.548211 
L 706.041026 552.894406 
L 707.667009 558.998425 
L 709.292991 573.27805 
L 710.918974 574.109587 
L 712.544957 574.448648 
L 715.796922 574.186354 
L 717.422905 574.466694 
L 719.048888 573.915608 
L 720.67487 573.793369 
L 722.300853 574.081464 
L 723.926836 573.538168 
L 728.804784 573.202335 
L 730.430766 573.503217 
L 732.056749 573.380585 
L 733.682732 572.852955 
L 735.308715 573.162053 
L 736.934697 572.639735 
L 738.56068 572.954119 
L 740.186663 572.437058 
L 743.438628 572.262908 
L 745.064611 572.587254 
L 746.690593 572.080077 
L 748.316576 572.409484 
L 749.942559 570.139869 
L 751.568542 536.472683 
L 754.820507 573.640438 
L 756.44649 573.538436 
L 758.072472 573.891453 
L 767.828368 573.21564 
L 769.454351 573.519071 
L 771.080334 572.990988 
L 777.584265 572.607602 
L 779.210247 571.611165 
L 780.83623 552.52959 
L 782.462213 553.328787 
L 784.088195 561.633155 
L 785.714178 573.573708 
L 787.340161 574.388151 
L 788.966144 574.257401 
L 790.592126 573.675842 
L 792.218109 574.023196 
L 793.844092 573.446003 
L 795.470074 573.797757 
L 800.348022 573.446405 
L 801.974005 573.742087 
L 803.599988 573.206376 
L 805.225971 573.507402 
L 806.851953 572.97703 
L 819.859815 572.232655 
L 821.485798 565.488385 
L 823.11178 532.032044 
L 824.737763 571.399167 
L 826.363746 574.068956 
L 842.623573 572.944459 
L 844.249555 572.391967 
L 845.875538 556.362809 
L 847.501521 572.495572 
L 849.127503 573.333039 
L 855.631434 572.916464 
L 857.257417 573.226121 
L 858.8834 573.112149 
L 860.509382 570.372421 
L 862.135365 532.720423 
L 863.761348 567.62032 
L 865.38733 573.996797 
L 867.013313 574.337652 
L 868.639296 573.753938 
L 870.265278 574.099157 
L 881.647157 573.268249 
L 883.27314 572.706297 
L 884.899123 541.168615 
L 886.525105 538.493219 
L 888.151088 552.778713 
L 889.777071 533.287323 
L 891.403054 576.222508 
L 893.029036 577.859401 
L 894.655019 577.650952 
L 896.281002 577.898177 
L 902.784932 577.023087 
L 904.410915 577.220336 
L 906.036898 576.994985 
L 907.662881 576.365611 
L 910.914846 575.970157 
L 912.540829 576.185628 
L 914.166811 575.570833 
L 915.792794 575.793929 
L 917.418777 575.186804 
L 922.296725 574.66661 
L 923.922708 574.90844 
L 925.54869 574.320091 
L 927.174673 574.56969 
L 933.678604 573.903189 
L 935.304586 573.338785 
L 936.930569 570.077339 
L 938.556552 551.957667 
L 940.182535 566.910739 
L 941.808517 573.740277 
L 943.4345 574.061564 
L 953.190396 573.220052 
L 954.816379 573.49976 
L 956.442362 572.949003 
L 958.068344 572.828012 
L 959.694327 573.118232 
L 961.32031 572.5779 
L 962.946292 572.875111 
L 964.572275 572.3417 
L 966.198258 568.702989 
L 967.82424 551.039516 
L 969.450223 566.928364 
L 971.076206 573.293428 
L 974.328171 573.051354 
L 975.954154 573.342786 
L 977.580137 572.803394 
L 979.206119 572.693416 
L 980.832102 572.994301 
L 988.962015 572.416742 
L 990.587998 571.903132 
L 992.213981 571.818684 
L 993.839964 572.144834 
L 995.465946 571.639809 
L 997.091929 571.9717 
L 1003.59586 571.623382 
L 1005.221842 560.938813 
L 1006.847825 538.310543 
L 1008.473808 572.937938 
L 1010.099791 572.839888 
L 1011.725773 573.15204 
L 1023.107652 572.428062 
L 1024.733635 571.927379 
L 1026.359618 571.855274 
L 1027.9856 572.193194 
L 1029.611583 572.107255 
L 1031.237566 571.615954 
L 1032.863548 571.553123 
L 1034.489531 561.29551 
L 1036.115514 549.272126 
L 1037.741496 571.056239 
L 1039.367479 572.814312 
L 1040.993462 573.134522 
L 1044.245427 572.929339 
L 1045.87141 572.422461 
L 1047.497393 572.751824 
L 1054.001323 572.387268 
L 1055.627306 571.894081 
L 1057.253289 571.829178 
L 1058.879272 570.406563 
L 1060.505254 532.745483 
L 1062.131237 538.405774 
L 1063.75722 542.084006 
L 1065.383202 557.594462 
L 1067.009185 576.431922 
L 1068.635168 576.272559 
L 1070.26115 576.568069 
L 1071.887133 576.39202 
L 1073.513116 576.626133 
L 1075.139098 576.028744 
L 1076.765081 575.860175 
L 1078.391064 576.101958 
L 1080.017047 575.512411 
L 1088.14696 574.736143 
L 1089.772943 574.996898 
L 1091.398925 574.834439 
L 1093.024908 574.267311 
L 1094.650891 574.53726 
L 1101.154822 573.943813 
L 1102.780804 573.395678 
L 1107.658752 573.04737 
L 1109.284735 556.531312 
L 1110.910718 554.070479 
L 1112.536701 573.395333 
L 1117.414649 574.36109 
L 1119.040631 573.803832 
L 1120.666614 574.083671 
L 1122.292597 573.940348 
L 1123.918579 573.392386 
L 1132.048493 572.826656 
L 1133.674476 570.501199 
L 1135.300458 533.290667 
L 1136.926441 539.789278 
L 1138.552424 540.733173 
L 1140.178406 561.197703 
L 1141.804389 577.202214 
L 1143.430372 577.459265 
L 1156.438233 575.83996 
L 1169.446095 574.440562 
L 1179.201991 573.540877 
L 1180.827974 573.811215 
L 1182.453957 573.659068 
L 1184.079939 572.196553 
L 1185.705922 534.450259 
L 1187.331905 570.164671 
L 1188.957887 574.643986 
L 1195.461818 574.023666 
L 1195.461818 574.023666 
" style="fill:none;stroke:#ff7f0e;stroke-linecap:square;stroke-width:1.5;"/>
   </g>
   <g id="patch_3">
    <path d="M 172.8 617.0904 
L 172.8 83.2032 
" style="fill:none;stroke:#000000;stroke-linecap:square;stroke-linejoin:miter;stroke-width:0.8;"/>
   </g>
   <g id="patch_4">
    <path d="M 1244.16 617.0904 
L 1244.16 83.2032 
" style="fill:none;stroke:#000000;stroke-linecap:square;stroke-linejoin:miter;stroke-width:0.8;"/>
   </g>
   <g id="patch_5">
    <path d="M 172.8 617.0904 
L 1244.16 617.0904 
" style="fill:none;stroke:#000000;stroke-linecap:square;stroke-linejoin:miter;stroke-width:0.8;"/>
   </g>
   <g id="patch_6">
    <path d="M 172.8 83.2032 
L 1244.16 83.2032 
" style="fill:none;stroke:#000000;stroke-linecap:square;stroke-linejoin:miter;stroke-width:0.8;"/>
   </g>
   <g id="text_16">
    <!-- Jumps against time -->
    <defs>
     <path d="M 34.28125 27.484375 
Q 23.390625 27.484375 19.1875 25 
Q 14.984375 22.515625 14.984375 16.5 
Q 14.984375 11.71875 18.140625 8.90625 
Q 21.296875 6.109375 26.703125 6.109375 
Q 34.1875 6.109375 38.703125 11.40625 
Q 43.21875 16.703125 43.21875 25.484375 
L 43.21875 27.484375 
z
M 52.203125 31.203125 
L 52.203125 0 
L 43.21875 0 
L 43.21875 8.296875 
Q 40.140625 3.328125 35.546875 0.953125 
Q 30.953125 -1.421875 24.3125 -1.421875 
Q 15.921875 -1.421875 10.953125 3.296875 
Q 6 8.015625 6 15.921875 
Q 6 25.140625 12.171875 29.828125 
Q 18.359375 34.515625 30.609375 34.515625 
L 43.21875 34.515625 
L 43.21875 35.40625 
Q 43.21875 41.609375 39.140625 45 
Q 35.0625 48.390625 27.6875 48.390625 
Q 23 48.390625 18.546875 47.265625 
Q 14.109375 46.140625 10.015625 43.890625 
L 10.015625 52.203125 
Q 14.9375 54.109375 19.578125 55.046875 
Q 24.21875 56 28.609375 56 
Q 40.484375 56 46.34375 49.84375 
Q 52.203125 43.703125 52.203125 31.203125 
z
" id="DejaVuSans-97"/>
     <path d="M 45.40625 27.984375 
Q 45.40625 37.75 41.375 43.109375 
Q 37.359375 48.484375 30.078125 48.484375 
Q 22.859375 48.484375 18.828125 43.109375 
Q 14.796875 37.75 14.796875 27.984375 
Q 14.796875 18.265625 18.828125 12.890625 
Q 22.859375 7.515625 30.078125 7.515625 
Q 37.359375 7.515625 41.375 12.890625 
Q 45.40625 18.265625 45.40625 27.984375 
z
M 54.390625 6.78125 
Q 54.390625 -7.171875 48.1875 -13.984375 
Q 42 -20.796875 29.203125 -20.796875 
Q 24.46875 -20.796875 20.265625 -20.09375 
Q 16.0625 -19.390625 12.109375 -17.921875 
L 12.109375 -9.1875 
Q 16.0625 -11.328125 19.921875 -12.34375 
Q 23.78125 -13.375 27.78125 -13.375 
Q 36.625 -13.375 41.015625 -8.765625 
Q 45.40625 -4.15625 45.40625 5.171875 
L 45.40625 9.625 
Q 42.625 4.78125 38.28125 2.390625 
Q 33.9375 0 27.875 0 
Q 17.828125 0 11.671875 7.65625 
Q 5.515625 15.328125 5.515625 27.984375 
Q 5.515625 40.671875 11.671875 48.328125 
Q 17.828125 56 27.875 56 
Q 33.9375 56 38.28125 53.609375 
Q 42.625 51.21875 45.40625 46.390625 
L 45.40625 54.6875 
L 54.390625 54.6875 
z
" id="DejaVuSans-103"/>
     <path d="M 54.890625 33.015625 
L 54.890625 0 
L 45.90625 0 
L 45.90625 32.71875 
Q 45.90625 40.484375 42.875 44.328125 
Q 39.84375 48.1875 33.796875 48.1875 
Q 26.515625 48.1875 22.3125 43.546875 
Q 18.109375 38.921875 18.109375 30.90625 
L 18.109375 0 
L 9.078125 0 
L 9.078125 54.6875 
L 18.109375 54.6875 
L 18.109375 46.1875 
Q 21.34375 51.125 25.703125 53.5625 
Q 30.078125 56 35.796875 56 
Q 45.21875 56 50.046875 50.171875 
Q 54.890625 44.34375 54.890625 33.015625 
z
" id="DejaVuSans-110"/>
     <path d="M 18.3125 70.21875 
L 18.3125 54.6875 
L 36.8125 54.6875 
L 36.8125 47.703125 
L 18.3125 47.703125 
L 18.3125 18.015625 
Q 18.3125 11.328125 20.140625 9.421875 
Q 21.96875 7.515625 27.59375 7.515625 
L 36.8125 7.515625 
L 36.8125 0 
L 27.59375 0 
Q 17.1875 0 13.234375 3.875 
Q 9.28125 7.765625 9.28125 18.015625 
L 9.28125 47.703125 
L 2.6875 47.703125 
L 2.6875 54.6875 
L 9.28125 54.6875 
L 9.28125 70.21875 
z
" id="DejaVuSans-116"/>
    </defs>
    <g transform="translate(650.649375 77.2032)scale(0.12 -0.12)">
     <use xlink:href="#DejaVuSans-74"/>
     <use x="29.492188" xlink:href="#DejaVuSans-117"/>
     <use x="92.871094" xlink:href="#DejaVuSans-109"/>
     <use x="190.283203" xlink:href="#DejaVuSans-112"/>
     <use x="253.759766" xlink:href="#DejaVuSans-115"/>
     <use x="305.859375" xlink:href="#DejaVuSans-32"/>
     <use x="337.646484" xlink:href="#DejaVuSans-97"/>
     <use x="398.925781" xlink:href="#DejaVuSans-103"/>
     <use x="462.402344" xlink:href="#DejaVuSans-97"/>
     <use x="523.681641" xlink:href="#DejaVuSans-105"/>
     <use x="551.464844" xlink:href="#DejaVuSans-110"/>
     <use x="614.84375" xlink:href="#DejaVuSans-115"/>
     <use x="666.943359" xlink:href="#DejaVuSans-116"/>
     <use x="706.152344" xlink:href="#DejaVuSans-32"/>
     <use x="737.939453" xlink:href="#DejaVuSans-116"/>
     <use x="777.148438" xlink:href="#DejaVuSans-105"/>
     <use x="804.931641" xlink:href="#DejaVuSans-109"/>
     <use x="902.34375" xlink:href="#DejaVuSans-101"/>
    </g>
   </g>
  </g>
 </g>
 <defs>
  <clipPath id="p4f9b210f4f">
   <rect height="533.8872" width="1071.36" x="172.8" y="83.2032"/>
  </clipPath>
 </defs>
</svg>
