<?xml version="1.0" encoding="utf-8" standalone="no"?>
<!DOCTYPE svg PUBLIC "-//W3C//DTD SVG 1.1//EN"
  "http://www.w3.org/Graphics/SVG/1.1/DTD/svg11.dtd">
<!-- Created with matplotlib (https://matplotlib.org/) -->
<svg height="722.16pt" version="1.1" viewBox="0 0 1329.12 722.16" width="1329.12pt" xmlns="http://www.w3.org/2000/svg" xmlns:xlink="http://www.w3.org/1999/xlink">
 <defs>
  <style type="text/css">
*{stroke-linecap:butt;stroke-linejoin:round;}
  </style>
 </defs>
 <g id="figure_1">
  <g id="patch_1">
   <path d="M 0 722.16 
L 1329.12 722.16 
L 1329.12 0 
L 0 0 
z
" style="fill:#ffffff;"/>
  </g>
  <g id="axes_1">
   <g id="patch_2">
    <path d="M 166.14 642.7224 
L 1196.208 642.7224 
L 1196.208 86.6592 
L 166.14 86.6592 
z
" style="fill:#ffffff;"/>
   </g>
   <g id="matplotlib.axis_1">
    <g id="xtick_1">
     <g id="line2d_1">
      <defs>
       <path d="M 0 0 
L 0 3.5 
" id="m899b142e55" style="stroke:#000000;stroke-width:0.8;"/>
      </defs>
      <g>
       <use style="stroke:#000000;stroke-width:0.8;" x="186.337412" xlink:href="#m899b142e55" y="642.7224"/>
      </g>
     </g>
     <g id="text_1">
      <!-- 0 -->
      <defs>
       <path d="M 31.78125 66.40625 
Q 24.171875 66.40625 20.328125 58.90625 
Q 16.5 51.421875 16.5 36.375 
Q 16.5 21.390625 20.328125 13.890625 
Q 24.171875 6.390625 31.78125 6.390625 
Q 39.453125 6.390625 43.28125 13.890625 
Q 47.125 21.390625 47.125 36.375 
Q 47.125 51.421875 43.28125 58.90625 
Q 39.453125 66.40625 31.78125 66.40625 
z
M 31.78125 74.21875 
Q 44.046875 74.21875 50.515625 64.515625 
Q 56.984375 54.828125 56.984375 36.375 
Q 56.984375 17.96875 50.515625 8.265625 
Q 44.046875 -1.421875 31.78125 -1.421875 
Q 19.53125 -1.421875 13.0625 8.265625 
Q 6.59375 17.96875 6.59375 36.375 
Q 6.59375 54.828125 13.0625 64.515625 
Q 19.53125 74.21875 31.78125 74.21875 
z
" id="DejaVuSans-48"/>
      </defs>
      <g transform="translate(183.156162 657.320837)scale(0.1 -0.1)">
       <use xlink:href="#DejaVuSans-48"/>
      </g>
     </g>
    </g>
    <g id="xtick_2">
     <g id="line2d_2">
      <g>
       <use style="stroke:#000000;stroke-width:0.8;" x="388.311529" xlink:href="#m899b142e55" y="642.7224"/>
      </g>
     </g>
     <g id="text_2">
      <!-- 10 -->
      <defs>
       <path d="M 12.40625 8.296875 
L 28.515625 8.296875 
L 28.515625 63.921875 
L 10.984375 60.40625 
L 10.984375 69.390625 
L 28.421875 72.90625 
L 38.28125 72.90625 
L 38.28125 8.296875 
L 54.390625 8.296875 
L 54.390625 0 
L 12.40625 0 
z
" id="DejaVuSans-49"/>
      </defs>
      <g transform="translate(381.949029 657.320837)scale(0.1 -0.1)">
       <use xlink:href="#DejaVuSans-49"/>
       <use x="63.623047" xlink:href="#DejaVuSans-48"/>
      </g>
     </g>
    </g>
    <g id="xtick_3">
     <g id="line2d_3">
      <g>
       <use style="stroke:#000000;stroke-width:0.8;" x="590.285647" xlink:href="#m899b142e55" y="642.7224"/>
      </g>
     </g>
     <g id="text_3">
      <!-- 20 -->
      <defs>
       <path d="M 19.1875 8.296875 
L 53.609375 8.296875 
L 53.609375 0 
L 7.328125 0 
L 7.328125 8.296875 
Q 12.9375 14.109375 22.625 23.890625 
Q 32.328125 33.6875 34.8125 36.53125 
Q 39.546875 41.84375 41.421875 45.53125 
Q 43.3125 49.21875 43.3125 52.78125 
Q 43.3125 58.59375 39.234375 62.25 
Q 35.15625 65.921875 28.609375 65.921875 
Q 23.96875 65.921875 18.8125 64.3125 
Q 13.671875 62.703125 7.8125 59.421875 
L 7.8125 69.390625 
Q 13.765625 71.78125 18.9375 73 
Q 24.125 74.21875 28.421875 74.21875 
Q 39.75 74.21875 46.484375 68.546875 
Q 53.21875 62.890625 53.21875 53.421875 
Q 53.21875 48.921875 51.53125 44.890625 
Q 49.859375 40.875 45.40625 35.40625 
Q 44.1875 33.984375 37.640625 27.21875 
Q 31.109375 20.453125 19.1875 8.296875 
z
" id="DejaVuSans-50"/>
      </defs>
      <g transform="translate(583.923147 657.320837)scale(0.1 -0.1)">
       <use xlink:href="#DejaVuSans-50"/>
       <use x="63.623047" xlink:href="#DejaVuSans-48"/>
      </g>
     </g>
    </g>
    <g id="xtick_4">
     <g id="line2d_4">
      <g>
       <use style="stroke:#000000;stroke-width:0.8;" x="792.259765" xlink:href="#m899b142e55" y="642.7224"/>
      </g>
     </g>
     <g id="text_4">
      <!-- 30 -->
      <defs>
       <path d="M 40.578125 39.3125 
Q 47.65625 37.796875 51.625 33 
Q 55.609375 28.21875 55.609375 21.1875 
Q 55.609375 10.40625 48.1875 4.484375 
Q 40.765625 -1.421875 27.09375 -1.421875 
Q 22.515625 -1.421875 17.65625 -0.515625 
Q 12.796875 0.390625 7.625 2.203125 
L 7.625 11.71875 
Q 11.71875 9.328125 16.59375 8.109375 
Q 21.484375 6.890625 26.8125 6.890625 
Q 36.078125 6.890625 40.9375 10.546875 
Q 45.796875 14.203125 45.796875 21.1875 
Q 45.796875 27.640625 41.28125 31.265625 
Q 36.765625 34.90625 28.71875 34.90625 
L 20.21875 34.90625 
L 20.21875 43.015625 
L 29.109375 43.015625 
Q 36.375 43.015625 40.234375 45.921875 
Q 44.09375 48.828125 44.09375 54.296875 
Q 44.09375 59.90625 40.109375 62.90625 
Q 36.140625 65.921875 28.71875 65.921875 
Q 24.65625 65.921875 20.015625 65.03125 
Q 15.375 64.15625 9.8125 62.3125 
L 9.8125 71.09375 
Q 15.4375 72.65625 20.34375 73.4375 
Q 25.25 74.21875 29.59375 74.21875 
Q 40.828125 74.21875 47.359375 69.109375 
Q 53.90625 64.015625 53.90625 55.328125 
Q 53.90625 49.265625 50.4375 45.09375 
Q 46.96875 40.921875 40.578125 39.3125 
z
" id="DejaVuSans-51"/>
      </defs>
      <g transform="translate(785.897265 657.320837)scale(0.1 -0.1)">
       <use xlink:href="#DejaVuSans-51"/>
       <use x="63.623047" xlink:href="#DejaVuSans-48"/>
      </g>
     </g>
    </g>
    <g id="xtick_5">
     <g id="line2d_5">
      <g>
       <use style="stroke:#000000;stroke-width:0.8;" x="994.233882" xlink:href="#m899b142e55" y="642.7224"/>
      </g>
     </g>
     <g id="text_5">
      <!-- 40 -->
      <defs>
       <path d="M 37.796875 64.3125 
L 12.890625 25.390625 
L 37.796875 25.390625 
z
M 35.203125 72.90625 
L 47.609375 72.90625 
L 47.609375 25.390625 
L 58.015625 25.390625 
L 58.015625 17.1875 
L 47.609375 17.1875 
L 47.609375 0 
L 37.796875 0 
L 37.796875 17.1875 
L 4.890625 17.1875 
L 4.890625 26.703125 
z
" id="DejaVuSans-52"/>
      </defs>
      <g transform="translate(987.871382 657.320837)scale(0.1 -0.1)">
       <use xlink:href="#DejaVuSans-52"/>
       <use x="63.623047" xlink:href="#DejaVuSans-48"/>
      </g>
     </g>
    </g>
    <g id="xtick_6">
     <g id="line2d_6">
      <g>
       <use style="stroke:#000000;stroke-width:0.8;" x="1196.208" xlink:href="#m899b142e55" y="642.7224"/>
      </g>
     </g>
     <g id="text_6">
      <!-- 50 -->
      <defs>
       <path d="M 10.796875 72.90625 
L 49.515625 72.90625 
L 49.515625 64.59375 
L 19.828125 64.59375 
L 19.828125 46.734375 
Q 21.96875 47.46875 24.109375 47.828125 
Q 26.265625 48.1875 28.421875 48.1875 
Q 40.625 48.1875 47.75 41.5 
Q 54.890625 34.8125 54.890625 23.390625 
Q 54.890625 11.625 47.5625 5.09375 
Q 40.234375 -1.421875 26.90625 -1.421875 
Q 22.3125 -1.421875 17.546875 -0.640625 
Q 12.796875 0.140625 7.71875 1.703125 
L 7.71875 11.625 
Q 12.109375 9.234375 16.796875 8.0625 
Q 21.484375 6.890625 26.703125 6.890625 
Q 35.15625 6.890625 40.078125 11.328125 
Q 45.015625 15.765625 45.015625 23.390625 
Q 45.015625 31 40.078125 35.4375 
Q 35.15625 39.890625 26.703125 39.890625 
Q 22.75 39.890625 18.8125 39.015625 
Q 14.890625 38.140625 10.796875 36.28125 
z
" id="DejaVuSans-53"/>
      </defs>
      <g transform="translate(1189.8455 657.320837)scale(0.1 -0.1)">
       <use xlink:href="#DejaVuSans-53"/>
       <use x="63.623047" xlink:href="#DejaVuSans-48"/>
      </g>
     </g>
    </g>
    <g id="text_7">
     <!-- Frequency [Hz] -->
     <defs>
      <path d="M 9.8125 72.90625 
L 51.703125 72.90625 
L 51.703125 64.59375 
L 19.671875 64.59375 
L 19.671875 43.109375 
L 48.578125 43.109375 
L 48.578125 34.8125 
L 19.671875 34.8125 
L 19.671875 0 
L 9.8125 0 
z
" id="DejaVuSans-70"/>
      <path d="M 41.109375 46.296875 
Q 39.59375 47.171875 37.8125 47.578125 
Q 36.03125 48 33.890625 48 
Q 26.265625 48 22.1875 43.046875 
Q 18.109375 38.09375 18.109375 28.8125 
L 18.109375 0 
L 9.078125 0 
L 9.078125 54.6875 
L 18.109375 54.6875 
L 18.109375 46.1875 
Q 20.953125 51.171875 25.484375 53.578125 
Q 30.03125 56 36.53125 56 
Q 37.453125 56 38.578125 55.875 
Q 39.703125 55.765625 41.0625 55.515625 
z
" id="DejaVuSans-114"/>
      <path d="M 56.203125 29.59375 
L 56.203125 25.203125 
L 14.890625 25.203125 
Q 15.484375 15.921875 20.484375 11.0625 
Q 25.484375 6.203125 34.421875 6.203125 
Q 39.59375 6.203125 44.453125 7.46875 
Q 49.3125 8.734375 54.109375 11.28125 
L 54.109375 2.78125 
Q 49.265625 0.734375 44.1875 -0.34375 
Q 39.109375 -1.421875 33.890625 -1.421875 
Q 20.796875 -1.421875 13.15625 6.1875 
Q 5.515625 13.8125 5.515625 26.8125 
Q 5.515625 40.234375 12.765625 48.109375 
Q 20.015625 56 32.328125 56 
Q 43.359375 56 49.78125 48.890625 
Q 56.203125 41.796875 56.203125 29.59375 
z
M 47.21875 32.234375 
Q 47.125 39.59375 43.09375 43.984375 
Q 39.0625 48.390625 32.421875 48.390625 
Q 24.90625 48.390625 20.390625 44.140625 
Q 15.875 39.890625 15.1875 32.171875 
z
" id="DejaVuSans-101"/>
      <path d="M 14.796875 27.296875 
Q 14.796875 17.390625 18.875 11.75 
Q 22.953125 6.109375 30.078125 6.109375 
Q 37.203125 6.109375 41.296875 11.75 
Q 45.40625 17.390625 45.40625 27.296875 
Q 45.40625 37.203125 41.296875 42.84375 
Q 37.203125 48.484375 30.078125 48.484375 
Q 22.953125 48.484375 18.875 42.84375 
Q 14.796875 37.203125 14.796875 27.296875 
z
M 45.40625 8.203125 
Q 42.578125 3.328125 38.25 0.953125 
Q 33.9375 -1.421875 27.875 -1.421875 
Q 17.96875 -1.421875 11.734375 6.484375 
Q 5.515625 14.40625 5.515625 27.296875 
Q 5.515625 40.1875 11.734375 48.09375 
Q 17.96875 56 27.875 56 
Q 33.9375 56 38.25 53.625 
Q 42.578125 51.265625 45.40625 46.390625 
L 45.40625 54.6875 
L 54.390625 54.6875 
L 54.390625 -20.796875 
L 45.40625 -20.796875 
z
" id="DejaVuSans-113"/>
      <path d="M 8.5 21.578125 
L 8.5 54.6875 
L 17.484375 54.6875 
L 17.484375 21.921875 
Q 17.484375 14.15625 20.5 10.265625 
Q 23.53125 6.390625 29.59375 6.390625 
Q 36.859375 6.390625 41.078125 11.03125 
Q 45.3125 15.671875 45.3125 23.6875 
L 45.3125 54.6875 
L 54.296875 54.6875 
L 54.296875 0 
L 45.3125 0 
L 45.3125 8.40625 
Q 42.046875 3.421875 37.71875 1 
Q 33.40625 -1.421875 27.6875 -1.421875 
Q 18.265625 -1.421875 13.375 4.4375 
Q 8.5 10.296875 8.5 21.578125 
z
M 31.109375 56 
z
" id="DejaVuSans-117"/>
      <path d="M 54.890625 33.015625 
L 54.890625 0 
L 45.90625 0 
L 45.90625 32.71875 
Q 45.90625 40.484375 42.875 44.328125 
Q 39.84375 48.1875 33.796875 48.1875 
Q 26.515625 48.1875 22.3125 43.546875 
Q 18.109375 38.921875 18.109375 30.90625 
L 18.109375 0 
L 9.078125 0 
L 9.078125 54.6875 
L 18.109375 54.6875 
L 18.109375 46.1875 
Q 21.34375 51.125 25.703125 53.5625 
Q 30.078125 56 35.796875 56 
Q 45.21875 56 50.046875 50.171875 
Q 54.890625 44.34375 54.890625 33.015625 
z
" id="DejaVuSans-110"/>
      <path d="M 48.78125 52.59375 
L 48.78125 44.1875 
Q 44.96875 46.296875 41.140625 47.34375 
Q 37.3125 48.390625 33.40625 48.390625 
Q 24.65625 48.390625 19.8125 42.84375 
Q 14.984375 37.3125 14.984375 27.296875 
Q 14.984375 17.28125 19.8125 11.734375 
Q 24.65625 6.203125 33.40625 6.203125 
Q 37.3125 6.203125 41.140625 7.25 
Q 44.96875 8.296875 48.78125 10.40625 
L 48.78125 2.09375 
Q 45.015625 0.34375 40.984375 -0.53125 
Q 36.96875 -1.421875 32.421875 -1.421875 
Q 20.0625 -1.421875 12.78125 6.34375 
Q 5.515625 14.109375 5.515625 27.296875 
Q 5.515625 40.671875 12.859375 48.328125 
Q 20.21875 56 33.015625 56 
Q 37.15625 56 41.109375 55.140625 
Q 45.0625 54.296875 48.78125 52.59375 
z
" id="DejaVuSans-99"/>
      <path d="M 32.171875 -5.078125 
Q 28.375 -14.84375 24.75 -17.8125 
Q 21.140625 -20.796875 15.09375 -20.796875 
L 7.90625 -20.796875 
L 7.90625 -13.28125 
L 13.1875 -13.28125 
Q 16.890625 -13.28125 18.9375 -11.515625 
Q 21 -9.765625 23.484375 -3.21875 
L 25.09375 0.875 
L 2.984375 54.6875 
L 12.5 54.6875 
L 29.59375 11.921875 
L 46.6875 54.6875 
L 56.203125 54.6875 
z
" id="DejaVuSans-121"/>
      <path id="DejaVuSans-32"/>
      <path d="M 8.59375 75.984375 
L 29.296875 75.984375 
L 29.296875 69 
L 17.578125 69 
L 17.578125 -6.203125 
L 29.296875 -6.203125 
L 29.296875 -13.1875 
L 8.59375 -13.1875 
z
" id="DejaVuSans-91"/>
      <path d="M 9.8125 72.90625 
L 19.671875 72.90625 
L 19.671875 43.015625 
L 55.515625 43.015625 
L 55.515625 72.90625 
L 65.375 72.90625 
L 65.375 0 
L 55.515625 0 
L 55.515625 34.71875 
L 19.671875 34.71875 
L 19.671875 0 
L 9.8125 0 
z
" id="DejaVuSans-72"/>
      <path d="M 5.515625 54.6875 
L 48.1875 54.6875 
L 48.1875 46.484375 
L 14.40625 7.171875 
L 48.1875 7.171875 
L 48.1875 0 
L 4.296875 0 
L 4.296875 8.203125 
L 38.09375 47.515625 
L 5.515625 47.515625 
z
" id="DejaVuSans-122"/>
      <path d="M 30.421875 75.984375 
L 30.421875 -13.1875 
L 9.71875 -13.1875 
L 9.71875 -6.203125 
L 21.390625 -6.203125 
L 21.390625 69 
L 9.71875 69 
L 9.71875 75.984375 
z
" id="DejaVuSans-93"/>
     </defs>
     <g transform="translate(643.469313 670.998962)scale(0.1 -0.1)">
      <use xlink:href="#DejaVuSans-70"/>
      <use x="50.269531" xlink:href="#DejaVuSans-114"/>
      <use x="89.132812" xlink:href="#DejaVuSans-101"/>
      <use x="150.65625" xlink:href="#DejaVuSans-113"/>
      <use x="214.132812" xlink:href="#DejaVuSans-117"/>
      <use x="277.511719" xlink:href="#DejaVuSans-101"/>
      <use x="339.035156" xlink:href="#DejaVuSans-110"/>
      <use x="402.414062" xlink:href="#DejaVuSans-99"/>
      <use x="457.394531" xlink:href="#DejaVuSans-121"/>
      <use x="516.574219" xlink:href="#DejaVuSans-32"/>
      <use x="548.361328" xlink:href="#DejaVuSans-91"/>
      <use x="587.375" xlink:href="#DejaVuSans-72"/>
      <use x="662.570312" xlink:href="#DejaVuSans-122"/>
      <use x="715.060547" xlink:href="#DejaVuSans-93"/>
     </g>
    </g>
   </g>
   <g id="matplotlib.axis_2">
    <g id="ytick_1">
     <g id="line2d_7">
      <defs>
       <path d="M 0 0 
L -3.5 0 
" id="m2dad88b784" style="stroke:#000000;stroke-width:0.8;"/>
      </defs>
      <g>
       <use style="stroke:#000000;stroke-width:0.8;" x="166.14" xlink:href="#m2dad88b784" y="642.668552"/>
      </g>
     </g>
     <g id="text_8">
      <!-- −80 -->
      <defs>
       <path d="M 10.59375 35.5 
L 73.1875 35.5 
L 73.1875 27.203125 
L 10.59375 27.203125 
z
" id="DejaVuSans-8722"/>
       <path d="M 31.78125 34.625 
Q 24.75 34.625 20.71875 30.859375 
Q 16.703125 27.09375 16.703125 20.515625 
Q 16.703125 13.921875 20.71875 10.15625 
Q 24.75 6.390625 31.78125 6.390625 
Q 38.8125 6.390625 42.859375 10.171875 
Q 46.921875 13.96875 46.921875 20.515625 
Q 46.921875 27.09375 42.890625 30.859375 
Q 38.875 34.625 31.78125 34.625 
z
M 21.921875 38.8125 
Q 15.578125 40.375 12.03125 44.71875 
Q 8.5 49.078125 8.5 55.328125 
Q 8.5 64.0625 14.71875 69.140625 
Q 20.953125 74.21875 31.78125 74.21875 
Q 42.671875 74.21875 48.875 69.140625 
Q 55.078125 64.0625 55.078125 55.328125 
Q 55.078125 49.078125 51.53125 44.71875 
Q 48 40.375 41.703125 38.8125 
Q 48.828125 37.15625 52.796875 32.3125 
Q 56.78125 27.484375 56.78125 20.515625 
Q 56.78125 9.90625 50.3125 4.234375 
Q 43.84375 -1.421875 31.78125 -1.421875 
Q 19.734375 -1.421875 13.25 4.234375 
Q 6.78125 9.90625 6.78125 20.515625 
Q 6.78125 27.484375 10.78125 32.3125 
Q 14.796875 37.15625 21.921875 38.8125 
z
M 18.3125 54.390625 
Q 18.3125 48.734375 21.84375 45.5625 
Q 25.390625 42.390625 31.78125 42.390625 
Q 38.140625 42.390625 41.71875 45.5625 
Q 45.3125 48.734375 45.3125 54.390625 
Q 45.3125 60.0625 41.71875 63.234375 
Q 38.140625 66.40625 31.78125 66.40625 
Q 25.390625 66.40625 21.84375 63.234375 
Q 18.3125 60.0625 18.3125 54.390625 
z
" id="DejaVuSans-56"/>
      </defs>
      <g transform="translate(138.035313 646.467771)scale(0.1 -0.1)">
       <use xlink:href="#DejaVuSans-8722"/>
       <use x="83.789062" xlink:href="#DejaVuSans-56"/>
       <use x="147.412109" xlink:href="#DejaVuSans-48"/>
      </g>
     </g>
    </g>
    <g id="ytick_2">
     <g id="line2d_8">
      <g>
       <use style="stroke:#000000;stroke-width:0.8;" x="166.14" xlink:href="#m2dad88b784" y="559.231947"/>
      </g>
     </g>
     <g id="text_9">
      <!-- −60 -->
      <defs>
       <path d="M 33.015625 40.375 
Q 26.375 40.375 22.484375 35.828125 
Q 18.609375 31.296875 18.609375 23.390625 
Q 18.609375 15.53125 22.484375 10.953125 
Q 26.375 6.390625 33.015625 6.390625 
Q 39.65625 6.390625 43.53125 10.953125 
Q 47.40625 15.53125 47.40625 23.390625 
Q 47.40625 31.296875 43.53125 35.828125 
Q 39.65625 40.375 33.015625 40.375 
z
M 52.59375 71.296875 
L 52.59375 62.3125 
Q 48.875 64.0625 45.09375 64.984375 
Q 41.3125 65.921875 37.59375 65.921875 
Q 27.828125 65.921875 22.671875 59.328125 
Q 17.53125 52.734375 16.796875 39.40625 
Q 19.671875 43.65625 24.015625 45.921875 
Q 28.375 48.1875 33.59375 48.1875 
Q 44.578125 48.1875 50.953125 41.515625 
Q 57.328125 34.859375 57.328125 23.390625 
Q 57.328125 12.15625 50.6875 5.359375 
Q 44.046875 -1.421875 33.015625 -1.421875 
Q 20.359375 -1.421875 13.671875 8.265625 
Q 6.984375 17.96875 6.984375 36.375 
Q 6.984375 53.65625 15.1875 63.9375 
Q 23.390625 74.21875 37.203125 74.21875 
Q 40.921875 74.21875 44.703125 73.484375 
Q 48.484375 72.75 52.59375 71.296875 
z
" id="DejaVuSans-54"/>
      </defs>
      <g transform="translate(138.035313 563.031165)scale(0.1 -0.1)">
       <use xlink:href="#DejaVuSans-8722"/>
       <use x="83.789062" xlink:href="#DejaVuSans-54"/>
       <use x="147.412109" xlink:href="#DejaVuSans-48"/>
      </g>
     </g>
    </g>
    <g id="ytick_3">
     <g id="line2d_9">
      <g>
       <use style="stroke:#000000;stroke-width:0.8;" x="166.14" xlink:href="#m2dad88b784" y="475.795341"/>
      </g>
     </g>
     <g id="text_10">
      <!-- −40 -->
      <g transform="translate(138.035313 479.59456)scale(0.1 -0.1)">
       <use xlink:href="#DejaVuSans-8722"/>
       <use x="83.789062" xlink:href="#DejaVuSans-52"/>
       <use x="147.412109" xlink:href="#DejaVuSans-48"/>
      </g>
     </g>
    </g>
    <g id="ytick_4">
     <g id="line2d_10">
      <g>
       <use style="stroke:#000000;stroke-width:0.8;" x="166.14" xlink:href="#m2dad88b784" y="392.358735"/>
      </g>
     </g>
     <g id="text_11">
      <!-- −20 -->
      <g transform="translate(138.035313 396.157954)scale(0.1 -0.1)">
       <use xlink:href="#DejaVuSans-8722"/>
       <use x="83.789062" xlink:href="#DejaVuSans-50"/>
       <use x="147.412109" xlink:href="#DejaVuSans-48"/>
      </g>
     </g>
    </g>
    <g id="ytick_5">
     <g id="line2d_11">
      <g>
       <use style="stroke:#000000;stroke-width:0.8;" x="166.14" xlink:href="#m2dad88b784" y="308.922129"/>
      </g>
     </g>
     <g id="text_12">
      <!-- 0 -->
      <g transform="translate(152.7775 312.721348)scale(0.1 -0.1)">
       <use xlink:href="#DejaVuSans-48"/>
      </g>
     </g>
    </g>
    <g id="ytick_6">
     <g id="line2d_12">
      <g>
       <use style="stroke:#000000;stroke-width:0.8;" x="166.14" xlink:href="#m2dad88b784" y="225.485524"/>
      </g>
     </g>
     <g id="text_13">
      <!-- 20 -->
      <g transform="translate(146.415 229.284742)scale(0.1 -0.1)">
       <use xlink:href="#DejaVuSans-50"/>
       <use x="63.623047" xlink:href="#DejaVuSans-48"/>
      </g>
     </g>
    </g>
    <g id="ytick_7">
     <g id="line2d_13">
      <g>
       <use style="stroke:#000000;stroke-width:0.8;" x="166.14" xlink:href="#m2dad88b784" y="142.048918"/>
      </g>
     </g>
     <g id="text_14">
      <!-- 40 -->
      <g transform="translate(146.415 145.848137)scale(0.1 -0.1)">
       <use xlink:href="#DejaVuSans-52"/>
       <use x="63.623047" xlink:href="#DejaVuSans-48"/>
      </g>
     </g>
    </g>
    <g id="text_15">
     <!-- Amplitude [dB] -->
     <defs>
      <path d="M 34.1875 63.1875 
L 20.796875 26.90625 
L 47.609375 26.90625 
z
M 28.609375 72.90625 
L 39.796875 72.90625 
L 67.578125 0 
L 57.328125 0 
L 50.6875 18.703125 
L 17.828125 18.703125 
L 11.1875 0 
L 0.78125 0 
z
" id="DejaVuSans-65"/>
      <path d="M 52 44.1875 
Q 55.375 50.25 60.0625 53.125 
Q 64.75 56 71.09375 56 
Q 79.640625 56 84.28125 50.015625 
Q 88.921875 44.046875 88.921875 33.015625 
L 88.921875 0 
L 79.890625 0 
L 79.890625 32.71875 
Q 79.890625 40.578125 77.09375 44.375 
Q 74.3125 48.1875 68.609375 48.1875 
Q 61.625 48.1875 57.5625 43.546875 
Q 53.515625 38.921875 53.515625 30.90625 
L 53.515625 0 
L 44.484375 0 
L 44.484375 32.71875 
Q 44.484375 40.625 41.703125 44.40625 
Q 38.921875 48.1875 33.109375 48.1875 
Q 26.21875 48.1875 22.15625 43.53125 
Q 18.109375 38.875 18.109375 30.90625 
L 18.109375 0 
L 9.078125 0 
L 9.078125 54.6875 
L 18.109375 54.6875 
L 18.109375 46.1875 
Q 21.1875 51.21875 25.484375 53.609375 
Q 29.78125 56 35.6875 56 
Q 41.65625 56 45.828125 52.96875 
Q 50 49.953125 52 44.1875 
z
" id="DejaVuSans-109"/>
      <path d="M 18.109375 8.203125 
L 18.109375 -20.796875 
L 9.078125 -20.796875 
L 9.078125 54.6875 
L 18.109375 54.6875 
L 18.109375 46.390625 
Q 20.953125 51.265625 25.265625 53.625 
Q 29.59375 56 35.59375 56 
Q 45.5625 56 51.78125 48.09375 
Q 58.015625 40.1875 58.015625 27.296875 
Q 58.015625 14.40625 51.78125 6.484375 
Q 45.5625 -1.421875 35.59375 -1.421875 
Q 29.59375 -1.421875 25.265625 0.953125 
Q 20.953125 3.328125 18.109375 8.203125 
z
M 48.6875 27.296875 
Q 48.6875 37.203125 44.609375 42.84375 
Q 40.53125 48.484375 33.40625 48.484375 
Q 26.265625 48.484375 22.1875 42.84375 
Q 18.109375 37.203125 18.109375 27.296875 
Q 18.109375 17.390625 22.1875 11.75 
Q 26.265625 6.109375 33.40625 6.109375 
Q 40.53125 6.109375 44.609375 11.75 
Q 48.6875 17.390625 48.6875 27.296875 
z
" id="DejaVuSans-112"/>
      <path d="M 9.421875 75.984375 
L 18.40625 75.984375 
L 18.40625 0 
L 9.421875 0 
z
" id="DejaVuSans-108"/>
      <path d="M 9.421875 54.6875 
L 18.40625 54.6875 
L 18.40625 0 
L 9.421875 0 
z
M 9.421875 75.984375 
L 18.40625 75.984375 
L 18.40625 64.59375 
L 9.421875 64.59375 
z
" id="DejaVuSans-105"/>
      <path d="M 18.3125 70.21875 
L 18.3125 54.6875 
L 36.8125 54.6875 
L 36.8125 47.703125 
L 18.3125 47.703125 
L 18.3125 18.015625 
Q 18.3125 11.328125 20.140625 9.421875 
Q 21.96875 7.515625 27.59375 7.515625 
L 36.8125 7.515625 
L 36.8125 0 
L 27.59375 0 
Q 17.1875 0 13.234375 3.875 
Q 9.28125 7.765625 9.28125 18.015625 
L 9.28125 47.703125 
L 2.6875 47.703125 
L 2.6875 54.6875 
L 9.28125 54.6875 
L 9.28125 70.21875 
z
" id="DejaVuSans-116"/>
      <path d="M 45.40625 46.390625 
L 45.40625 75.984375 
L 54.390625 75.984375 
L 54.390625 0 
L 45.40625 0 
L 45.40625 8.203125 
Q 42.578125 3.328125 38.25 0.953125 
Q 33.9375 -1.421875 27.875 -1.421875 
Q 17.96875 -1.421875 11.734375 6.484375 
Q 5.515625 14.40625 5.515625 27.296875 
Q 5.515625 40.1875 11.734375 48.09375 
Q 17.96875 56 27.875 56 
Q 33.9375 56 38.25 53.625 
Q 42.578125 51.265625 45.40625 46.390625 
z
M 14.796875 27.296875 
Q 14.796875 17.390625 18.875 11.75 
Q 22.953125 6.109375 30.078125 6.109375 
Q 37.203125 6.109375 41.296875 11.75 
Q 45.40625 17.390625 45.40625 27.296875 
Q 45.40625 37.203125 41.296875 42.84375 
Q 37.203125 48.484375 30.078125 48.484375 
Q 22.953125 48.484375 18.875 42.84375 
Q 14.796875 37.203125 14.796875 27.296875 
z
" id="DejaVuSans-100"/>
      <path d="M 19.671875 34.8125 
L 19.671875 8.109375 
L 35.5 8.109375 
Q 43.453125 8.109375 47.28125 11.40625 
Q 51.125 14.703125 51.125 21.484375 
Q 51.125 28.328125 47.28125 31.5625 
Q 43.453125 34.8125 35.5 34.8125 
z
M 19.671875 64.796875 
L 19.671875 42.828125 
L 34.28125 42.828125 
Q 41.5 42.828125 45.03125 45.53125 
Q 48.578125 48.25 48.578125 53.8125 
Q 48.578125 59.328125 45.03125 62.0625 
Q 41.5 64.796875 34.28125 64.796875 
z
M 9.8125 72.90625 
L 35.015625 72.90625 
Q 46.296875 72.90625 52.390625 68.21875 
Q 58.5 63.53125 58.5 54.890625 
Q 58.5 48.1875 55.375 44.234375 
Q 52.25 40.28125 46.1875 39.3125 
Q 53.46875 37.75 57.5 32.78125 
Q 61.53125 27.828125 61.53125 20.40625 
Q 61.53125 10.640625 54.890625 5.3125 
Q 48.25 0 35.984375 0 
L 9.8125 0 
z
" id="DejaVuSans-66"/>
     </defs>
     <g transform="translate(131.955625 402.408769)rotate(-90)scale(0.1 -0.1)">
      <use xlink:href="#DejaVuSans-65"/>
      <use x="68.408203" xlink:href="#DejaVuSans-109"/>
      <use x="165.820312" xlink:href="#DejaVuSans-112"/>
      <use x="229.296875" xlink:href="#DejaVuSans-108"/>
      <use x="257.080078" xlink:href="#DejaVuSans-105"/>
      <use x="284.863281" xlink:href="#DejaVuSans-116"/>
      <use x="324.072266" xlink:href="#DejaVuSans-117"/>
      <use x="387.451172" xlink:href="#DejaVuSans-100"/>
      <use x="450.927734" xlink:href="#DejaVuSans-101"/>
      <use x="512.451172" xlink:href="#DejaVuSans-32"/>
      <use x="544.238281" xlink:href="#DejaVuSans-91"/>
      <use x="583.251953" xlink:href="#DejaVuSans-100"/>
      <use x="646.728516" xlink:href="#DejaVuSans-66"/>
      <use x="715.332031" xlink:href="#DejaVuSans-93"/>
     </g>
    </g>
   </g>
   <g id="line2d_14">
    <path clip-path="url(#p0e607ff3de)" d="M 186.337412 111.9348 
L 188.357153 291.431192 
L 190.376894 324.15401 
L 192.396635 320.490585 
L 194.416376 323.553571 
L 196.436118 350.948855 
L 198.455859 297.347156 
L 200.4756 295.046474 
L 202.495341 303.538899 
L 204.515082 278.174621 
L 206.534824 301.012671 
L 208.554565 307.144872 
L 210.574306 311.380322 
L 212.594047 320.331578 
L 214.613788 343.682201 
L 216.633529 283.798296 
L 218.653271 283.425925 
L 220.673012 368.118286 
L 222.692753 308.763474 
L 224.712494 334.673771 
L 226.732235 298.412486 
L 228.751976 314.428157 
L 230.771718 315.368347 
L 232.791459 328.875863 
L 234.8112 289.30312 
L 236.830941 289.10055 
L 238.850682 312.898681 
L 240.870424 309.569803 
L 242.890165 343.414408 
L 244.909906 309.796137 
L 246.929647 328.30672 
L 248.949388 307.387462 
L 250.969129 331.880982 
L 252.988871 317.758868 
L 255.008612 314.324448 
L 257.028353 300.64774 
L 259.048094 297.698683 
L 261.067835 336.029514 
L 263.087576 334.858118 
L 265.107318 332.70712 
L 267.127059 309.963985 
L 269.1468 328.856792 
L 271.166541 334.006209 
L 273.186282 420.104412 
L 275.206024 311.40477 
L 277.225765 306.258593 
L 279.245506 359.132544 
L 281.265247 354.590993 
L 283.284988 348.050817 
L 285.304729 329.733066 
L 287.324471 322.818779 
L 289.344212 310.625897 
L 293.383694 350.39431 
L 295.403435 337.470162 
L 297.423176 421.372116 
L 299.442918 366.151095 
L 301.462659 432.46056 
L 303.4824 405.783835 
L 305.502141 334.046336 
L 307.521882 314.86579 
L 309.541624 327.087239 
L 311.561365 374.747037 
L 313.581106 395.152136 
L 315.600847 400.789945 
L 317.620588 379.146977 
L 319.640329 353.011156 
L 321.660071 360.002386 
L 323.679812 376.273166 
L 325.699553 341.269067 
L 327.719294 339.836165 
L 329.739035 355.418952 
L 331.758776 380.877763 
L 333.778518 423.899969 
L 335.798259 372.466903 
L 337.818 350.132503 
L 339.837741 347.012597 
L 341.857482 366.983987 
L 343.877224 413.013338 
L 345.896965 369.166892 
L 347.916706 379.132034 
L 349.936447 419.794456 
L 351.956188 409.161085 
L 353.975929 394.509685 
L 355.995671 371.210027 
L 358.015412 359.004146 
L 360.035153 353.711298 
L 362.054894 378.731977 
L 364.074635 462.194667 
L 366.094376 448.78494 
L 368.114118 391.375206 
L 370.133859 400.716996 
L 372.1536 423.015743 
L 374.173341 414.651109 
L 376.193082 377.967223 
L 378.212824 372.086378 
L 382.252306 408.592711 
L 384.272047 398.436289 
L 386.291788 410.461763 
L 388.311529 412.053384 
L 390.331271 391.035096 
L 392.351012 395.764981 
L 394.370753 400.09243 
L 396.390494 412.846343 
L 398.410235 414.242446 
L 400.429976 399.985023 
L 402.449718 409.050581 
L 404.469459 457.210993 
L 406.4892 416.713628 
L 408.508941 393.114378 
L 410.528682 409.046073 
L 412.548424 479.951226 
L 414.568165 420.995391 
L 416.587906 405.618078 
L 418.607647 412.051899 
L 420.627388 435.194674 
L 422.647129 430.517239 
L 424.666871 422.731613 
L 426.686612 426.174642 
L 428.706353 462.821984 
L 430.726094 430.836766 
L 432.745835 419.496376 
L 434.765576 416.62069 
L 436.785318 447.873228 
L 438.805059 452.015199 
L 440.8248 426.955632 
L 442.844541 420.349438 
L 444.864282 479.385347 
L 446.884024 432.396352 
L 448.903765 421.527952 
L 450.923506 429.913234 
L 452.943247 499.827004 
L 454.962988 460.772795 
L 456.982729 450.567401 
L 459.002471 443.699943 
L 463.041953 492.191265 
L 465.061694 438.179945 
L 467.081435 417.601758 
L 469.101176 439.05021 
L 471.120918 461.838966 
L 473.140659 432.797857 
L 475.1604 453.284039 
L 477.180141 487.718942 
L 479.199882 493.167987 
L 481.219624 486.537866 
L 483.239365 461.296544 
L 485.259106 463.842926 
L 487.278847 436.4209 
L 489.298588 479.162916 
L 491.318329 466.07974 
L 493.338071 467.248372 
L 495.357812 439.145435 
L 497.377553 459.565528 
L 499.397294 461.72409 
L 501.417035 447.033416 
L 503.436776 473.883442 
L 505.456518 467.129453 
L 507.476259 484.534277 
L 509.496 463.264601 
L 511.515741 451.987354 
L 513.535482 454.38867 
L 515.555224 435.808404 
L 517.574965 444.089386 
L 519.594706 454.312376 
L 521.614447 451.08316 
L 523.634188 454.790795 
L 525.653929 482.211436 
L 527.673671 483.679872 
L 529.693412 475.391835 
L 531.713153 452.375166 
L 533.732894 460.766016 
L 535.752635 471.107455 
L 537.772376 493.465568 
L 539.792118 498.373343 
L 541.811859 440.673707 
L 543.8316 484.027827 
L 545.851341 477.393754 
L 547.871082 506.398879 
L 549.890824 465.476893 
L 553.930306 444.873943 
L 555.950047 481.509027 
L 557.969788 486.888809 
L 559.989529 494.453042 
L 562.009271 444.176122 
L 564.029012 463.136485 
L 566.048753 451.4099 
L 568.068494 465.996955 
L 570.088235 473.181967 
L 572.107976 468.897603 
L 574.127718 512.149938 
L 576.147459 486.179104 
L 578.1672 452.807292 
L 580.186941 498.860857 
L 582.206682 451.462684 
L 584.226424 489.111763 
L 586.246165 449.844075 
L 588.265906 465.01092 
L 590.285647 456.337959 
L 592.305388 459.184641 
L 594.325129 492.213776 
L 596.344871 497.228962 
L 598.364612 484.67774 
L 600.384353 458.620358 
L 602.404094 452.770571 
L 604.423835 456.977475 
L 606.443576 465.000283 
L 608.463318 458.685881 
L 610.483059 461.419 
L 612.5028 479.142967 
L 614.522541 447.679898 
L 616.542282 490.913076 
L 618.562024 519.476975 
L 620.581765 463.43498 
L 622.601506 477.044949 
L 624.621247 477.124569 
L 626.640988 465.697293 
L 628.660729 617.4468 
L 630.680471 453.235266 
L 632.700212 464.816185 
L 634.719953 489.130503 
L 636.739694 481.648331 
L 638.759435 453.976321 
L 640.779176 504.499279 
L 642.798918 460.578584 
L 644.818659 479.293582 
L 646.8384 487.544876 
L 648.858141 445.271737 
L 650.877882 443.912777 
L 652.897624 445.973405 
L 654.917365 481.308886 
L 656.937106 438.360838 
L 658.956847 480.641205 
L 662.996329 531.715271 
L 665.016071 467.657079 
L 667.035812 444.966285 
L 669.055553 458.85273 
L 671.075294 445.349188 
L 673.095035 492.993517 
L 675.114776 460.942807 
L 677.134518 496.692459 
L 679.154259 453.337034 
L 681.174 523.223258 
L 683.193741 541.972712 
L 685.213482 471.878169 
L 687.233224 514.747641 
L 689.252965 522.62196 
L 691.272706 491.998508 
L 693.292447 469.980122 
L 695.312188 478.081968 
L 697.331929 443.441565 
L 699.351671 458.230766 
L 701.371412 468.100958 
L 703.391153 474.86427 
L 705.410894 472.194562 
L 707.430635 499.691505 
L 709.450376 463.345842 
L 711.470118 461.5108 
L 713.489859 478.846248 
L 715.5096 465.765425 
L 717.529341 470.646543 
L 719.549082 496.807239 
L 721.568824 509.165369 
L 723.588565 469.648085 
L 725.608306 506.03721 
L 727.628047 447.804065 
L 729.647788 462.826969 
L 731.667529 513.798402 
L 733.687271 467.431966 
L 735.707012 460.177317 
L 737.726753 484.835986 
L 739.746494 486.032587 
L 741.766235 465.655162 
L 743.785976 483.167197 
L 745.805718 478.15671 
L 747.825459 460.619539 
L 749.8452 450.805714 
L 751.864941 462.412487 
L 753.884682 484.464891 
L 755.904424 466.194269 
L 757.924165 461.640159 
L 759.943906 455.529311 
L 761.963647 466.775798 
L 763.983388 458.680961 
L 766.003129 497.2417 
L 768.022871 456.530918 
L 770.042612 497.305252 
L 772.062353 473.158075 
L 774.082094 457.218185 
L 776.101835 489.287238 
L 778.121576 453.676456 
L 780.141318 484.596076 
L 782.161059 525.602517 
L 784.1808 458.99382 
L 786.200541 483.06434 
L 788.220282 462.656615 
L 790.240024 459.066879 
L 792.259765 481.327725 
L 794.279506 447.709379 
L 796.299247 476.303741 
L 798.318988 455.241862 
L 800.338729 492.916968 
L 802.358471 450.446772 
L 804.378212 436.675781 
L 806.397953 451.689671 
L 808.417694 478.028616 
L 810.437435 457.125999 
L 812.457176 544.617766 
L 814.476918 450.621506 
L 816.496659 452.784919 
L 818.5164 503.874355 
L 820.536141 488.427057 
L 822.555882 440.234797 
L 824.575624 441.971832 
L 826.595365 473.48971 
L 828.615106 448.250012 
L 830.634847 466.247812 
L 832.654588 474.33115 
L 834.674329 467.609961 
L 836.694071 452.738366 
L 838.713812 449.729518 
L 840.733553 484.567556 
L 842.753294 437.459563 
L 844.773035 452.975075 
L 846.792776 498.240046 
L 848.812518 460.325236 
L 850.832259 480.76665 
L 852.852 442.255008 
L 854.871741 444.866031 
L 856.891482 423.084338 
L 858.911224 443.585592 
L 860.930965 432.675629 
L 862.950706 455.041294 
L 864.970447 468.005924 
L 866.990188 449.754985 
L 869.009929 481.937586 
L 871.029671 455.094632 
L 873.049412 430.395704 
L 875.069153 420.021029 
L 877.088894 479.680093 
L 879.108635 485.65656 
L 881.128376 464.683254 
L 883.148118 460.649862 
L 885.167859 506.323798 
L 887.1876 429.021304 
L 889.207341 452.72201 
L 891.227082 455.735951 
L 893.246824 416.733263 
L 895.266565 455.088901 
L 897.286306 441.682542 
L 899.306047 440.875966 
L 901.325788 487.416109 
L 903.345529 484.997813 
L 905.365271 422.296535 
L 907.385012 443.049157 
L 909.404753 432.520337 
L 911.424494 429.601623 
L 913.444235 422.872259 
L 915.463976 425.685037 
L 917.483718 452.660635 
L 919.503459 482.677198 
L 921.5232 427.598085 
L 923.542941 424.736119 
L 925.562682 437.372925 
L 927.582424 438.430544 
L 929.602165 441.070511 
L 931.621906 430.320501 
L 933.641647 444.502782 
L 935.661388 444.759143 
L 937.681129 438.684257 
L 939.700871 467.670975 
L 941.720612 457.416818 
L 943.740353 456.888834 
L 945.760094 421.450879 
L 947.779835 434.490331 
L 949.799576 465.158841 
L 951.819318 449.589481 
L 953.839059 429.569596 
L 955.8588 435.494276 
L 957.878541 439.171099 
L 959.898282 457.411341 
L 961.918024 440.112475 
L 963.937765 412.389713 
L 965.957506 426.305302 
L 967.977247 485.679291 
L 969.996988 482.349941 
L 972.016729 443.537531 
L 974.036471 449.933191 
L 976.056212 423.18297 
L 978.075953 450.076457 
L 980.095694 468.905861 
L 982.115435 437.052603 
L 984.135176 448.642605 
L 986.154918 464.306256 
L 988.174659 450.944976 
L 990.1944 438.828819 
L 992.214141 460.655044 
L 994.233882 439.759476 
L 996.253624 443.082416 
L 998.273365 462.130428 
L 1000.293106 462.577866 
L 1002.312847 450.025997 
L 1004.332588 468.935962 
L 1006.352329 450.068099 
L 1008.372071 485.121577 
L 1010.391812 497.806475 
L 1012.411553 460.366217 
L 1014.431294 454.402826 
L 1016.451035 483.854521 
L 1018.470776 445.733009 
L 1020.490518 440.52475 
L 1022.510259 460.20449 
L 1024.53 442.766759 
L 1026.549741 461.323815 
L 1028.569482 457.185949 
L 1030.589224 443.076397 
L 1032.608965 452.226279 
L 1034.628706 494.949316 
L 1036.648447 479.012562 
L 1038.668188 447.603924 
L 1040.687929 455.868939 
L 1042.707671 443.178449 
L 1046.747153 472.543234 
L 1048.766894 472.502627 
L 1050.786635 471.386825 
L 1052.806376 506.593742 
L 1054.826118 491.488183 
L 1056.845859 455.415813 
L 1058.8656 445.354979 
L 1060.885341 469.393538 
L 1062.905082 458.791239 
L 1064.924824 443.387145 
L 1066.944565 431.120707 
L 1068.964306 458.726393 
L 1070.984047 494.854414 
L 1073.003788 481.755498 
L 1075.023529 450.929039 
L 1077.043271 457.445869 
L 1079.063012 491.958276 
L 1081.082753 469.67195 
L 1083.102494 457.318717 
L 1085.122235 430.115469 
L 1087.141976 466.103202 
L 1089.161718 478.121746 
L 1091.181459 446.032675 
L 1093.2012 487.557904 
L 1095.220941 427.666429 
L 1097.240682 428.418002 
L 1099.260424 446.895914 
L 1101.280165 479.001477 
L 1103.299906 433.14479 
L 1105.319647 450.139351 
L 1107.339388 458.29186 
L 1109.359129 442.519088 
L 1111.378871 444.177706 
L 1113.398612 530.231974 
L 1115.418353 432.063538 
L 1117.438094 410.118966 
L 1119.457835 423.054256 
L 1121.477576 482.990259 
L 1123.497318 445.16301 
L 1125.517059 459.041317 
L 1127.5368 445.493765 
L 1129.556541 457.652783 
L 1131.576282 494.414313 
L 1133.596024 488.092124 
L 1135.615765 441.02777 
L 1137.635506 456.344384 
L 1139.655247 444.8525 
L 1141.674988 468.318475 
L 1143.694729 475.207669 
L 1145.714471 455.619949 
L 1147.734212 431.794096 
L 1149.753953 474.279512 
L 1151.773694 481.008233 
L 1153.793435 462.262532 
L 1155.813176 473.410725 
L 1157.832918 494.612252 
L 1159.852659 499.915212 
L 1161.8724 481.365846 
L 1163.892141 457.284236 
L 1165.911882 469.869398 
L 1167.931624 446.459828 
L 1169.951365 454.499089 
L 1171.971106 487.358215 
L 1173.990847 471.597819 
L 1176.010588 457.513619 
L 1178.030329 444.844846 
L 1180.050071 463.566946 
L 1182.069812 484.906596 
L 1184.089553 465.926472 
L 1186.109294 429.133523 
L 1188.129035 450.371271 
L 1190.148776 476.811963 
L 1192.168518 441.486945 
L 1194.188259 463.21727 
L 1196.208 536.362584 
L 1198.227741 536.362584 
L 1198.227741 536.362584 
" style="fill:none;stroke:#1f77b4;stroke-linecap:square;stroke-width:1.5;"/>
   </g>
   <g id="patch_3">
    <path d="M 166.14 642.7224 
L 166.14 86.6592 
" style="fill:none;stroke:#000000;stroke-linecap:square;stroke-linejoin:miter;stroke-width:0.8;"/>
   </g>
   <g id="patch_4">
    <path d="M 1196.208 642.7224 
L 1196.208 86.6592 
" style="fill:none;stroke:#000000;stroke-linecap:square;stroke-linejoin:miter;stroke-width:0.8;"/>
   </g>
   <g id="patch_5">
    <path d="M 166.14 642.7224 
L 1196.208 642.7224 
" style="fill:none;stroke:#000000;stroke-linecap:square;stroke-linejoin:miter;stroke-width:0.8;"/>
   </g>
   <g id="patch_6">
    <path d="M 166.14 86.6592 
L 1196.208 86.6592 
" style="fill:none;stroke:#000000;stroke-linecap:square;stroke-linejoin:miter;stroke-width:0.8;"/>
   </g>
   <g id="text_16">
    <!-- FFT of LDR data -->
    <defs>
     <path d="M -0.296875 72.90625 
L 61.375 72.90625 
L 61.375 64.59375 
L 35.5 64.59375 
L 35.5 0 
L 25.59375 0 
L 25.59375 64.59375 
L -0.296875 64.59375 
z
" id="DejaVuSans-84"/>
     <path d="M 30.609375 48.390625 
Q 23.390625 48.390625 19.1875 42.75 
Q 14.984375 37.109375 14.984375 27.296875 
Q 14.984375 17.484375 19.15625 11.84375 
Q 23.34375 6.203125 30.609375 6.203125 
Q 37.796875 6.203125 41.984375 11.859375 
Q 46.1875 17.53125 46.1875 27.296875 
Q 46.1875 37.015625 41.984375 42.703125 
Q 37.796875 48.390625 30.609375 48.390625 
z
M 30.609375 56 
Q 42.328125 56 49.015625 48.375 
Q 55.71875 40.765625 55.71875 27.296875 
Q 55.71875 13.875 49.015625 6.21875 
Q 42.328125 -1.421875 30.609375 -1.421875 
Q 18.84375 -1.421875 12.171875 6.21875 
Q 5.515625 13.875 5.515625 27.296875 
Q 5.515625 40.765625 12.171875 48.375 
Q 18.84375 56 30.609375 56 
z
" id="DejaVuSans-111"/>
     <path d="M 37.109375 75.984375 
L 37.109375 68.5 
L 28.515625 68.5 
Q 23.6875 68.5 21.796875 66.546875 
Q 19.921875 64.59375 19.921875 59.515625 
L 19.921875 54.6875 
L 34.71875 54.6875 
L 34.71875 47.703125 
L 19.921875 47.703125 
L 19.921875 0 
L 10.890625 0 
L 10.890625 47.703125 
L 2.296875 47.703125 
L 2.296875 54.6875 
L 10.890625 54.6875 
L 10.890625 58.5 
Q 10.890625 67.625 15.140625 71.796875 
Q 19.390625 75.984375 28.609375 75.984375 
z
" id="DejaVuSans-102"/>
     <path d="M 9.8125 72.90625 
L 19.671875 72.90625 
L 19.671875 8.296875 
L 55.171875 8.296875 
L 55.171875 0 
L 9.8125 0 
z
" id="DejaVuSans-76"/>
     <path d="M 19.671875 64.796875 
L 19.671875 8.109375 
L 31.59375 8.109375 
Q 46.6875 8.109375 53.6875 14.9375 
Q 60.6875 21.78125 60.6875 36.53125 
Q 60.6875 51.171875 53.6875 57.984375 
Q 46.6875 64.796875 31.59375 64.796875 
z
M 9.8125 72.90625 
L 30.078125 72.90625 
Q 51.265625 72.90625 61.171875 64.09375 
Q 71.09375 55.28125 71.09375 36.53125 
Q 71.09375 17.671875 61.125 8.828125 
Q 51.171875 0 30.078125 0 
L 9.8125 0 
z
" id="DejaVuSans-68"/>
     <path d="M 44.390625 34.1875 
Q 47.5625 33.109375 50.5625 29.59375 
Q 53.5625 26.078125 56.59375 19.921875 
L 66.609375 0 
L 56 0 
L 46.6875 18.703125 
Q 43.0625 26.03125 39.671875 28.421875 
Q 36.28125 30.8125 30.421875 30.8125 
L 19.671875 30.8125 
L 19.671875 0 
L 9.8125 0 
L 9.8125 72.90625 
L 32.078125 72.90625 
Q 44.578125 72.90625 50.734375 67.671875 
Q 56.890625 62.453125 56.890625 51.90625 
Q 56.890625 45.015625 53.6875 40.46875 
Q 50.484375 35.9375 44.390625 34.1875 
z
M 19.671875 64.796875 
L 19.671875 38.921875 
L 32.078125 38.921875 
Q 39.203125 38.921875 42.84375 42.21875 
Q 46.484375 45.515625 46.484375 51.90625 
Q 46.484375 58.296875 42.84375 61.546875 
Q 39.203125 64.796875 32.078125 64.796875 
z
" id="DejaVuSans-82"/>
     <path d="M 34.28125 27.484375 
Q 23.390625 27.484375 19.1875 25 
Q 14.984375 22.515625 14.984375 16.5 
Q 14.984375 11.71875 18.140625 8.90625 
Q 21.296875 6.109375 26.703125 6.109375 
Q 34.1875 6.109375 38.703125 11.40625 
Q 43.21875 16.703125 43.21875 25.484375 
L 43.21875 27.484375 
z
M 52.203125 31.203125 
L 52.203125 0 
L 43.21875 0 
L 43.21875 8.296875 
Q 40.140625 3.328125 35.546875 0.953125 
Q 30.953125 -1.421875 24.3125 -1.421875 
Q 15.921875 -1.421875 10.953125 3.296875 
Q 6 8.015625 6 15.921875 
Q 6 25.140625 12.171875 29.828125 
Q 18.359375 34.515625 30.609375 34.515625 
L 43.21875 34.515625 
L 43.21875 35.40625 
Q 43.21875 41.609375 39.140625 45 
Q 35.0625 48.390625 27.6875 48.390625 
Q 23 48.390625 18.546875 47.265625 
Q 14.109375 46.140625 10.015625 43.890625 
L 10.015625 52.203125 
Q 14.9375 54.109375 19.578125 55.046875 
Q 24.21875 56 28.609375 56 
Q 40.484375 56 46.34375 49.84375 
Q 52.203125 43.703125 52.203125 31.203125 
z
" id="DejaVuSans-97"/>
    </defs>
    <g transform="translate(633.561187 80.6592)scale(0.12 -0.12)">
     <use xlink:href="#DejaVuSans-70"/>
     <use x="57.519531" xlink:href="#DejaVuSans-70"/>
     <use x="113.289062" xlink:href="#DejaVuSans-84"/>
     <use x="174.373047" xlink:href="#DejaVuSans-32"/>
     <use x="206.160156" xlink:href="#DejaVuSans-111"/>
     <use x="267.341797" xlink:href="#DejaVuSans-102"/>
     <use x="302.546875" xlink:href="#DejaVuSans-32"/>
     <use x="334.333984" xlink:href="#DejaVuSans-76"/>
     <use x="390.046875" xlink:href="#DejaVuSans-68"/>
     <use x="467.048828" xlink:href="#DejaVuSans-82"/>
     <use x="536.53125" xlink:href="#DejaVuSans-32"/>
     <use x="568.318359" xlink:href="#DejaVuSans-100"/>
     <use x="631.794922" xlink:href="#DejaVuSans-97"/>
     <use x="693.074219" xlink:href="#DejaVuSans-116"/>
     <use x="732.283203" xlink:href="#DejaVuSans-97"/>
    </g>
   </g>
  </g>
 </g>
 <defs>
  <clipPath id="p0e607ff3de">
   <rect height="556.0632" width="1030.068" x="166.14" y="86.6592"/>
  </clipPath>
 </defs>
</svg>
