<?xml version="1.0" encoding="utf-8" standalone="no"?>
<!DOCTYPE svg PUBLIC "-//W3C//DTD SVG 1.1//EN"
  "http://www.w3.org/Graphics/SVG/1.1/DTD/svg11.dtd">
<!-- Created with matplotlib (https://matplotlib.org/) -->
<svg height="693.36pt" version="1.1" viewBox="0 0 1382.4 693.36" width="1382.4pt" xmlns="http://www.w3.org/2000/svg" xmlns:xlink="http://www.w3.org/1999/xlink">
 <defs>
  <style type="text/css">
*{stroke-linecap:butt;stroke-linejoin:round;}
  </style>
 </defs>
 <g id="figure_1">
  <g id="patch_1">
   <path d="M 0 693.36 
L 1382.4 693.36 
L 1382.4 0 
L 0 0 
z
" style="fill:#ffffff;"/>
  </g>
  <g id="axes_1">
   <g id="patch_2">
    <path d="M 172.8 617.0904 
L 1244.16 617.0904 
L 1244.16 83.2032 
L 172.8 83.2032 
z
" style="fill:#ffffff;"/>
   </g>
   <g id="matplotlib.axis_1">
    <g id="xtick_1">
     <g id="line2d_1">
      <defs>
       <path d="M 0 0 
L 0 3.5 
" id="me54f3a7dcd" style="stroke:#000000;stroke-width:0.8;"/>
      </defs>
      <g>
       <use style="stroke:#000000;stroke-width:0.8;" x="221.498182" xlink:href="#me54f3a7dcd" y="617.0904"/>
      </g>
     </g>
     <g id="text_1">
      <!-- 0 -->
      <defs>
       <path d="M 31.78125 66.40625 
Q 24.171875 66.40625 20.328125 58.90625 
Q 16.5 51.421875 16.5 36.375 
Q 16.5 21.390625 20.328125 13.890625 
Q 24.171875 6.390625 31.78125 6.390625 
Q 39.453125 6.390625 43.28125 13.890625 
Q 47.125 21.390625 47.125 36.375 
Q 47.125 51.421875 43.28125 58.90625 
Q 39.453125 66.40625 31.78125 66.40625 
z
M 31.78125 74.21875 
Q 44.046875 74.21875 50.515625 64.515625 
Q 56.984375 54.828125 56.984375 36.375 
Q 56.984375 17.96875 50.515625 8.265625 
Q 44.046875 -1.421875 31.78125 -1.421875 
Q 19.53125 -1.421875 13.0625 8.265625 
Q 6.59375 17.96875 6.59375 36.375 
Q 6.59375 54.828125 13.0625 64.515625 
Q 19.53125 74.21875 31.78125 74.21875 
z
" id="DejaVuSans-48"/>
      </defs>
      <g transform="translate(218.316932 631.688837)scale(0.1 -0.1)">
       <use xlink:href="#DejaVuSans-48"/>
      </g>
     </g>
    </g>
    <g id="xtick_2">
     <g id="line2d_2">
      <g>
       <use style="stroke:#000000;stroke-width:0.8;" x="416.096311" xlink:href="#me54f3a7dcd" y="617.0904"/>
      </g>
     </g>
     <g id="text_2">
      <!-- 2 -->
      <defs>
       <path d="M 19.1875 8.296875 
L 53.609375 8.296875 
L 53.609375 0 
L 7.328125 0 
L 7.328125 8.296875 
Q 12.9375 14.109375 22.625 23.890625 
Q 32.328125 33.6875 34.8125 36.53125 
Q 39.546875 41.84375 41.421875 45.53125 
Q 43.3125 49.21875 43.3125 52.78125 
Q 43.3125 58.59375 39.234375 62.25 
Q 35.15625 65.921875 28.609375 65.921875 
Q 23.96875 65.921875 18.8125 64.3125 
Q 13.671875 62.703125 7.8125 59.421875 
L 7.8125 69.390625 
Q 13.765625 71.78125 18.9375 73 
Q 24.125 74.21875 28.421875 74.21875 
Q 39.75 74.21875 46.484375 68.546875 
Q 53.21875 62.890625 53.21875 53.421875 
Q 53.21875 48.921875 51.53125 44.890625 
Q 49.859375 40.875 45.40625 35.40625 
Q 44.1875 33.984375 37.640625 27.21875 
Q 31.109375 20.453125 19.1875 8.296875 
z
" id="DejaVuSans-50"/>
      </defs>
      <g transform="translate(412.915061 631.688837)scale(0.1 -0.1)">
       <use xlink:href="#DejaVuSans-50"/>
      </g>
     </g>
    </g>
    <g id="xtick_3">
     <g id="line2d_3">
      <g>
       <use style="stroke:#000000;stroke-width:0.8;" x="610.69444" xlink:href="#me54f3a7dcd" y="617.0904"/>
      </g>
     </g>
     <g id="text_3">
      <!-- 4 -->
      <defs>
       <path d="M 37.796875 64.3125 
L 12.890625 25.390625 
L 37.796875 25.390625 
z
M 35.203125 72.90625 
L 47.609375 72.90625 
L 47.609375 25.390625 
L 58.015625 25.390625 
L 58.015625 17.1875 
L 47.609375 17.1875 
L 47.609375 0 
L 37.796875 0 
L 37.796875 17.1875 
L 4.890625 17.1875 
L 4.890625 26.703125 
z
" id="DejaVuSans-52"/>
      </defs>
      <g transform="translate(607.51319 631.688837)scale(0.1 -0.1)">
       <use xlink:href="#DejaVuSans-52"/>
      </g>
     </g>
    </g>
    <g id="xtick_4">
     <g id="line2d_4">
      <g>
       <use style="stroke:#000000;stroke-width:0.8;" x="805.292569" xlink:href="#me54f3a7dcd" y="617.0904"/>
      </g>
     </g>
     <g id="text_4">
      <!-- 6 -->
      <defs>
       <path d="M 33.015625 40.375 
Q 26.375 40.375 22.484375 35.828125 
Q 18.609375 31.296875 18.609375 23.390625 
Q 18.609375 15.53125 22.484375 10.953125 
Q 26.375 6.390625 33.015625 6.390625 
Q 39.65625 6.390625 43.53125 10.953125 
Q 47.40625 15.53125 47.40625 23.390625 
Q 47.40625 31.296875 43.53125 35.828125 
Q 39.65625 40.375 33.015625 40.375 
z
M 52.59375 71.296875 
L 52.59375 62.3125 
Q 48.875 64.0625 45.09375 64.984375 
Q 41.3125 65.921875 37.59375 65.921875 
Q 27.828125 65.921875 22.671875 59.328125 
Q 17.53125 52.734375 16.796875 39.40625 
Q 19.671875 43.65625 24.015625 45.921875 
Q 28.375 48.1875 33.59375 48.1875 
Q 44.578125 48.1875 50.953125 41.515625 
Q 57.328125 34.859375 57.328125 23.390625 
Q 57.328125 12.15625 50.6875 5.359375 
Q 44.046875 -1.421875 33.015625 -1.421875 
Q 20.359375 -1.421875 13.671875 8.265625 
Q 6.984375 17.96875 6.984375 36.375 
Q 6.984375 53.65625 15.1875 63.9375 
Q 23.390625 74.21875 37.203125 74.21875 
Q 40.921875 74.21875 44.703125 73.484375 
Q 48.484375 72.75 52.59375 71.296875 
z
" id="DejaVuSans-54"/>
      </defs>
      <g transform="translate(802.111319 631.688837)scale(0.1 -0.1)">
       <use xlink:href="#DejaVuSans-54"/>
      </g>
     </g>
    </g>
    <g id="xtick_5">
     <g id="line2d_5">
      <g>
       <use style="stroke:#000000;stroke-width:0.8;" x="999.890698" xlink:href="#me54f3a7dcd" y="617.0904"/>
      </g>
     </g>
     <g id="text_5">
      <!-- 8 -->
      <defs>
       <path d="M 31.78125 34.625 
Q 24.75 34.625 20.71875 30.859375 
Q 16.703125 27.09375 16.703125 20.515625 
Q 16.703125 13.921875 20.71875 10.15625 
Q 24.75 6.390625 31.78125 6.390625 
Q 38.8125 6.390625 42.859375 10.171875 
Q 46.921875 13.96875 46.921875 20.515625 
Q 46.921875 27.09375 42.890625 30.859375 
Q 38.875 34.625 31.78125 34.625 
z
M 21.921875 38.8125 
Q 15.578125 40.375 12.03125 44.71875 
Q 8.5 49.078125 8.5 55.328125 
Q 8.5 64.0625 14.71875 69.140625 
Q 20.953125 74.21875 31.78125 74.21875 
Q 42.671875 74.21875 48.875 69.140625 
Q 55.078125 64.0625 55.078125 55.328125 
Q 55.078125 49.078125 51.53125 44.71875 
Q 48 40.375 41.703125 38.8125 
Q 48.828125 37.15625 52.796875 32.3125 
Q 56.78125 27.484375 56.78125 20.515625 
Q 56.78125 9.90625 50.3125 4.234375 
Q 43.84375 -1.421875 31.78125 -1.421875 
Q 19.734375 -1.421875 13.25 4.234375 
Q 6.78125 9.90625 6.78125 20.515625 
Q 6.78125 27.484375 10.78125 32.3125 
Q 14.796875 37.15625 21.921875 38.8125 
z
M 18.3125 54.390625 
Q 18.3125 48.734375 21.84375 45.5625 
Q 25.390625 42.390625 31.78125 42.390625 
Q 38.140625 42.390625 41.71875 45.5625 
Q 45.3125 48.734375 45.3125 54.390625 
Q 45.3125 60.0625 41.71875 63.234375 
Q 38.140625 66.40625 31.78125 66.40625 
Q 25.390625 66.40625 21.84375 63.234375 
Q 18.3125 60.0625 18.3125 54.390625 
z
" id="DejaVuSans-56"/>
      </defs>
      <g transform="translate(996.709448 631.688837)scale(0.1 -0.1)">
       <use xlink:href="#DejaVuSans-56"/>
      </g>
     </g>
    </g>
    <g id="xtick_6">
     <g id="line2d_6">
      <g>
       <use style="stroke:#000000;stroke-width:0.8;" x="1194.488828" xlink:href="#me54f3a7dcd" y="617.0904"/>
      </g>
     </g>
     <g id="text_6">
      <!-- 10 -->
      <defs>
       <path d="M 12.40625 8.296875 
L 28.515625 8.296875 
L 28.515625 63.921875 
L 10.984375 60.40625 
L 10.984375 69.390625 
L 28.421875 72.90625 
L 38.28125 72.90625 
L 38.28125 8.296875 
L 54.390625 8.296875 
L 54.390625 0 
L 12.40625 0 
z
" id="DejaVuSans-49"/>
      </defs>
      <g transform="translate(1188.126328 631.688837)scale(0.1 -0.1)">
       <use xlink:href="#DejaVuSans-49"/>
       <use x="63.623047" xlink:href="#DejaVuSans-48"/>
      </g>
     </g>
    </g>
    <g id="text_7">
     <!-- Time [s] -->
     <defs>
      <path d="M -0.296875 72.90625 
L 61.375 72.90625 
L 61.375 64.59375 
L 35.5 64.59375 
L 35.5 0 
L 25.59375 0 
L 25.59375 64.59375 
L -0.296875 64.59375 
z
" id="DejaVuSans-84"/>
      <path d="M 9.421875 54.6875 
L 18.40625 54.6875 
L 18.40625 0 
L 9.421875 0 
z
M 9.421875 75.984375 
L 18.40625 75.984375 
L 18.40625 64.59375 
L 9.421875 64.59375 
z
" id="DejaVuSans-105"/>
      <path d="M 52 44.1875 
Q 55.375 50.25 60.0625 53.125 
Q 64.75 56 71.09375 56 
Q 79.640625 56 84.28125 50.015625 
Q 88.921875 44.046875 88.921875 33.015625 
L 88.921875 0 
L 79.890625 0 
L 79.890625 32.71875 
Q 79.890625 40.578125 77.09375 44.375 
Q 74.3125 48.1875 68.609375 48.1875 
Q 61.625 48.1875 57.5625 43.546875 
Q 53.515625 38.921875 53.515625 30.90625 
L 53.515625 0 
L 44.484375 0 
L 44.484375 32.71875 
Q 44.484375 40.625 41.703125 44.40625 
Q 38.921875 48.1875 33.109375 48.1875 
Q 26.21875 48.1875 22.15625 43.53125 
Q 18.109375 38.875 18.109375 30.90625 
L 18.109375 0 
L 9.078125 0 
L 9.078125 54.6875 
L 18.109375 54.6875 
L 18.109375 46.1875 
Q 21.1875 51.21875 25.484375 53.609375 
Q 29.78125 56 35.6875 56 
Q 41.65625 56 45.828125 52.96875 
Q 50 49.953125 52 44.1875 
z
" id="DejaVuSans-109"/>
      <path d="M 56.203125 29.59375 
L 56.203125 25.203125 
L 14.890625 25.203125 
Q 15.484375 15.921875 20.484375 11.0625 
Q 25.484375 6.203125 34.421875 6.203125 
Q 39.59375 6.203125 44.453125 7.46875 
Q 49.3125 8.734375 54.109375 11.28125 
L 54.109375 2.78125 
Q 49.265625 0.734375 44.1875 -0.34375 
Q 39.109375 -1.421875 33.890625 -1.421875 
Q 20.796875 -1.421875 13.15625 6.1875 
Q 5.515625 13.8125 5.515625 26.8125 
Q 5.515625 40.234375 12.765625 48.109375 
Q 20.015625 56 32.328125 56 
Q 43.359375 56 49.78125 48.890625 
Q 56.203125 41.796875 56.203125 29.59375 
z
M 47.21875 32.234375 
Q 47.125 39.59375 43.09375 43.984375 
Q 39.0625 48.390625 32.421875 48.390625 
Q 24.90625 48.390625 20.390625 44.140625 
Q 15.875 39.890625 15.1875 32.171875 
z
" id="DejaVuSans-101"/>
      <path id="DejaVuSans-32"/>
      <path d="M 8.59375 75.984375 
L 29.296875 75.984375 
L 29.296875 69 
L 17.578125 69 
L 17.578125 -6.203125 
L 29.296875 -6.203125 
L 29.296875 -13.1875 
L 8.59375 -13.1875 
z
" id="DejaVuSans-91"/>
      <path d="M 44.28125 53.078125 
L 44.28125 44.578125 
Q 40.484375 46.53125 36.375 47.5 
Q 32.28125 48.484375 27.875 48.484375 
Q 21.1875 48.484375 17.84375 46.4375 
Q 14.5 44.390625 14.5 40.28125 
Q 14.5 37.15625 16.890625 35.375 
Q 19.28125 33.59375 26.515625 31.984375 
L 29.59375 31.296875 
Q 39.15625 29.25 43.1875 25.515625 
Q 47.21875 21.78125 47.21875 15.09375 
Q 47.21875 7.46875 41.1875 3.015625 
Q 35.15625 -1.421875 24.609375 -1.421875 
Q 20.21875 -1.421875 15.453125 -0.5625 
Q 10.6875 0.296875 5.421875 2 
L 5.421875 11.28125 
Q 10.40625 8.6875 15.234375 7.390625 
Q 20.0625 6.109375 24.8125 6.109375 
Q 31.15625 6.109375 34.5625 8.28125 
Q 37.984375 10.453125 37.984375 14.40625 
Q 37.984375 18.0625 35.515625 20.015625 
Q 33.0625 21.96875 24.703125 23.78125 
L 21.578125 24.515625 
Q 13.234375 26.265625 9.515625 29.90625 
Q 5.8125 33.546875 5.8125 39.890625 
Q 5.8125 47.609375 11.28125 51.796875 
Q 16.75 56 26.8125 56 
Q 31.78125 56 36.171875 55.265625 
Q 40.578125 54.546875 44.28125 53.078125 
z
" id="DejaVuSans-115"/>
      <path d="M 30.421875 75.984375 
L 30.421875 -13.1875 
L 9.71875 -13.1875 
L 9.71875 -6.203125 
L 21.390625 -6.203125 
L 21.390625 69 
L 9.71875 69 
L 9.71875 75.984375 
z
" id="DejaVuSans-93"/>
     </defs>
     <g transform="translate(688.151094 645.366962)scale(0.1 -0.1)">
      <use xlink:href="#DejaVuSans-84"/>
      <use x="57.958984" xlink:href="#DejaVuSans-105"/>
      <use x="85.742188" xlink:href="#DejaVuSans-109"/>
      <use x="183.154297" xlink:href="#DejaVuSans-101"/>
      <use x="244.677734" xlink:href="#DejaVuSans-32"/>
      <use x="276.464844" xlink:href="#DejaVuSans-91"/>
      <use x="315.478516" xlink:href="#DejaVuSans-115"/>
      <use x="367.578125" xlink:href="#DejaVuSans-93"/>
     </g>
    </g>
   </g>
   <g id="matplotlib.axis_2">
    <g id="ytick_1">
     <g id="line2d_7">
      <defs>
       <path d="M 0 0 
L -3.5 0 
" id="m52041739c4" style="stroke:#000000;stroke-width:0.8;"/>
      </defs>
      <g>
       <use style="stroke:#000000;stroke-width:0.8;" x="172.8" xlink:href="#m52041739c4" y="587.803648"/>
      </g>
     </g>
     <g id="text_8">
      <!-- 0.22 -->
      <defs>
       <path d="M 10.6875 12.40625 
L 21 12.40625 
L 21 0 
L 10.6875 0 
z
" id="DejaVuSans-46"/>
      </defs>
      <g transform="translate(143.534375 591.602867)scale(0.1 -0.1)">
       <use xlink:href="#DejaVuSans-48"/>
       <use x="63.623047" xlink:href="#DejaVuSans-46"/>
       <use x="95.410156" xlink:href="#DejaVuSans-50"/>
       <use x="159.033203" xlink:href="#DejaVuSans-50"/>
      </g>
     </g>
    </g>
    <g id="ytick_2">
     <g id="line2d_8">
      <g>
       <use style="stroke:#000000;stroke-width:0.8;" x="172.8" xlink:href="#m52041739c4" y="487.420608"/>
      </g>
     </g>
     <g id="text_9">
      <!-- 0.24 -->
      <g transform="translate(143.534375 491.219826)scale(0.1 -0.1)">
       <use xlink:href="#DejaVuSans-48"/>
       <use x="63.623047" xlink:href="#DejaVuSans-46"/>
       <use x="95.410156" xlink:href="#DejaVuSans-50"/>
       <use x="159.033203" xlink:href="#DejaVuSans-52"/>
      </g>
     </g>
    </g>
    <g id="ytick_3">
     <g id="line2d_9">
      <g>
       <use style="stroke:#000000;stroke-width:0.8;" x="172.8" xlink:href="#m52041739c4" y="387.037567"/>
      </g>
     </g>
     <g id="text_10">
      <!-- 0.26 -->
      <g transform="translate(143.534375 390.836786)scale(0.1 -0.1)">
       <use xlink:href="#DejaVuSans-48"/>
       <use x="63.623047" xlink:href="#DejaVuSans-46"/>
       <use x="95.410156" xlink:href="#DejaVuSans-50"/>
       <use x="159.033203" xlink:href="#DejaVuSans-54"/>
      </g>
     </g>
    </g>
    <g id="ytick_4">
     <g id="line2d_10">
      <g>
       <use style="stroke:#000000;stroke-width:0.8;" x="172.8" xlink:href="#m52041739c4" y="286.654527"/>
      </g>
     </g>
     <g id="text_11">
      <!-- 0.28 -->
      <g transform="translate(143.534375 290.453746)scale(0.1 -0.1)">
       <use xlink:href="#DejaVuSans-48"/>
       <use x="63.623047" xlink:href="#DejaVuSans-46"/>
       <use x="95.410156" xlink:href="#DejaVuSans-50"/>
       <use x="159.033203" xlink:href="#DejaVuSans-56"/>
      </g>
     </g>
    </g>
    <g id="ytick_5">
     <g id="line2d_11">
      <g>
       <use style="stroke:#000000;stroke-width:0.8;" x="172.8" xlink:href="#m52041739c4" y="186.271487"/>
      </g>
     </g>
     <g id="text_12">
      <!-- 0.30 -->
      <defs>
       <path d="M 40.578125 39.3125 
Q 47.65625 37.796875 51.625 33 
Q 55.609375 28.21875 55.609375 21.1875 
Q 55.609375 10.40625 48.1875 4.484375 
Q 40.765625 -1.421875 27.09375 -1.421875 
Q 22.515625 -1.421875 17.65625 -0.515625 
Q 12.796875 0.390625 7.625 2.203125 
L 7.625 11.71875 
Q 11.71875 9.328125 16.59375 8.109375 
Q 21.484375 6.890625 26.8125 6.890625 
Q 36.078125 6.890625 40.9375 10.546875 
Q 45.796875 14.203125 45.796875 21.1875 
Q 45.796875 27.640625 41.28125 31.265625 
Q 36.765625 34.90625 28.71875 34.90625 
L 20.21875 34.90625 
L 20.21875 43.015625 
L 29.109375 43.015625 
Q 36.375 43.015625 40.234375 45.921875 
Q 44.09375 48.828125 44.09375 54.296875 
Q 44.09375 59.90625 40.109375 62.90625 
Q 36.140625 65.921875 28.71875 65.921875 
Q 24.65625 65.921875 20.015625 65.03125 
Q 15.375 64.15625 9.8125 62.3125 
L 9.8125 71.09375 
Q 15.4375 72.65625 20.34375 73.4375 
Q 25.25 74.21875 29.59375 74.21875 
Q 40.828125 74.21875 47.359375 69.109375 
Q 53.90625 64.015625 53.90625 55.328125 
Q 53.90625 49.265625 50.4375 45.09375 
Q 46.96875 40.921875 40.578125 39.3125 
z
" id="DejaVuSans-51"/>
      </defs>
      <g transform="translate(143.534375 190.070705)scale(0.1 -0.1)">
       <use xlink:href="#DejaVuSans-48"/>
       <use x="63.623047" xlink:href="#DejaVuSans-46"/>
       <use x="95.410156" xlink:href="#DejaVuSans-51"/>
       <use x="159.033203" xlink:href="#DejaVuSans-48"/>
      </g>
     </g>
    </g>
    <g id="ytick_6">
     <g id="line2d_12">
      <g>
       <use style="stroke:#000000;stroke-width:0.8;" x="172.8" xlink:href="#m52041739c4" y="85.888446"/>
      </g>
     </g>
     <g id="text_13">
      <!-- 0.32 -->
      <g transform="translate(143.534375 89.687665)scale(0.1 -0.1)">
       <use xlink:href="#DejaVuSans-48"/>
       <use x="63.623047" xlink:href="#DejaVuSans-46"/>
       <use x="95.410156" xlink:href="#DejaVuSans-51"/>
       <use x="159.033203" xlink:href="#DejaVuSans-50"/>
      </g>
     </g>
    </g>
    <g id="text_14">
     <!-- LDR data (ADC) -->
     <defs>
      <path d="M 9.8125 72.90625 
L 19.671875 72.90625 
L 19.671875 8.296875 
L 55.171875 8.296875 
L 55.171875 0 
L 9.8125 0 
z
" id="DejaVuSans-76"/>
      <path d="M 19.671875 64.796875 
L 19.671875 8.109375 
L 31.59375 8.109375 
Q 46.6875 8.109375 53.6875 14.9375 
Q 60.6875 21.78125 60.6875 36.53125 
Q 60.6875 51.171875 53.6875 57.984375 
Q 46.6875 64.796875 31.59375 64.796875 
z
M 9.8125 72.90625 
L 30.078125 72.90625 
Q 51.265625 72.90625 61.171875 64.09375 
Q 71.09375 55.28125 71.09375 36.53125 
Q 71.09375 17.671875 61.125 8.828125 
Q 51.171875 0 30.078125 0 
L 9.8125 0 
z
" id="DejaVuSans-68"/>
      <path d="M 44.390625 34.1875 
Q 47.5625 33.109375 50.5625 29.59375 
Q 53.5625 26.078125 56.59375 19.921875 
L 66.609375 0 
L 56 0 
L 46.6875 18.703125 
Q 43.0625 26.03125 39.671875 28.421875 
Q 36.28125 30.8125 30.421875 30.8125 
L 19.671875 30.8125 
L 19.671875 0 
L 9.8125 0 
L 9.8125 72.90625 
L 32.078125 72.90625 
Q 44.578125 72.90625 50.734375 67.671875 
Q 56.890625 62.453125 56.890625 51.90625 
Q 56.890625 45.015625 53.6875 40.46875 
Q 50.484375 35.9375 44.390625 34.1875 
z
M 19.671875 64.796875 
L 19.671875 38.921875 
L 32.078125 38.921875 
Q 39.203125 38.921875 42.84375 42.21875 
Q 46.484375 45.515625 46.484375 51.90625 
Q 46.484375 58.296875 42.84375 61.546875 
Q 39.203125 64.796875 32.078125 64.796875 
z
" id="DejaVuSans-82"/>
      <path d="M 45.40625 46.390625 
L 45.40625 75.984375 
L 54.390625 75.984375 
L 54.390625 0 
L 45.40625 0 
L 45.40625 8.203125 
Q 42.578125 3.328125 38.25 0.953125 
Q 33.9375 -1.421875 27.875 -1.421875 
Q 17.96875 -1.421875 11.734375 6.484375 
Q 5.515625 14.40625 5.515625 27.296875 
Q 5.515625 40.1875 11.734375 48.09375 
Q 17.96875 56 27.875 56 
Q 33.9375 56 38.25 53.625 
Q 42.578125 51.265625 45.40625 46.390625 
z
M 14.796875 27.296875 
Q 14.796875 17.390625 18.875 11.75 
Q 22.953125 6.109375 30.078125 6.109375 
Q 37.203125 6.109375 41.296875 11.75 
Q 45.40625 17.390625 45.40625 27.296875 
Q 45.40625 37.203125 41.296875 42.84375 
Q 37.203125 48.484375 30.078125 48.484375 
Q 22.953125 48.484375 18.875 42.84375 
Q 14.796875 37.203125 14.796875 27.296875 
z
" id="DejaVuSans-100"/>
      <path d="M 34.28125 27.484375 
Q 23.390625 27.484375 19.1875 25 
Q 14.984375 22.515625 14.984375 16.5 
Q 14.984375 11.71875 18.140625 8.90625 
Q 21.296875 6.109375 26.703125 6.109375 
Q 34.1875 6.109375 38.703125 11.40625 
Q 43.21875 16.703125 43.21875 25.484375 
L 43.21875 27.484375 
z
M 52.203125 31.203125 
L 52.203125 0 
L 43.21875 0 
L 43.21875 8.296875 
Q 40.140625 3.328125 35.546875 0.953125 
Q 30.953125 -1.421875 24.3125 -1.421875 
Q 15.921875 -1.421875 10.953125 3.296875 
Q 6 8.015625 6 15.921875 
Q 6 25.140625 12.171875 29.828125 
Q 18.359375 34.515625 30.609375 34.515625 
L 43.21875 34.515625 
L 43.21875 35.40625 
Q 43.21875 41.609375 39.140625 45 
Q 35.0625 48.390625 27.6875 48.390625 
Q 23 48.390625 18.546875 47.265625 
Q 14.109375 46.140625 10.015625 43.890625 
L 10.015625 52.203125 
Q 14.9375 54.109375 19.578125 55.046875 
Q 24.21875 56 28.609375 56 
Q 40.484375 56 46.34375 49.84375 
Q 52.203125 43.703125 52.203125 31.203125 
z
" id="DejaVuSans-97"/>
      <path d="M 18.3125 70.21875 
L 18.3125 54.6875 
L 36.8125 54.6875 
L 36.8125 47.703125 
L 18.3125 47.703125 
L 18.3125 18.015625 
Q 18.3125 11.328125 20.140625 9.421875 
Q 21.96875 7.515625 27.59375 7.515625 
L 36.8125 7.515625 
L 36.8125 0 
L 27.59375 0 
Q 17.1875 0 13.234375 3.875 
Q 9.28125 7.765625 9.28125 18.015625 
L 9.28125 47.703125 
L 2.6875 47.703125 
L 2.6875 54.6875 
L 9.28125 54.6875 
L 9.28125 70.21875 
z
" id="DejaVuSans-116"/>
      <path d="M 31 75.875 
Q 24.46875 64.65625 21.28125 53.65625 
Q 18.109375 42.671875 18.109375 31.390625 
Q 18.109375 20.125 21.3125 9.0625 
Q 24.515625 -2 31 -13.1875 
L 23.1875 -13.1875 
Q 15.875 -1.703125 12.234375 9.375 
Q 8.59375 20.453125 8.59375 31.390625 
Q 8.59375 42.28125 12.203125 53.3125 
Q 15.828125 64.359375 23.1875 75.875 
z
" id="DejaVuSans-40"/>
      <path d="M 34.1875 63.1875 
L 20.796875 26.90625 
L 47.609375 26.90625 
z
M 28.609375 72.90625 
L 39.796875 72.90625 
L 67.578125 0 
L 57.328125 0 
L 50.6875 18.703125 
L 17.828125 18.703125 
L 11.1875 0 
L 0.78125 0 
z
" id="DejaVuSans-65"/>
      <path d="M 64.40625 67.28125 
L 64.40625 56.890625 
Q 59.421875 61.53125 53.78125 63.8125 
Q 48.140625 66.109375 41.796875 66.109375 
Q 29.296875 66.109375 22.65625 58.46875 
Q 16.015625 50.828125 16.015625 36.375 
Q 16.015625 21.96875 22.65625 14.328125 
Q 29.296875 6.6875 41.796875 6.6875 
Q 48.140625 6.6875 53.78125 8.984375 
Q 59.421875 11.28125 64.40625 15.921875 
L 64.40625 5.609375 
Q 59.234375 2.09375 53.4375 0.328125 
Q 47.65625 -1.421875 41.21875 -1.421875 
Q 24.65625 -1.421875 15.125 8.703125 
Q 5.609375 18.84375 5.609375 36.375 
Q 5.609375 53.953125 15.125 64.078125 
Q 24.65625 74.21875 41.21875 74.21875 
Q 47.75 74.21875 53.53125 72.484375 
Q 59.328125 70.75 64.40625 67.28125 
z
" id="DejaVuSans-67"/>
      <path d="M 8.015625 75.875 
L 15.828125 75.875 
Q 23.140625 64.359375 26.78125 53.3125 
Q 30.421875 42.28125 30.421875 31.390625 
Q 30.421875 20.453125 26.78125 9.375 
Q 23.140625 -1.703125 15.828125 -13.1875 
L 8.015625 -13.1875 
Q 14.5 -2 17.703125 9.0625 
Q 20.90625 20.125 20.90625 31.390625 
Q 20.90625 42.671875 17.703125 53.65625 
Q 14.5 64.65625 8.015625 75.875 
z
" id="DejaVuSans-41"/>
     </defs>
     <g transform="translate(137.454687 389.360862)rotate(-90)scale(0.1 -0.1)">
      <use xlink:href="#DejaVuSans-76"/>
      <use x="55.712891" xlink:href="#DejaVuSans-68"/>
      <use x="132.714844" xlink:href="#DejaVuSans-82"/>
      <use x="202.197266" xlink:href="#DejaVuSans-32"/>
      <use x="233.984375" xlink:href="#DejaVuSans-100"/>
      <use x="297.460938" xlink:href="#DejaVuSans-97"/>
      <use x="358.740234" xlink:href="#DejaVuSans-116"/>
      <use x="397.949219" xlink:href="#DejaVuSans-97"/>
      <use x="459.228516" xlink:href="#DejaVuSans-32"/>
      <use x="491.015625" xlink:href="#DejaVuSans-40"/>
      <use x="530.029297" xlink:href="#DejaVuSans-65"/>
      <use x="598.4375" xlink:href="#DejaVuSans-68"/>
      <use x="675.439453" xlink:href="#DejaVuSans-67"/>
      <use x="745.263672" xlink:href="#DejaVuSans-41"/>
     </g>
    </g>
   </g>
   <g id="line2d_13">
    <path clip-path="url(#p26c3c0af4e)" d="M 221.498182 583.286411 
L 222.472145 588.305563 
L 223.446109 583.286411 
L 224.420073 588.305563 
L 239.029527 588.305563 
L 240.003491 583.286411 
L 240.977455 588.305563 
L 262.404655 588.305563 
L 263.378618 592.8228 
L 264.352582 588.305563 
L 276.040145 588.305563 
L 277.014109 583.286411 
L 277.988073 583.286411 
L 279.936 592.8228 
L 280.909964 588.305563 
L 281.883927 592.8228 
L 282.857891 588.305563 
L 286.753745 588.305563 
L 287.727709 592.8228 
L 288.701673 588.305563 
L 292.597527 588.305563 
L 293.571491 592.8228 
L 294.545455 588.305563 
L 307.206982 588.305563 
L 308.180945 583.286411 
L 309.154909 588.305563 
L 311.102836 588.305563 
L 312.0768 592.8228 
L 313.050764 588.305563 
L 331.556073 588.305563 
L 332.530036 592.8228 
L 333.504 588.305563 
L 341.295709 588.305563 
L 342.269673 583.286411 
L 343.243636 588.305563 
L 346.165527 588.305563 
L 347.139491 592.8228 
L 349.087418 583.286411 
L 350.061382 588.305563 
L 353.957236 588.305563 
L 354.9312 583.286411 
L 355.905164 588.305563 
L 357.853091 588.305563 
L 358.827055 583.286411 
L 359.801018 588.305563 
L 363.696873 588.305563 
L 364.670836 592.8228 
L 365.6448 588.305563 
L 369.540655 588.305563 
L 370.514618 583.286411 
L 371.488582 588.305563 
L 389.019927 588.305563 
L 389.993891 583.286411 
L 390.967855 588.305563 
L 400.707491 588.305563 
L 401.681455 583.286411 
L 402.655418 588.305563 
L 403.629382 588.305563 
L 404.603345 583.286411 
L 405.577309 588.305563 
L 406.551273 588.305563 
L 407.525236 583.286411 
L 408.4992 583.286411 
L 409.473164 588.305563 
L 412.395055 588.305563 
L 413.369018 583.286411 
L 414.342982 588.305563 
L 419.2128 588.305563 
L 420.186764 583.286411 
L 421.160727 583.286411 
L 422.134691 588.305563 
L 423.108655 583.286411 
L 424.082618 583.286411 
L 425.056582 588.305563 
L 428.952436 588.305563 
L 429.9264 583.286411 
L 430.900364 588.305563 
L 431.874327 583.286411 
L 433.822255 583.286411 
L 434.796218 588.305563 
L 438.692073 588.305563 
L 439.666036 583.286411 
L 440.64 588.305563 
L 443.561891 588.305563 
L 444.535855 583.286411 
L 445.509818 588.305563 
L 446.483782 583.286411 
L 447.457745 583.286411 
L 448.431709 588.305563 
L 449.405673 583.286411 
L 450.379636 588.305563 
L 452.327564 588.305563 
L 453.301527 583.286411 
L 454.275491 588.305563 
L 456.223418 588.305563 
L 457.197382 583.286411 
L 458.171345 588.305563 
L 460.119273 588.305563 
L 461.093236 583.286411 
L 462.0672 588.305563 
L 463.041164 583.286411 
L 464.015127 588.305563 
L 464.989091 583.286411 
L 465.963055 588.305563 
L 472.7808 588.305563 
L 473.754764 583.286411 
L 474.728727 588.305563 
L 475.702691 583.286411 
L 477.650618 583.286411 
L 478.624582 588.305563 
L 483.4944 588.305563 
L 484.468364 583.286411 
L 485.442327 588.305563 
L 491.286109 588.305563 
L 492.260073 583.286411 
L 493.234036 588.305563 
L 494.208 583.286411 
L 495.181964 588.305563 
L 496.155927 588.305563 
L 497.129891 583.286411 
L 498.103855 588.305563 
L 501.025745 588.305563 
L 501.999709 583.286411 
L 502.973673 588.305563 
L 509.791418 588.305563 
L 510.765382 583.286411 
L 511.739345 588.305563 
L 512.713309 588.305563 
L 513.687273 583.286411 
L 514.661236 588.305563 
L 515.6352 583.286411 
L 516.609164 588.305563 
L 517.583127 583.286411 
L 518.557091 588.305563 
L 521.478982 588.305563 
L 522.452945 583.286411 
L 523.426909 588.305563 
L 527.322764 588.305563 
L 528.296727 583.286411 
L 529.270691 588.305563 
L 547.776 588.305563 
L 548.749964 583.286411 
L 549.723927 588.305563 
L 554.593745 588.305563 
L 555.567709 583.286411 
L 556.541673 588.305563 
L 566.281309 588.305563 
L 567.255273 583.286411 
L 568.229236 588.305563 
L 569.2032 583.286411 
L 570.177164 583.286411 
L 571.151127 588.305563 
L 590.6304 588.305563 
L 591.604364 583.286411 
L 592.578327 588.305563 
L 597.448145 588.305563 
L 598.422109 592.8228 
L 599.396073 588.305563 
L 628.614982 588.305563 
L 629.588945 592.8228 
L 630.562909 588.305563 
L 648.094255 588.305563 
L 649.068218 583.286411 
L 651.016145 592.8228 
L 651.990109 592.8228 
L 652.964073 588.305563 
L 657.833891 588.305563 
L 658.807855 583.286411 
L 659.781818 588.305563 
L 660.755782 588.305563 
L 661.729745 573.248107 
L 662.703709 563.711718 
L 663.677673 504.485725 
L 664.651636 401.593108 
L 665.6256 337.849878 
L 666.599564 264.068343 
L 667.573527 254.531954 
L 668.547491 367.462874 
L 669.521455 460.317187 
L 670.495418 519.543181 
L 671.469382 563.711718 
L 672.443345 578.267259 
L 673.417309 583.286411 
L 676.3392 583.286411 
L 677.313164 588.305563 
L 678.287127 588.305563 
L 679.261091 583.286411 
L 680.235055 583.286411 
L 681.209018 588.305563 
L 685.104873 588.305563 
L 686.078836 583.286411 
L 687.0528 588.305563 
L 689.974691 588.305563 
L 690.948655 583.286411 
L 691.922618 588.305563 
L 698.740364 588.305563 
L 699.714327 583.286411 
L 700.688291 588.305563 
L 703.610182 588.305563 
L 704.584145 583.286411 
L 705.558109 583.286411 
L 706.532073 588.305563 
L 709.453964 588.305563 
L 710.427927 583.286411 
L 711.401891 588.305563 
L 712.375855 583.286411 
L 715.297745 583.286411 
L 716.271709 588.305563 
L 717.245673 588.305563 
L 718.219636 583.286411 
L 721.141527 583.286411 
L 722.115491 578.267259 
L 723.089455 553.673414 
L 724.063418 539.117873 
L 725.037382 440.742494 
L 726.011345 382.018415 
L 726.985309 215.382568 
L 727.959273 122.026341 
L 728.933236 107.4708 
L 729.9072 229.938109 
L 730.881164 298.700492 
L 731.855127 450.780798 
L 732.829091 519.543181 
L 733.803055 558.692566 
L 734.777018 578.267259 
L 735.750982 583.286411 
L 742.568727 583.286411 
L 743.542691 588.305563 
L 744.516655 583.286411 
L 748.412509 583.286411 
L 749.386473 588.305563 
L 750.360436 583.286411 
L 751.3344 583.286411 
L 752.308364 592.8228 
L 753.282327 583.286411 
L 754.256291 588.305563 
L 758.152145 588.305563 
L 759.126109 583.286411 
L 760.100073 588.305563 
L 761.074036 588.305563 
L 762.048 583.286411 
L 763.021964 583.286411 
L 763.995927 588.305563 
L 764.969891 583.286411 
L 765.943855 588.305563 
L 766.917818 583.286411 
L 767.891782 583.286411 
L 768.865745 588.305563 
L 769.839709 583.286411 
L 770.813673 588.305563 
L 771.787636 583.286411 
L 772.7616 588.305563 
L 773.735564 583.286411 
L 777.631418 583.286411 
L 778.605382 558.692566 
L 779.579345 548.654262 
L 780.553309 455.79995 
L 781.527273 347.888182 
L 783.4752 200.325112 
L 784.449164 175.731267 
L 785.423127 171.214031 
L 786.397091 146.620186 
L 787.371055 146.620186 
L 788.345018 156.156575 
L 789.318982 171.214031 
L 790.292945 180.750419 
L 791.266909 161.175727 
L 792.240873 161.175727 
L 793.214836 239.976413 
L 794.1888 279.125799 
L 795.162764 416.148649 
L 796.136727 480.393795 
L 797.110691 524.562333 
L 798.084655 553.673414 
L 799.058618 568.228955 
L 800.032582 568.228955 
L 801.980509 578.267259 
L 802.954473 578.267259 
L 803.928436 583.286411 
L 813.668073 583.286411 
L 814.642036 588.305563 
L 815.616 583.286411 
L 818.537891 583.286411 
L 819.511855 588.305563 
L 820.485818 583.286411 
L 821.459782 588.305563 
L 822.433745 583.286411 
L 824.381673 583.286411 
L 825.355636 588.305563 
L 826.3296 588.305563 
L 827.303564 583.286411 
L 828.277527 588.305563 
L 829.251491 583.286411 
L 830.225455 588.305563 
L 831.199418 588.305563 
L 832.173382 583.286411 
L 833.147345 588.305563 
L 834.121309 583.286411 
L 835.095273 588.305563 
L 836.069236 583.286411 
L 837.0432 588.305563 
L 838.991127 588.305563 
L 839.965091 583.286411 
L 840.939055 588.305563 
L 841.913018 583.286411 
L 842.886982 588.305563 
L 843.860945 583.286411 
L 844.834909 583.286411 
L 845.808873 588.305563 
L 846.782836 583.286411 
L 847.7568 588.305563 
L 856.522473 588.305563 
L 857.496436 583.286411 
L 858.4704 592.8228 
L 859.444364 588.305563 
L 880.871564 588.305563 
L 881.845527 592.8228 
L 882.819491 588.305563 
L 883.793455 588.305563 
L 884.767418 583.286411 
L 885.741382 588.305563 
L 888.663273 588.305563 
L 889.637236 583.286411 
L 890.6112 583.286411 
L 891.585164 588.305563 
L 895.481018 588.305563 
L 896.454982 592.8228 
L 897.428945 588.305563 
L 904.246691 588.305563 
L 906.194618 578.267259 
L 907.168582 548.654262 
L 909.116509 426.186953 
L 910.090473 298.700492 
L 911.064436 239.976413 
L 912.0384 190.788723 
L 913.012364 166.194879 
L 913.986327 171.214031 
L 914.960291 151.639338 
L 915.934255 151.639338 
L 916.908218 171.214031 
L 917.882182 166.194879 
L 918.856145 180.750419 
L 919.830109 171.214031 
L 920.804073 171.214031 
L 921.778036 279.125799 
L 923.725964 450.780798 
L 924.699927 519.543181 
L 925.673891 544.137025 
L 926.647855 563.711718 
L 928.595782 573.248107 
L 929.569745 583.286411 
L 930.543709 578.267259 
L 931.517673 583.286411 
L 932.491636 578.267259 
L 933.4656 583.286411 
L 934.439564 583.286411 
L 935.413527 588.305563 
L 936.387491 583.286411 
L 937.361455 588.305563 
L 938.335418 588.305563 
L 939.309382 583.286411 
L 940.283345 588.305563 
L 954.8928 588.305563 
L 955.866764 592.8228 
L 957.814691 583.286411 
L 958.788655 588.305563 
L 959.762618 588.305563 
L 960.736582 583.286411 
L 961.710545 588.305563 
L 965.6064 588.305563 
L 966.580364 583.286411 
L 967.554327 588.305563 
L 972.424145 588.305563 
L 973.398109 583.286411 
L 975.346036 592.8228 
L 976.32 588.305563 
L 977.293964 592.8228 
L 978.267927 583.286411 
L 979.241891 588.305563 
L 987.0336 588.305563 
L 988.007564 592.8228 
L 988.981527 588.305563 
L 997.7472 588.305563 
L 998.721164 583.286411 
L 999.695127 588.305563 
L 1001.643055 588.305563 
L 1002.617018 583.286411 
L 1003.590982 592.8228 
L 1004.564945 588.305563 
L 1010.408727 588.305563 
L 1011.382691 583.286411 
L 1012.356655 588.305563 
L 1018.200436 588.305563 
L 1019.1744 583.286411 
L 1021.122327 592.8228 
L 1022.096291 588.305563 
L 1023.070255 588.305563 
L 1024.044218 583.286411 
L 1025.018182 588.305563 
L 1025.992145 583.286411 
L 1026.966109 583.286411 
L 1027.940073 588.305563 
L 1028.914036 573.248107 
L 1030.861964 494.949336 
L 1031.835927 357.42457 
L 1032.809891 303.719644 
L 1033.783855 156.156575 
L 1034.757818 107.4708 
L 1035.731782 146.620186 
L 1036.705745 264.068343 
L 1037.679709 357.42457 
L 1038.653673 484.911032 
L 1040.6016 568.228955 
L 1041.575564 583.286411 
L 1047.419345 583.286411 
L 1048.393309 588.305563 
L 1049.367273 583.286411 
L 1050.341236 588.305563 
L 1051.3152 583.286411 
L 1052.289164 588.305563 
L 1053.263127 583.286411 
L 1054.237091 588.305563 
L 1055.211055 588.305563 
L 1056.185018 583.286411 
L 1058.132945 583.286411 
L 1059.106909 588.305563 
L 1060.080873 588.305563 
L 1061.054836 583.286411 
L 1063.976727 583.286411 
L 1064.950691 588.305563 
L 1068.846545 588.305563 
L 1069.820509 583.286411 
L 1070.794473 583.286411 
L 1071.768436 588.305563 
L 1072.7424 583.286411 
L 1073.716364 583.286411 
L 1074.690327 588.305563 
L 1075.664291 583.286411 
L 1082.482036 583.286411 
L 1083.456 588.305563 
L 1084.429964 583.286411 
L 1085.403927 583.286411 
L 1086.377891 588.305563 
L 1087.351855 583.286411 
L 1088.325818 588.305563 
L 1091.247709 588.305563 
L 1092.221673 583.286411 
L 1094.1696 563.711718 
L 1095.143564 480.393795 
L 1096.117527 440.742494 
L 1097.091491 288.662188 
L 1098.065455 185.769571 
L 1099.039418 111.988037 
L 1100.013382 146.620186 
L 1100.987345 210.363416 
L 1101.961309 382.018415 
L 1103.909236 534.098721 
L 1104.8832 563.711718 
L 1105.857164 583.286411 
L 1115.5968 583.286411 
L 1116.570764 588.305563 
L 1117.544727 583.286411 
L 1118.518691 588.305563 
L 1119.492655 583.286411 
L 1126.3104 583.286411 
L 1127.284364 588.305563 
L 1128.258327 583.286411 
L 1129.232291 588.305563 
L 1131.180218 588.305563 
L 1132.154182 583.286411 
L 1134.102109 583.286411 
L 1135.076073 588.305563 
L 1136.050036 588.305563 
L 1137.024 583.286411 
L 1137.997964 588.305563 
L 1140.919855 588.305563 
L 1141.893818 583.286411 
L 1142.867782 588.305563 
L 1153.581382 588.305563 
L 1154.555345 583.286411 
L 1155.529309 588.305563 
L 1156.503273 588.305563 
L 1157.477236 583.286411 
L 1158.4512 588.305563 
L 1160.399127 588.305563 
L 1161.373091 583.286411 
L 1162.347055 583.286411 
L 1163.321018 588.305563 
L 1164.294982 583.286411 
L 1168.190836 583.286411 
L 1169.1648 588.305563 
L 1170.138764 583.286411 
L 1171.112727 583.286411 
L 1172.086691 578.267259 
L 1174.034618 558.692566 
L 1175.982545 416.148649 
L 1176.956509 313.256033 
L 1177.930473 229.938109 
L 1178.904436 200.325112 
L 1179.8784 190.788723 
L 1180.852364 175.731267 
L 1181.826327 146.620186 
L 1183.774255 224.918957 
L 1184.748218 382.018415 
L 1185.722182 440.742494 
L 1186.696145 514.524029 
L 1187.670109 548.654262 
L 1188.644073 563.711718 
L 1189.618036 573.248107 
L 1190.592 578.267259 
L 1191.565964 578.267259 
L 1192.539927 583.286411 
L 1195.461818 583.286411 
L 1195.461818 583.286411 
" style="fill:none;stroke:#1f77b4;stroke-linecap:square;stroke-width:1.5;"/>
   </g>
   <g id="patch_3">
    <path d="M 172.8 617.0904 
L 172.8 83.2032 
" style="fill:none;stroke:#000000;stroke-linecap:square;stroke-linejoin:miter;stroke-width:0.8;"/>
   </g>
   <g id="patch_4">
    <path d="M 1244.16 617.0904 
L 1244.16 83.2032 
" style="fill:none;stroke:#000000;stroke-linecap:square;stroke-linejoin:miter;stroke-width:0.8;"/>
   </g>
   <g id="patch_5">
    <path d="M 172.8 617.0904 
L 1244.16 617.0904 
" style="fill:none;stroke:#000000;stroke-linecap:square;stroke-linejoin:miter;stroke-width:0.8;"/>
   </g>
   <g id="patch_6">
    <path d="M 172.8 83.2032 
L 1244.16 83.2032 
" style="fill:none;stroke:#000000;stroke-linecap:square;stroke-linejoin:miter;stroke-width:0.8;"/>
   </g>
   <g id="text_15">
    <!-- Dino Game Sensing -->
    <defs>
     <path d="M 54.890625 33.015625 
L 54.890625 0 
L 45.90625 0 
L 45.90625 32.71875 
Q 45.90625 40.484375 42.875 44.328125 
Q 39.84375 48.1875 33.796875 48.1875 
Q 26.515625 48.1875 22.3125 43.546875 
Q 18.109375 38.921875 18.109375 30.90625 
L 18.109375 0 
L 9.078125 0 
L 9.078125 54.6875 
L 18.109375 54.6875 
L 18.109375 46.1875 
Q 21.34375 51.125 25.703125 53.5625 
Q 30.078125 56 35.796875 56 
Q 45.21875 56 50.046875 50.171875 
Q 54.890625 44.34375 54.890625 33.015625 
z
" id="DejaVuSans-110"/>
     <path d="M 30.609375 48.390625 
Q 23.390625 48.390625 19.1875 42.75 
Q 14.984375 37.109375 14.984375 27.296875 
Q 14.984375 17.484375 19.15625 11.84375 
Q 23.34375 6.203125 30.609375 6.203125 
Q 37.796875 6.203125 41.984375 11.859375 
Q 46.1875 17.53125 46.1875 27.296875 
Q 46.1875 37.015625 41.984375 42.703125 
Q 37.796875 48.390625 30.609375 48.390625 
z
M 30.609375 56 
Q 42.328125 56 49.015625 48.375 
Q 55.71875 40.765625 55.71875 27.296875 
Q 55.71875 13.875 49.015625 6.21875 
Q 42.328125 -1.421875 30.609375 -1.421875 
Q 18.84375 -1.421875 12.171875 6.21875 
Q 5.515625 13.875 5.515625 27.296875 
Q 5.515625 40.765625 12.171875 48.375 
Q 18.84375 56 30.609375 56 
z
" id="DejaVuSans-111"/>
     <path d="M 59.515625 10.40625 
L 59.515625 29.984375 
L 43.40625 29.984375 
L 43.40625 38.09375 
L 69.28125 38.09375 
L 69.28125 6.78125 
Q 63.578125 2.734375 56.6875 0.65625 
Q 49.8125 -1.421875 42 -1.421875 
Q 24.90625 -1.421875 15.25 8.5625 
Q 5.609375 18.5625 5.609375 36.375 
Q 5.609375 54.25 15.25 64.234375 
Q 24.90625 74.21875 42 74.21875 
Q 49.125 74.21875 55.546875 72.453125 
Q 61.96875 70.703125 67.390625 67.28125 
L 67.390625 56.78125 
Q 61.921875 61.421875 55.765625 63.765625 
Q 49.609375 66.109375 42.828125 66.109375 
Q 29.4375 66.109375 22.71875 58.640625 
Q 16.015625 51.171875 16.015625 36.375 
Q 16.015625 21.625 22.71875 14.15625 
Q 29.4375 6.6875 42.828125 6.6875 
Q 48.046875 6.6875 52.140625 7.59375 
Q 56.25 8.5 59.515625 10.40625 
z
" id="DejaVuSans-71"/>
     <path d="M 53.515625 70.515625 
L 53.515625 60.890625 
Q 47.90625 63.578125 42.921875 64.890625 
Q 37.9375 66.21875 33.296875 66.21875 
Q 25.25 66.21875 20.875 63.09375 
Q 16.5 59.96875 16.5 54.203125 
Q 16.5 49.359375 19.40625 46.890625 
Q 22.3125 44.4375 30.421875 42.921875 
L 36.375 41.703125 
Q 47.40625 39.59375 52.65625 34.296875 
Q 57.90625 29 57.90625 20.125 
Q 57.90625 9.515625 50.796875 4.046875 
Q 43.703125 -1.421875 29.984375 -1.421875 
Q 24.8125 -1.421875 18.96875 -0.25 
Q 13.140625 0.921875 6.890625 3.21875 
L 6.890625 13.375 
Q 12.890625 10.015625 18.65625 8.296875 
Q 24.421875 6.59375 29.984375 6.59375 
Q 38.421875 6.59375 43.015625 9.90625 
Q 47.609375 13.234375 47.609375 19.390625 
Q 47.609375 24.75 44.3125 27.78125 
Q 41.015625 30.8125 33.5 32.328125 
L 27.484375 33.5 
Q 16.453125 35.6875 11.515625 40.375 
Q 6.59375 45.0625 6.59375 53.421875 
Q 6.59375 63.09375 13.40625 68.65625 
Q 20.21875 74.21875 32.171875 74.21875 
Q 37.3125 74.21875 42.625 73.28125 
Q 47.953125 72.359375 53.515625 70.515625 
z
" id="DejaVuSans-83"/>
     <path d="M 45.40625 27.984375 
Q 45.40625 37.75 41.375 43.109375 
Q 37.359375 48.484375 30.078125 48.484375 
Q 22.859375 48.484375 18.828125 43.109375 
Q 14.796875 37.75 14.796875 27.984375 
Q 14.796875 18.265625 18.828125 12.890625 
Q 22.859375 7.515625 30.078125 7.515625 
Q 37.359375 7.515625 41.375 12.890625 
Q 45.40625 18.265625 45.40625 27.984375 
z
M 54.390625 6.78125 
Q 54.390625 -7.171875 48.1875 -13.984375 
Q 42 -20.796875 29.203125 -20.796875 
Q 24.46875 -20.796875 20.265625 -20.09375 
Q 16.0625 -19.390625 12.109375 -17.921875 
L 12.109375 -9.1875 
Q 16.0625 -11.328125 19.921875 -12.34375 
Q 23.78125 -13.375 27.78125 -13.375 
Q 36.625 -13.375 41.015625 -8.765625 
Q 45.40625 -4.15625 45.40625 5.171875 
L 45.40625 9.625 
Q 42.625 4.78125 38.28125 2.390625 
Q 33.9375 0 27.875 0 
Q 17.828125 0 11.671875 7.65625 
Q 5.515625 15.328125 5.515625 27.984375 
Q 5.515625 40.671875 11.671875 48.328125 
Q 17.828125 56 27.875 56 
Q 33.9375 56 38.28125 53.609375 
Q 42.625 51.21875 45.40625 46.390625 
L 45.40625 54.6875 
L 54.390625 54.6875 
z
" id="DejaVuSans-103"/>
    </defs>
    <g transform="translate(649.335937 77.2032)scale(0.12 -0.12)">
     <use xlink:href="#DejaVuSans-68"/>
     <use x="77.001953" xlink:href="#DejaVuSans-105"/>
     <use x="104.785156" xlink:href="#DejaVuSans-110"/>
     <use x="168.164062" xlink:href="#DejaVuSans-111"/>
     <use x="229.345703" xlink:href="#DejaVuSans-32"/>
     <use x="261.132812" xlink:href="#DejaVuSans-71"/>
     <use x="338.623047" xlink:href="#DejaVuSans-97"/>
     <use x="399.902344" xlink:href="#DejaVuSans-109"/>
     <use x="497.314453" xlink:href="#DejaVuSans-101"/>
     <use x="558.837891" xlink:href="#DejaVuSans-32"/>
     <use x="590.625" xlink:href="#DejaVuSans-83"/>
     <use x="654.101562" xlink:href="#DejaVuSans-101"/>
     <use x="715.625" xlink:href="#DejaVuSans-110"/>
     <use x="779.003906" xlink:href="#DejaVuSans-115"/>
     <use x="831.103516" xlink:href="#DejaVuSans-105"/>
     <use x="858.886719" xlink:href="#DejaVuSans-110"/>
     <use x="922.265625" xlink:href="#DejaVuSans-103"/>
    </g>
   </g>
  </g>
 </g>
 <defs>
  <clipPath id="p26c3c0af4e">
   <rect height="533.8872" width="1071.36" x="172.8" y="83.2032"/>
  </clipPath>
 </defs>
</svg>
